M48
; DRILL file {KiCad (5.99.0-8366-gd64f1b3b25)} date Wed Jan 13 01:42:43 2021
; FORMAT={-:-/ absolute / inch / decimal}
; #@! TF.CreationDate,2021-01-13T01:42:43+02:00
; #@! TF.GenerationSoftware,Kicad,Pcbnew,(5.99.0-8366-gd64f1b3b25)
; #@! TF.FileFunction,Plated,1,2,PTH
FMAT,2
INCH
T1C0.0157
T2C0.0256
T3C0.0276
T4C0.0866
%
G90
G05
T1
X4.635Y-1.98
X4.635Y-2.85
X4.6541Y-1.9341
X4.6541Y-2.0259
X4.6541Y-2.8041
X4.6541Y-2.8959
X4.7Y-1.915
X4.7Y-2.045
X4.7Y-2.785
X4.7Y-2.915
X4.7459Y-1.9341
X4.7459Y-2.0259
X4.7459Y-2.8041
X4.7459Y-2.8959
X4.765Y-1.98
X4.765Y-2.85
X5.295Y-1.98
X5.295Y-2.85
X5.3141Y-1.9341
X5.3141Y-2.0259
X5.3141Y-2.8041
X5.3141Y-2.8959
X5.36Y-1.915
X5.36Y-2.045
X5.36Y-2.785
X5.36Y-2.915
X5.4059Y-1.9341
X5.4059Y-2.0259
X5.4059Y-2.8041
X5.4059Y-2.8959
X5.425Y-1.98
X5.425Y-2.85
T2
X5.385Y-2.26
X5.385Y-2.31
X5.385Y-2.36
X5.385Y-2.41
X5.385Y-2.46
X5.385Y-2.51
X5.385Y-2.56
T3
X4.8194Y-2.1922
X4.8194Y-2.2622
X4.8194Y-2.3323
X4.8194Y-2.4024
X4.8194Y-2.4725
X4.8194Y-2.5426
X4.8194Y-2.6126
X4.8194Y-2.6827
X5.2406Y-2.2272
X5.2406Y-2.2973
X5.2406Y-2.3674
X5.2406Y-2.4374
X5.2406Y-2.5075
X5.2406Y-2.5776
X5.2406Y-2.6477
X5.2406Y-2.7178
T4
X4.7Y-1.98
X4.7Y-2.85
X5.36Y-1.98
X5.36Y-2.85
T0
M30
