G04 #@! TF.GenerationSoftware,KiCad,Pcbnew,(5.0.0-rc3-dev)*
G04 #@! TF.CreationDate,2018-07-03T21:05:53+03:00*
G04 #@! TF.ProjectId,board,626F6172642E6B696361645F70636200,v0.1*
G04 #@! TF.SameCoordinates,Original*
G04 #@! TF.FileFunction,Soldermask,Top*
G04 #@! TF.FilePolarity,Negative*
%FSLAX46Y46*%
G04 Gerber Fmt 4.6, Leading zero omitted, Abs format (unit mm)*
G04 Created by KiCad (PCBNEW (5.0.0-rc3-dev)) date Tue Jul  3 21:05:53 2018*
%MOMM*%
%LPD*%
G01*
G04 APERTURE LIST*
%ADD10C,1.100000*%
%ADD11C,4.800000*%
%ADD12C,0.100000*%
%ADD13C,1.550000*%
%ADD14R,2.100000X2.100000*%
%ADD15O,2.100000X2.100000*%
%ADD16C,1.800000*%
%ADD17R,1.800000X1.800000*%
G04 APERTURE END LIST*
D10*
G04 #@! TO.C,J6*
X140612726Y-48363274D03*
X139446000Y-47880000D03*
X138279274Y-48363274D03*
X137796000Y-49530000D03*
X138279274Y-50696726D03*
X139446000Y-51180000D03*
X140612726Y-50696726D03*
X141096000Y-49530000D03*
D11*
X139446000Y-49530000D03*
G04 #@! TD*
G04 #@! TO.C,J5*
X139446000Y-72390000D03*
D10*
X141096000Y-72390000D03*
X140612726Y-73556726D03*
X139446000Y-74040000D03*
X138279274Y-73556726D03*
X137796000Y-72390000D03*
X138279274Y-71223274D03*
X139446000Y-70740000D03*
X140612726Y-71223274D03*
G04 #@! TD*
G04 #@! TO.C,J4*
X120546726Y-48363274D03*
X119380000Y-47880000D03*
X118213274Y-48363274D03*
X117730000Y-49530000D03*
X118213274Y-50696726D03*
X119380000Y-51180000D03*
X120546726Y-50696726D03*
X121030000Y-49530000D03*
D11*
X119380000Y-49530000D03*
G04 #@! TD*
G04 #@! TO.C,J3*
X119380000Y-72390000D03*
D10*
X121030000Y-72390000D03*
X120546726Y-73556726D03*
X119380000Y-74040000D03*
X118213274Y-73556726D03*
X117730000Y-72390000D03*
X118213274Y-71223274D03*
X119380000Y-70740000D03*
X120546726Y-71223274D03*
G04 #@! TD*
D12*
G04 #@! TO.C,R5*
G36*
X138354071Y-62347623D02*
X138386781Y-62352475D01*
X138418857Y-62360509D01*
X138449991Y-62371649D01*
X138479884Y-62385787D01*
X138508247Y-62402787D01*
X138534807Y-62422485D01*
X138559308Y-62444692D01*
X138581515Y-62469193D01*
X138601213Y-62495753D01*
X138618213Y-62524116D01*
X138632351Y-62554009D01*
X138643491Y-62585143D01*
X138651525Y-62617219D01*
X138656377Y-62649929D01*
X138658000Y-62682956D01*
X138658000Y-63809044D01*
X138656377Y-63842071D01*
X138651525Y-63874781D01*
X138643491Y-63906857D01*
X138632351Y-63937991D01*
X138618213Y-63967884D01*
X138601213Y-63996247D01*
X138581515Y-64022807D01*
X138559308Y-64047308D01*
X138534807Y-64069515D01*
X138508247Y-64089213D01*
X138479884Y-64106213D01*
X138449991Y-64120351D01*
X138418857Y-64131491D01*
X138386781Y-64139525D01*
X138354071Y-64144377D01*
X138321044Y-64146000D01*
X137444956Y-64146000D01*
X137411929Y-64144377D01*
X137379219Y-64139525D01*
X137347143Y-64131491D01*
X137316009Y-64120351D01*
X137286116Y-64106213D01*
X137257753Y-64089213D01*
X137231193Y-64069515D01*
X137206692Y-64047308D01*
X137184485Y-64022807D01*
X137164787Y-63996247D01*
X137147787Y-63967884D01*
X137133649Y-63937991D01*
X137122509Y-63906857D01*
X137114475Y-63874781D01*
X137109623Y-63842071D01*
X137108000Y-63809044D01*
X137108000Y-62682956D01*
X137109623Y-62649929D01*
X137114475Y-62617219D01*
X137122509Y-62585143D01*
X137133649Y-62554009D01*
X137147787Y-62524116D01*
X137164787Y-62495753D01*
X137184485Y-62469193D01*
X137206692Y-62444692D01*
X137231193Y-62422485D01*
X137257753Y-62402787D01*
X137286116Y-62385787D01*
X137316009Y-62371649D01*
X137347143Y-62360509D01*
X137379219Y-62352475D01*
X137411929Y-62347623D01*
X137444956Y-62346000D01*
X138321044Y-62346000D01*
X138354071Y-62347623D01*
X138354071Y-62347623D01*
G37*
D13*
X137883000Y-63246000D03*
D12*
G36*
X136654071Y-62347623D02*
X136686781Y-62352475D01*
X136718857Y-62360509D01*
X136749991Y-62371649D01*
X136779884Y-62385787D01*
X136808247Y-62402787D01*
X136834807Y-62422485D01*
X136859308Y-62444692D01*
X136881515Y-62469193D01*
X136901213Y-62495753D01*
X136918213Y-62524116D01*
X136932351Y-62554009D01*
X136943491Y-62585143D01*
X136951525Y-62617219D01*
X136956377Y-62649929D01*
X136958000Y-62682956D01*
X136958000Y-63809044D01*
X136956377Y-63842071D01*
X136951525Y-63874781D01*
X136943491Y-63906857D01*
X136932351Y-63937991D01*
X136918213Y-63967884D01*
X136901213Y-63996247D01*
X136881515Y-64022807D01*
X136859308Y-64047308D01*
X136834807Y-64069515D01*
X136808247Y-64089213D01*
X136779884Y-64106213D01*
X136749991Y-64120351D01*
X136718857Y-64131491D01*
X136686781Y-64139525D01*
X136654071Y-64144377D01*
X136621044Y-64146000D01*
X135744956Y-64146000D01*
X135711929Y-64144377D01*
X135679219Y-64139525D01*
X135647143Y-64131491D01*
X135616009Y-64120351D01*
X135586116Y-64106213D01*
X135557753Y-64089213D01*
X135531193Y-64069515D01*
X135506692Y-64047308D01*
X135484485Y-64022807D01*
X135464787Y-63996247D01*
X135447787Y-63967884D01*
X135433649Y-63937991D01*
X135422509Y-63906857D01*
X135414475Y-63874781D01*
X135409623Y-63842071D01*
X135408000Y-63809044D01*
X135408000Y-62682956D01*
X135409623Y-62649929D01*
X135414475Y-62617219D01*
X135422509Y-62585143D01*
X135433649Y-62554009D01*
X135447787Y-62524116D01*
X135464787Y-62495753D01*
X135484485Y-62469193D01*
X135506692Y-62444692D01*
X135531193Y-62422485D01*
X135557753Y-62402787D01*
X135586116Y-62385787D01*
X135616009Y-62371649D01*
X135647143Y-62360509D01*
X135679219Y-62352475D01*
X135711929Y-62347623D01*
X135744956Y-62346000D01*
X136621044Y-62346000D01*
X136654071Y-62347623D01*
X136654071Y-62347623D01*
G37*
D13*
X136183000Y-63246000D03*
G04 #@! TD*
D14*
G04 #@! TO.C,J2*
X140944600Y-53365400D03*
D15*
X140944600Y-55905400D03*
X140944600Y-58445400D03*
X140944600Y-60985400D03*
X140944600Y-63525400D03*
X140944600Y-66065400D03*
X140944600Y-68605400D03*
G04 #@! TD*
D16*
G04 #@! TO.C,J1*
X133686800Y-66003200D03*
D17*
X122986800Y-53543200D03*
D16*
X133686800Y-64223200D03*
X122986800Y-55323200D03*
X133686800Y-62443200D03*
X122986800Y-57103200D03*
X133686800Y-60663200D03*
X122986800Y-58883200D03*
X133686800Y-58883200D03*
X122986800Y-60663200D03*
X133686800Y-57103200D03*
X122986800Y-62443200D03*
X133686800Y-55323200D03*
X122986800Y-64223200D03*
X133686800Y-53543200D03*
X122986800Y-66003200D03*
G04 #@! TD*
D12*
G04 #@! TO.C,C2*
G36*
X120992071Y-60020623D02*
X121024781Y-60025475D01*
X121056857Y-60033509D01*
X121087991Y-60044649D01*
X121117884Y-60058787D01*
X121146247Y-60075787D01*
X121172807Y-60095485D01*
X121197308Y-60117692D01*
X121219515Y-60142193D01*
X121239213Y-60168753D01*
X121256213Y-60197116D01*
X121270351Y-60227009D01*
X121281491Y-60258143D01*
X121289525Y-60290219D01*
X121294377Y-60322929D01*
X121296000Y-60355956D01*
X121296000Y-61232044D01*
X121294377Y-61265071D01*
X121289525Y-61297781D01*
X121281491Y-61329857D01*
X121270351Y-61360991D01*
X121256213Y-61390884D01*
X121239213Y-61419247D01*
X121219515Y-61445807D01*
X121197308Y-61470308D01*
X121172807Y-61492515D01*
X121146247Y-61512213D01*
X121117884Y-61529213D01*
X121087991Y-61543351D01*
X121056857Y-61554491D01*
X121024781Y-61562525D01*
X120992071Y-61567377D01*
X120959044Y-61569000D01*
X119832956Y-61569000D01*
X119799929Y-61567377D01*
X119767219Y-61562525D01*
X119735143Y-61554491D01*
X119704009Y-61543351D01*
X119674116Y-61529213D01*
X119645753Y-61512213D01*
X119619193Y-61492515D01*
X119594692Y-61470308D01*
X119572485Y-61445807D01*
X119552787Y-61419247D01*
X119535787Y-61390884D01*
X119521649Y-61360991D01*
X119510509Y-61329857D01*
X119502475Y-61297781D01*
X119497623Y-61265071D01*
X119496000Y-61232044D01*
X119496000Y-60355956D01*
X119497623Y-60322929D01*
X119502475Y-60290219D01*
X119510509Y-60258143D01*
X119521649Y-60227009D01*
X119535787Y-60197116D01*
X119552787Y-60168753D01*
X119572485Y-60142193D01*
X119594692Y-60117692D01*
X119619193Y-60095485D01*
X119645753Y-60075787D01*
X119674116Y-60058787D01*
X119704009Y-60044649D01*
X119735143Y-60033509D01*
X119767219Y-60025475D01*
X119799929Y-60020623D01*
X119832956Y-60019000D01*
X120959044Y-60019000D01*
X120992071Y-60020623D01*
X120992071Y-60020623D01*
G37*
D13*
X120396000Y-60794000D03*
D12*
G36*
X120992071Y-58320623D02*
X121024781Y-58325475D01*
X121056857Y-58333509D01*
X121087991Y-58344649D01*
X121117884Y-58358787D01*
X121146247Y-58375787D01*
X121172807Y-58395485D01*
X121197308Y-58417692D01*
X121219515Y-58442193D01*
X121239213Y-58468753D01*
X121256213Y-58497116D01*
X121270351Y-58527009D01*
X121281491Y-58558143D01*
X121289525Y-58590219D01*
X121294377Y-58622929D01*
X121296000Y-58655956D01*
X121296000Y-59532044D01*
X121294377Y-59565071D01*
X121289525Y-59597781D01*
X121281491Y-59629857D01*
X121270351Y-59660991D01*
X121256213Y-59690884D01*
X121239213Y-59719247D01*
X121219515Y-59745807D01*
X121197308Y-59770308D01*
X121172807Y-59792515D01*
X121146247Y-59812213D01*
X121117884Y-59829213D01*
X121087991Y-59843351D01*
X121056857Y-59854491D01*
X121024781Y-59862525D01*
X120992071Y-59867377D01*
X120959044Y-59869000D01*
X119832956Y-59869000D01*
X119799929Y-59867377D01*
X119767219Y-59862525D01*
X119735143Y-59854491D01*
X119704009Y-59843351D01*
X119674116Y-59829213D01*
X119645753Y-59812213D01*
X119619193Y-59792515D01*
X119594692Y-59770308D01*
X119572485Y-59745807D01*
X119552787Y-59719247D01*
X119535787Y-59690884D01*
X119521649Y-59660991D01*
X119510509Y-59629857D01*
X119502475Y-59597781D01*
X119497623Y-59565071D01*
X119496000Y-59532044D01*
X119496000Y-58655956D01*
X119497623Y-58622929D01*
X119502475Y-58590219D01*
X119510509Y-58558143D01*
X119521649Y-58527009D01*
X119535787Y-58497116D01*
X119552787Y-58468753D01*
X119572485Y-58442193D01*
X119594692Y-58417692D01*
X119619193Y-58395485D01*
X119645753Y-58375787D01*
X119674116Y-58358787D01*
X119704009Y-58344649D01*
X119735143Y-58333509D01*
X119767219Y-58325475D01*
X119799929Y-58320623D01*
X119832956Y-58319000D01*
X120959044Y-58319000D01*
X120992071Y-58320623D01*
X120992071Y-58320623D01*
G37*
D13*
X120396000Y-59094000D03*
G04 #@! TD*
D12*
G04 #@! TO.C,C1*
G36*
X120992071Y-56210623D02*
X121024781Y-56215475D01*
X121056857Y-56223509D01*
X121087991Y-56234649D01*
X121117884Y-56248787D01*
X121146247Y-56265787D01*
X121172807Y-56285485D01*
X121197308Y-56307692D01*
X121219515Y-56332193D01*
X121239213Y-56358753D01*
X121256213Y-56387116D01*
X121270351Y-56417009D01*
X121281491Y-56448143D01*
X121289525Y-56480219D01*
X121294377Y-56512929D01*
X121296000Y-56545956D01*
X121296000Y-57422044D01*
X121294377Y-57455071D01*
X121289525Y-57487781D01*
X121281491Y-57519857D01*
X121270351Y-57550991D01*
X121256213Y-57580884D01*
X121239213Y-57609247D01*
X121219515Y-57635807D01*
X121197308Y-57660308D01*
X121172807Y-57682515D01*
X121146247Y-57702213D01*
X121117884Y-57719213D01*
X121087991Y-57733351D01*
X121056857Y-57744491D01*
X121024781Y-57752525D01*
X120992071Y-57757377D01*
X120959044Y-57759000D01*
X119832956Y-57759000D01*
X119799929Y-57757377D01*
X119767219Y-57752525D01*
X119735143Y-57744491D01*
X119704009Y-57733351D01*
X119674116Y-57719213D01*
X119645753Y-57702213D01*
X119619193Y-57682515D01*
X119594692Y-57660308D01*
X119572485Y-57635807D01*
X119552787Y-57609247D01*
X119535787Y-57580884D01*
X119521649Y-57550991D01*
X119510509Y-57519857D01*
X119502475Y-57487781D01*
X119497623Y-57455071D01*
X119496000Y-57422044D01*
X119496000Y-56545956D01*
X119497623Y-56512929D01*
X119502475Y-56480219D01*
X119510509Y-56448143D01*
X119521649Y-56417009D01*
X119535787Y-56387116D01*
X119552787Y-56358753D01*
X119572485Y-56332193D01*
X119594692Y-56307692D01*
X119619193Y-56285485D01*
X119645753Y-56265787D01*
X119674116Y-56248787D01*
X119704009Y-56234649D01*
X119735143Y-56223509D01*
X119767219Y-56215475D01*
X119799929Y-56210623D01*
X119832956Y-56209000D01*
X120959044Y-56209000D01*
X120992071Y-56210623D01*
X120992071Y-56210623D01*
G37*
D13*
X120396000Y-56984000D03*
D12*
G36*
X120992071Y-54510623D02*
X121024781Y-54515475D01*
X121056857Y-54523509D01*
X121087991Y-54534649D01*
X121117884Y-54548787D01*
X121146247Y-54565787D01*
X121172807Y-54585485D01*
X121197308Y-54607692D01*
X121219515Y-54632193D01*
X121239213Y-54658753D01*
X121256213Y-54687116D01*
X121270351Y-54717009D01*
X121281491Y-54748143D01*
X121289525Y-54780219D01*
X121294377Y-54812929D01*
X121296000Y-54845956D01*
X121296000Y-55722044D01*
X121294377Y-55755071D01*
X121289525Y-55787781D01*
X121281491Y-55819857D01*
X121270351Y-55850991D01*
X121256213Y-55880884D01*
X121239213Y-55909247D01*
X121219515Y-55935807D01*
X121197308Y-55960308D01*
X121172807Y-55982515D01*
X121146247Y-56002213D01*
X121117884Y-56019213D01*
X121087991Y-56033351D01*
X121056857Y-56044491D01*
X121024781Y-56052525D01*
X120992071Y-56057377D01*
X120959044Y-56059000D01*
X119832956Y-56059000D01*
X119799929Y-56057377D01*
X119767219Y-56052525D01*
X119735143Y-56044491D01*
X119704009Y-56033351D01*
X119674116Y-56019213D01*
X119645753Y-56002213D01*
X119619193Y-55982515D01*
X119594692Y-55960308D01*
X119572485Y-55935807D01*
X119552787Y-55909247D01*
X119535787Y-55880884D01*
X119521649Y-55850991D01*
X119510509Y-55819857D01*
X119502475Y-55787781D01*
X119497623Y-55755071D01*
X119496000Y-55722044D01*
X119496000Y-54845956D01*
X119497623Y-54812929D01*
X119502475Y-54780219D01*
X119510509Y-54748143D01*
X119521649Y-54717009D01*
X119535787Y-54687116D01*
X119552787Y-54658753D01*
X119572485Y-54632193D01*
X119594692Y-54607692D01*
X119619193Y-54585485D01*
X119645753Y-54565787D01*
X119674116Y-54548787D01*
X119704009Y-54534649D01*
X119735143Y-54523509D01*
X119767219Y-54515475D01*
X119799929Y-54510623D01*
X119832956Y-54509000D01*
X120959044Y-54509000D01*
X120992071Y-54510623D01*
X120992071Y-54510623D01*
G37*
D13*
X120396000Y-55284000D03*
G04 #@! TD*
D12*
G04 #@! TO.C,R1*
G36*
X136803571Y-58193623D02*
X136836281Y-58198475D01*
X136868357Y-58206509D01*
X136899491Y-58217649D01*
X136929384Y-58231787D01*
X136957747Y-58248787D01*
X136984307Y-58268485D01*
X137008808Y-58290692D01*
X137031015Y-58315193D01*
X137050713Y-58341753D01*
X137067713Y-58370116D01*
X137081851Y-58400009D01*
X137092991Y-58431143D01*
X137101025Y-58463219D01*
X137105877Y-58495929D01*
X137107500Y-58528956D01*
X137107500Y-59405044D01*
X137105877Y-59438071D01*
X137101025Y-59470781D01*
X137092991Y-59502857D01*
X137081851Y-59533991D01*
X137067713Y-59563884D01*
X137050713Y-59592247D01*
X137031015Y-59618807D01*
X137008808Y-59643308D01*
X136984307Y-59665515D01*
X136957747Y-59685213D01*
X136929384Y-59702213D01*
X136899491Y-59716351D01*
X136868357Y-59727491D01*
X136836281Y-59735525D01*
X136803571Y-59740377D01*
X136770544Y-59742000D01*
X135644456Y-59742000D01*
X135611429Y-59740377D01*
X135578719Y-59735525D01*
X135546643Y-59727491D01*
X135515509Y-59716351D01*
X135485616Y-59702213D01*
X135457253Y-59685213D01*
X135430693Y-59665515D01*
X135406192Y-59643308D01*
X135383985Y-59618807D01*
X135364287Y-59592247D01*
X135347287Y-59563884D01*
X135333149Y-59533991D01*
X135322009Y-59502857D01*
X135313975Y-59470781D01*
X135309123Y-59438071D01*
X135307500Y-59405044D01*
X135307500Y-58528956D01*
X135309123Y-58495929D01*
X135313975Y-58463219D01*
X135322009Y-58431143D01*
X135333149Y-58400009D01*
X135347287Y-58370116D01*
X135364287Y-58341753D01*
X135383985Y-58315193D01*
X135406192Y-58290692D01*
X135430693Y-58268485D01*
X135457253Y-58248787D01*
X135485616Y-58231787D01*
X135515509Y-58217649D01*
X135546643Y-58206509D01*
X135578719Y-58198475D01*
X135611429Y-58193623D01*
X135644456Y-58192000D01*
X136770544Y-58192000D01*
X136803571Y-58193623D01*
X136803571Y-58193623D01*
G37*
D13*
X136207500Y-58967000D03*
D12*
G36*
X136803571Y-59893623D02*
X136836281Y-59898475D01*
X136868357Y-59906509D01*
X136899491Y-59917649D01*
X136929384Y-59931787D01*
X136957747Y-59948787D01*
X136984307Y-59968485D01*
X137008808Y-59990692D01*
X137031015Y-60015193D01*
X137050713Y-60041753D01*
X137067713Y-60070116D01*
X137081851Y-60100009D01*
X137092991Y-60131143D01*
X137101025Y-60163219D01*
X137105877Y-60195929D01*
X137107500Y-60228956D01*
X137107500Y-61105044D01*
X137105877Y-61138071D01*
X137101025Y-61170781D01*
X137092991Y-61202857D01*
X137081851Y-61233991D01*
X137067713Y-61263884D01*
X137050713Y-61292247D01*
X137031015Y-61318807D01*
X137008808Y-61343308D01*
X136984307Y-61365515D01*
X136957747Y-61385213D01*
X136929384Y-61402213D01*
X136899491Y-61416351D01*
X136868357Y-61427491D01*
X136836281Y-61435525D01*
X136803571Y-61440377D01*
X136770544Y-61442000D01*
X135644456Y-61442000D01*
X135611429Y-61440377D01*
X135578719Y-61435525D01*
X135546643Y-61427491D01*
X135515509Y-61416351D01*
X135485616Y-61402213D01*
X135457253Y-61385213D01*
X135430693Y-61365515D01*
X135406192Y-61343308D01*
X135383985Y-61318807D01*
X135364287Y-61292247D01*
X135347287Y-61263884D01*
X135333149Y-61233991D01*
X135322009Y-61202857D01*
X135313975Y-61170781D01*
X135309123Y-61138071D01*
X135307500Y-61105044D01*
X135307500Y-60228956D01*
X135309123Y-60195929D01*
X135313975Y-60163219D01*
X135322009Y-60131143D01*
X135333149Y-60100009D01*
X135347287Y-60070116D01*
X135364287Y-60041753D01*
X135383985Y-60015193D01*
X135406192Y-59990692D01*
X135430693Y-59968485D01*
X135457253Y-59948787D01*
X135485616Y-59931787D01*
X135515509Y-59917649D01*
X135546643Y-59906509D01*
X135578719Y-59898475D01*
X135611429Y-59893623D01*
X135644456Y-59892000D01*
X136770544Y-59892000D01*
X136803571Y-59893623D01*
X136803571Y-59893623D01*
G37*
D13*
X136207500Y-60667000D03*
G04 #@! TD*
M02*
