G04 #@! TF.GenerationSoftware,KiCad,Pcbnew,(5.0.0-rc3-dev)*
G04 #@! TF.CreationDate,2018-07-03T21:05:53+03:00*
G04 #@! TF.ProjectId,board,626F6172642E6B696361645F70636200,v0.1*
G04 #@! TF.SameCoordinates,Original*
G04 #@! TF.FileFunction,Copper,L1,Top,Signal*
G04 #@! TF.FilePolarity,Positive*
%FSLAX46Y46*%
G04 Gerber Fmt 4.6, Leading zero omitted, Abs format (unit mm)*
G04 Created by KiCad (PCBNEW (5.0.0-rc3-dev)) date Tue Jul  3 21:05:53 2018*
%MOMM*%
%LPD*%
G01*
G04 APERTURE LIST*
G04 #@! TA.AperFunction,ComponentPad*
%ADD10C,0.700000*%
G04 #@! TD*
G04 #@! TA.AperFunction,ComponentPad*
%ADD11C,4.400000*%
G04 #@! TD*
G04 #@! TA.AperFunction,Conductor*
%ADD12C,0.100000*%
G04 #@! TD*
G04 #@! TA.AperFunction,SMDPad,CuDef*
%ADD13C,1.150000*%
G04 #@! TD*
G04 #@! TA.AperFunction,ComponentPad*
%ADD14R,1.700000X1.700000*%
G04 #@! TD*
G04 #@! TA.AperFunction,ComponentPad*
%ADD15O,1.700000X1.700000*%
G04 #@! TD*
G04 #@! TA.AperFunction,ComponentPad*
%ADD16C,1.400000*%
G04 #@! TD*
G04 #@! TA.AperFunction,ComponentPad*
%ADD17R,1.400000X1.400000*%
G04 #@! TD*
G04 #@! TA.AperFunction,ViaPad*
%ADD18C,0.685800*%
G04 #@! TD*
G04 #@! TA.AperFunction,Conductor*
%ADD19C,0.254000*%
G04 #@! TD*
G04 APERTURE END LIST*
D10*
G04 #@! TO.P,J6,1*
G04 #@! TO.N,Net-(J6-Pad1)*
X140612726Y-48363274D03*
X139446000Y-47880000D03*
X138279274Y-48363274D03*
X137796000Y-49530000D03*
X138279274Y-50696726D03*
X139446000Y-51180000D03*
X140612726Y-50696726D03*
X141096000Y-49530000D03*
D11*
X139446000Y-49530000D03*
G04 #@! TD*
G04 #@! TO.P,J5,1*
G04 #@! TO.N,Net-(J5-Pad1)*
X139446000Y-72390000D03*
D10*
X141096000Y-72390000D03*
X140612726Y-73556726D03*
X139446000Y-74040000D03*
X138279274Y-73556726D03*
X137796000Y-72390000D03*
X138279274Y-71223274D03*
X139446000Y-70740000D03*
X140612726Y-71223274D03*
G04 #@! TD*
G04 #@! TO.P,J4,1*
G04 #@! TO.N,Net-(J4-Pad1)*
X120546726Y-48363274D03*
X119380000Y-47880000D03*
X118213274Y-48363274D03*
X117730000Y-49530000D03*
X118213274Y-50696726D03*
X119380000Y-51180000D03*
X120546726Y-50696726D03*
X121030000Y-49530000D03*
D11*
X119380000Y-49530000D03*
G04 #@! TD*
G04 #@! TO.P,J3,1*
G04 #@! TO.N,Net-(J3-Pad1)*
X119380000Y-72390000D03*
D10*
X121030000Y-72390000D03*
X120546726Y-73556726D03*
X119380000Y-74040000D03*
X118213274Y-73556726D03*
X117730000Y-72390000D03*
X118213274Y-71223274D03*
X119380000Y-70740000D03*
X120546726Y-71223274D03*
G04 #@! TD*
D12*
G04 #@! TO.N,/MISO*
G04 #@! TO.C,R5*
G36*
X138232505Y-62547204D02*
X138256773Y-62550804D01*
X138280572Y-62556765D01*
X138303671Y-62565030D01*
X138325850Y-62575520D01*
X138346893Y-62588132D01*
X138366599Y-62602747D01*
X138384777Y-62619223D01*
X138401253Y-62637401D01*
X138415868Y-62657107D01*
X138428480Y-62678150D01*
X138438970Y-62700329D01*
X138447235Y-62723428D01*
X138453196Y-62747227D01*
X138456796Y-62771495D01*
X138458000Y-62795999D01*
X138458000Y-63696001D01*
X138456796Y-63720505D01*
X138453196Y-63744773D01*
X138447235Y-63768572D01*
X138438970Y-63791671D01*
X138428480Y-63813850D01*
X138415868Y-63834893D01*
X138401253Y-63854599D01*
X138384777Y-63872777D01*
X138366599Y-63889253D01*
X138346893Y-63903868D01*
X138325850Y-63916480D01*
X138303671Y-63926970D01*
X138280572Y-63935235D01*
X138256773Y-63941196D01*
X138232505Y-63944796D01*
X138208001Y-63946000D01*
X137557999Y-63946000D01*
X137533495Y-63944796D01*
X137509227Y-63941196D01*
X137485428Y-63935235D01*
X137462329Y-63926970D01*
X137440150Y-63916480D01*
X137419107Y-63903868D01*
X137399401Y-63889253D01*
X137381223Y-63872777D01*
X137364747Y-63854599D01*
X137350132Y-63834893D01*
X137337520Y-63813850D01*
X137327030Y-63791671D01*
X137318765Y-63768572D01*
X137312804Y-63744773D01*
X137309204Y-63720505D01*
X137308000Y-63696001D01*
X137308000Y-62795999D01*
X137309204Y-62771495D01*
X137312804Y-62747227D01*
X137318765Y-62723428D01*
X137327030Y-62700329D01*
X137337520Y-62678150D01*
X137350132Y-62657107D01*
X137364747Y-62637401D01*
X137381223Y-62619223D01*
X137399401Y-62602747D01*
X137419107Y-62588132D01*
X137440150Y-62575520D01*
X137462329Y-62565030D01*
X137485428Y-62556765D01*
X137509227Y-62550804D01*
X137533495Y-62547204D01*
X137557999Y-62546000D01*
X138208001Y-62546000D01*
X138232505Y-62547204D01*
X138232505Y-62547204D01*
G37*
D13*
G04 #@! TD*
G04 #@! TO.P,R5,1*
G04 #@! TO.N,/MISO*
X137883000Y-63246000D03*
D12*
G04 #@! TO.N,+3V3*
G04 #@! TO.C,R5*
G36*
X136532505Y-62547204D02*
X136556773Y-62550804D01*
X136580572Y-62556765D01*
X136603671Y-62565030D01*
X136625850Y-62575520D01*
X136646893Y-62588132D01*
X136666599Y-62602747D01*
X136684777Y-62619223D01*
X136701253Y-62637401D01*
X136715868Y-62657107D01*
X136728480Y-62678150D01*
X136738970Y-62700329D01*
X136747235Y-62723428D01*
X136753196Y-62747227D01*
X136756796Y-62771495D01*
X136758000Y-62795999D01*
X136758000Y-63696001D01*
X136756796Y-63720505D01*
X136753196Y-63744773D01*
X136747235Y-63768572D01*
X136738970Y-63791671D01*
X136728480Y-63813850D01*
X136715868Y-63834893D01*
X136701253Y-63854599D01*
X136684777Y-63872777D01*
X136666599Y-63889253D01*
X136646893Y-63903868D01*
X136625850Y-63916480D01*
X136603671Y-63926970D01*
X136580572Y-63935235D01*
X136556773Y-63941196D01*
X136532505Y-63944796D01*
X136508001Y-63946000D01*
X135857999Y-63946000D01*
X135833495Y-63944796D01*
X135809227Y-63941196D01*
X135785428Y-63935235D01*
X135762329Y-63926970D01*
X135740150Y-63916480D01*
X135719107Y-63903868D01*
X135699401Y-63889253D01*
X135681223Y-63872777D01*
X135664747Y-63854599D01*
X135650132Y-63834893D01*
X135637520Y-63813850D01*
X135627030Y-63791671D01*
X135618765Y-63768572D01*
X135612804Y-63744773D01*
X135609204Y-63720505D01*
X135608000Y-63696001D01*
X135608000Y-62795999D01*
X135609204Y-62771495D01*
X135612804Y-62747227D01*
X135618765Y-62723428D01*
X135627030Y-62700329D01*
X135637520Y-62678150D01*
X135650132Y-62657107D01*
X135664747Y-62637401D01*
X135681223Y-62619223D01*
X135699401Y-62602747D01*
X135719107Y-62588132D01*
X135740150Y-62575520D01*
X135762329Y-62565030D01*
X135785428Y-62556765D01*
X135809227Y-62550804D01*
X135833495Y-62547204D01*
X135857999Y-62546000D01*
X136508001Y-62546000D01*
X136532505Y-62547204D01*
X136532505Y-62547204D01*
G37*
D13*
G04 #@! TD*
G04 #@! TO.P,R5,2*
G04 #@! TO.N,+3V3*
X136183000Y-63246000D03*
D14*
G04 #@! TO.P,J2,1*
G04 #@! TO.N,/SS*
X140944600Y-53365400D03*
D15*
G04 #@! TO.P,J2,2*
G04 #@! TO.N,/MISO*
X140944600Y-55905400D03*
G04 #@! TO.P,J2,3*
G04 #@! TO.N,/MOSI*
X140944600Y-58445400D03*
G04 #@! TO.P,J2,4*
G04 #@! TO.N,/SCLK*
X140944600Y-60985400D03*
G04 #@! TO.P,J2,5*
G04 #@! TO.N,/MOTION*
X140944600Y-63525400D03*
G04 #@! TO.P,J2,6*
G04 #@! TO.N,+3V3*
X140944600Y-66065400D03*
G04 #@! TO.P,J2,7*
G04 #@! TO.N,GND*
X140944600Y-68605400D03*
G04 #@! TD*
D16*
G04 #@! TO.P,J1,9*
G04 #@! TO.N,/MOTION*
X133686800Y-66003200D03*
D17*
G04 #@! TO.P,J1,1*
G04 #@! TO.N,Net-(J1-Pad1)*
X122986800Y-53543200D03*
D16*
G04 #@! TO.P,J1,10*
G04 #@! TO.N,/SCLK*
X133686800Y-64223200D03*
G04 #@! TO.P,J1,2*
G04 #@! TO.N,Net-(J1-Pad2)*
X122986800Y-55323200D03*
G04 #@! TO.P,J1,11*
G04 #@! TO.N,/MOSI*
X133686800Y-62443200D03*
G04 #@! TO.P,J1,3*
G04 #@! TO.N,Net-(C1-Pad1)*
X122986800Y-57103200D03*
G04 #@! TO.P,J1,12*
G04 #@! TO.N,Net-(J1-Pad12)*
X133686800Y-60663200D03*
G04 #@! TO.P,J1,4*
G04 #@! TO.N,1.9V*
X122986800Y-58883200D03*
G04 #@! TO.P,J1,13*
G04 #@! TO.N,/SS*
X133686800Y-58883200D03*
G04 #@! TO.P,J1,5*
G04 #@! TO.N,+3V3*
X122986800Y-60663200D03*
G04 #@! TO.P,J1,14*
G04 #@! TO.N,Net-(J1-Pad14)*
X133686800Y-57103200D03*
G04 #@! TO.P,J1,6*
G04 #@! TO.N,Net-(J1-Pad6)*
X122986800Y-62443200D03*
G04 #@! TO.P,J1,15*
G04 #@! TO.N,/LED_P*
X133686800Y-55323200D03*
G04 #@! TO.P,J1,7*
G04 #@! TO.N,/RESET*
X122986800Y-64223200D03*
G04 #@! TO.P,J1,16*
G04 #@! TO.N,Net-(J1-Pad16)*
X133686800Y-53543200D03*
G04 #@! TO.P,J1,8*
G04 #@! TO.N,GND*
X122986800Y-66003200D03*
G04 #@! TD*
D12*
G04 #@! TO.N,GND*
G04 #@! TO.C,C2*
G36*
X120870505Y-60220204D02*
X120894773Y-60223804D01*
X120918572Y-60229765D01*
X120941671Y-60238030D01*
X120963850Y-60248520D01*
X120984893Y-60261132D01*
X121004599Y-60275747D01*
X121022777Y-60292223D01*
X121039253Y-60310401D01*
X121053868Y-60330107D01*
X121066480Y-60351150D01*
X121076970Y-60373329D01*
X121085235Y-60396428D01*
X121091196Y-60420227D01*
X121094796Y-60444495D01*
X121096000Y-60468999D01*
X121096000Y-61119001D01*
X121094796Y-61143505D01*
X121091196Y-61167773D01*
X121085235Y-61191572D01*
X121076970Y-61214671D01*
X121066480Y-61236850D01*
X121053868Y-61257893D01*
X121039253Y-61277599D01*
X121022777Y-61295777D01*
X121004599Y-61312253D01*
X120984893Y-61326868D01*
X120963850Y-61339480D01*
X120941671Y-61349970D01*
X120918572Y-61358235D01*
X120894773Y-61364196D01*
X120870505Y-61367796D01*
X120846001Y-61369000D01*
X119945999Y-61369000D01*
X119921495Y-61367796D01*
X119897227Y-61364196D01*
X119873428Y-61358235D01*
X119850329Y-61349970D01*
X119828150Y-61339480D01*
X119807107Y-61326868D01*
X119787401Y-61312253D01*
X119769223Y-61295777D01*
X119752747Y-61277599D01*
X119738132Y-61257893D01*
X119725520Y-61236850D01*
X119715030Y-61214671D01*
X119706765Y-61191572D01*
X119700804Y-61167773D01*
X119697204Y-61143505D01*
X119696000Y-61119001D01*
X119696000Y-60468999D01*
X119697204Y-60444495D01*
X119700804Y-60420227D01*
X119706765Y-60396428D01*
X119715030Y-60373329D01*
X119725520Y-60351150D01*
X119738132Y-60330107D01*
X119752747Y-60310401D01*
X119769223Y-60292223D01*
X119787401Y-60275747D01*
X119807107Y-60261132D01*
X119828150Y-60248520D01*
X119850329Y-60238030D01*
X119873428Y-60229765D01*
X119897227Y-60223804D01*
X119921495Y-60220204D01*
X119945999Y-60219000D01*
X120846001Y-60219000D01*
X120870505Y-60220204D01*
X120870505Y-60220204D01*
G37*
D13*
G04 #@! TD*
G04 #@! TO.P,C2,2*
G04 #@! TO.N,GND*
X120396000Y-60794000D03*
D12*
G04 #@! TO.N,Net-(C1-Pad1)*
G04 #@! TO.C,C2*
G36*
X120870505Y-58520204D02*
X120894773Y-58523804D01*
X120918572Y-58529765D01*
X120941671Y-58538030D01*
X120963850Y-58548520D01*
X120984893Y-58561132D01*
X121004599Y-58575747D01*
X121022777Y-58592223D01*
X121039253Y-58610401D01*
X121053868Y-58630107D01*
X121066480Y-58651150D01*
X121076970Y-58673329D01*
X121085235Y-58696428D01*
X121091196Y-58720227D01*
X121094796Y-58744495D01*
X121096000Y-58768999D01*
X121096000Y-59419001D01*
X121094796Y-59443505D01*
X121091196Y-59467773D01*
X121085235Y-59491572D01*
X121076970Y-59514671D01*
X121066480Y-59536850D01*
X121053868Y-59557893D01*
X121039253Y-59577599D01*
X121022777Y-59595777D01*
X121004599Y-59612253D01*
X120984893Y-59626868D01*
X120963850Y-59639480D01*
X120941671Y-59649970D01*
X120918572Y-59658235D01*
X120894773Y-59664196D01*
X120870505Y-59667796D01*
X120846001Y-59669000D01*
X119945999Y-59669000D01*
X119921495Y-59667796D01*
X119897227Y-59664196D01*
X119873428Y-59658235D01*
X119850329Y-59649970D01*
X119828150Y-59639480D01*
X119807107Y-59626868D01*
X119787401Y-59612253D01*
X119769223Y-59595777D01*
X119752747Y-59577599D01*
X119738132Y-59557893D01*
X119725520Y-59536850D01*
X119715030Y-59514671D01*
X119706765Y-59491572D01*
X119700804Y-59467773D01*
X119697204Y-59443505D01*
X119696000Y-59419001D01*
X119696000Y-58768999D01*
X119697204Y-58744495D01*
X119700804Y-58720227D01*
X119706765Y-58696428D01*
X119715030Y-58673329D01*
X119725520Y-58651150D01*
X119738132Y-58630107D01*
X119752747Y-58610401D01*
X119769223Y-58592223D01*
X119787401Y-58575747D01*
X119807107Y-58561132D01*
X119828150Y-58548520D01*
X119850329Y-58538030D01*
X119873428Y-58529765D01*
X119897227Y-58523804D01*
X119921495Y-58520204D01*
X119945999Y-58519000D01*
X120846001Y-58519000D01*
X120870505Y-58520204D01*
X120870505Y-58520204D01*
G37*
D13*
G04 #@! TD*
G04 #@! TO.P,C2,1*
G04 #@! TO.N,Net-(C1-Pad1)*
X120396000Y-59094000D03*
D12*
G04 #@! TO.N,Net-(C1-Pad1)*
G04 #@! TO.C,C1*
G36*
X120870505Y-56410204D02*
X120894773Y-56413804D01*
X120918572Y-56419765D01*
X120941671Y-56428030D01*
X120963850Y-56438520D01*
X120984893Y-56451132D01*
X121004599Y-56465747D01*
X121022777Y-56482223D01*
X121039253Y-56500401D01*
X121053868Y-56520107D01*
X121066480Y-56541150D01*
X121076970Y-56563329D01*
X121085235Y-56586428D01*
X121091196Y-56610227D01*
X121094796Y-56634495D01*
X121096000Y-56658999D01*
X121096000Y-57309001D01*
X121094796Y-57333505D01*
X121091196Y-57357773D01*
X121085235Y-57381572D01*
X121076970Y-57404671D01*
X121066480Y-57426850D01*
X121053868Y-57447893D01*
X121039253Y-57467599D01*
X121022777Y-57485777D01*
X121004599Y-57502253D01*
X120984893Y-57516868D01*
X120963850Y-57529480D01*
X120941671Y-57539970D01*
X120918572Y-57548235D01*
X120894773Y-57554196D01*
X120870505Y-57557796D01*
X120846001Y-57559000D01*
X119945999Y-57559000D01*
X119921495Y-57557796D01*
X119897227Y-57554196D01*
X119873428Y-57548235D01*
X119850329Y-57539970D01*
X119828150Y-57529480D01*
X119807107Y-57516868D01*
X119787401Y-57502253D01*
X119769223Y-57485777D01*
X119752747Y-57467599D01*
X119738132Y-57447893D01*
X119725520Y-57426850D01*
X119715030Y-57404671D01*
X119706765Y-57381572D01*
X119700804Y-57357773D01*
X119697204Y-57333505D01*
X119696000Y-57309001D01*
X119696000Y-56658999D01*
X119697204Y-56634495D01*
X119700804Y-56610227D01*
X119706765Y-56586428D01*
X119715030Y-56563329D01*
X119725520Y-56541150D01*
X119738132Y-56520107D01*
X119752747Y-56500401D01*
X119769223Y-56482223D01*
X119787401Y-56465747D01*
X119807107Y-56451132D01*
X119828150Y-56438520D01*
X119850329Y-56428030D01*
X119873428Y-56419765D01*
X119897227Y-56413804D01*
X119921495Y-56410204D01*
X119945999Y-56409000D01*
X120846001Y-56409000D01*
X120870505Y-56410204D01*
X120870505Y-56410204D01*
G37*
D13*
G04 #@! TD*
G04 #@! TO.P,C1,1*
G04 #@! TO.N,Net-(C1-Pad1)*
X120396000Y-56984000D03*
D12*
G04 #@! TO.N,GND*
G04 #@! TO.C,C1*
G36*
X120870505Y-54710204D02*
X120894773Y-54713804D01*
X120918572Y-54719765D01*
X120941671Y-54728030D01*
X120963850Y-54738520D01*
X120984893Y-54751132D01*
X121004599Y-54765747D01*
X121022777Y-54782223D01*
X121039253Y-54800401D01*
X121053868Y-54820107D01*
X121066480Y-54841150D01*
X121076970Y-54863329D01*
X121085235Y-54886428D01*
X121091196Y-54910227D01*
X121094796Y-54934495D01*
X121096000Y-54958999D01*
X121096000Y-55609001D01*
X121094796Y-55633505D01*
X121091196Y-55657773D01*
X121085235Y-55681572D01*
X121076970Y-55704671D01*
X121066480Y-55726850D01*
X121053868Y-55747893D01*
X121039253Y-55767599D01*
X121022777Y-55785777D01*
X121004599Y-55802253D01*
X120984893Y-55816868D01*
X120963850Y-55829480D01*
X120941671Y-55839970D01*
X120918572Y-55848235D01*
X120894773Y-55854196D01*
X120870505Y-55857796D01*
X120846001Y-55859000D01*
X119945999Y-55859000D01*
X119921495Y-55857796D01*
X119897227Y-55854196D01*
X119873428Y-55848235D01*
X119850329Y-55839970D01*
X119828150Y-55829480D01*
X119807107Y-55816868D01*
X119787401Y-55802253D01*
X119769223Y-55785777D01*
X119752747Y-55767599D01*
X119738132Y-55747893D01*
X119725520Y-55726850D01*
X119715030Y-55704671D01*
X119706765Y-55681572D01*
X119700804Y-55657773D01*
X119697204Y-55633505D01*
X119696000Y-55609001D01*
X119696000Y-54958999D01*
X119697204Y-54934495D01*
X119700804Y-54910227D01*
X119706765Y-54886428D01*
X119715030Y-54863329D01*
X119725520Y-54841150D01*
X119738132Y-54820107D01*
X119752747Y-54800401D01*
X119769223Y-54782223D01*
X119787401Y-54765747D01*
X119807107Y-54751132D01*
X119828150Y-54738520D01*
X119850329Y-54728030D01*
X119873428Y-54719765D01*
X119897227Y-54713804D01*
X119921495Y-54710204D01*
X119945999Y-54709000D01*
X120846001Y-54709000D01*
X120870505Y-54710204D01*
X120870505Y-54710204D01*
G37*
D13*
G04 #@! TD*
G04 #@! TO.P,C1,2*
G04 #@! TO.N,GND*
X120396000Y-55284000D03*
D12*
G04 #@! TO.N,/SS*
G04 #@! TO.C,R1*
G36*
X136682005Y-58393204D02*
X136706273Y-58396804D01*
X136730072Y-58402765D01*
X136753171Y-58411030D01*
X136775350Y-58421520D01*
X136796393Y-58434132D01*
X136816099Y-58448747D01*
X136834277Y-58465223D01*
X136850753Y-58483401D01*
X136865368Y-58503107D01*
X136877980Y-58524150D01*
X136888470Y-58546329D01*
X136896735Y-58569428D01*
X136902696Y-58593227D01*
X136906296Y-58617495D01*
X136907500Y-58641999D01*
X136907500Y-59292001D01*
X136906296Y-59316505D01*
X136902696Y-59340773D01*
X136896735Y-59364572D01*
X136888470Y-59387671D01*
X136877980Y-59409850D01*
X136865368Y-59430893D01*
X136850753Y-59450599D01*
X136834277Y-59468777D01*
X136816099Y-59485253D01*
X136796393Y-59499868D01*
X136775350Y-59512480D01*
X136753171Y-59522970D01*
X136730072Y-59531235D01*
X136706273Y-59537196D01*
X136682005Y-59540796D01*
X136657501Y-59542000D01*
X135757499Y-59542000D01*
X135732995Y-59540796D01*
X135708727Y-59537196D01*
X135684928Y-59531235D01*
X135661829Y-59522970D01*
X135639650Y-59512480D01*
X135618607Y-59499868D01*
X135598901Y-59485253D01*
X135580723Y-59468777D01*
X135564247Y-59450599D01*
X135549632Y-59430893D01*
X135537020Y-59409850D01*
X135526530Y-59387671D01*
X135518265Y-59364572D01*
X135512304Y-59340773D01*
X135508704Y-59316505D01*
X135507500Y-59292001D01*
X135507500Y-58641999D01*
X135508704Y-58617495D01*
X135512304Y-58593227D01*
X135518265Y-58569428D01*
X135526530Y-58546329D01*
X135537020Y-58524150D01*
X135549632Y-58503107D01*
X135564247Y-58483401D01*
X135580723Y-58465223D01*
X135598901Y-58448747D01*
X135618607Y-58434132D01*
X135639650Y-58421520D01*
X135661829Y-58411030D01*
X135684928Y-58402765D01*
X135708727Y-58396804D01*
X135732995Y-58393204D01*
X135757499Y-58392000D01*
X136657501Y-58392000D01*
X136682005Y-58393204D01*
X136682005Y-58393204D01*
G37*
D13*
G04 #@! TD*
G04 #@! TO.P,R1,1*
G04 #@! TO.N,/SS*
X136207500Y-58967000D03*
D12*
G04 #@! TO.N,+3V3*
G04 #@! TO.C,R1*
G36*
X136682005Y-60093204D02*
X136706273Y-60096804D01*
X136730072Y-60102765D01*
X136753171Y-60111030D01*
X136775350Y-60121520D01*
X136796393Y-60134132D01*
X136816099Y-60148747D01*
X136834277Y-60165223D01*
X136850753Y-60183401D01*
X136865368Y-60203107D01*
X136877980Y-60224150D01*
X136888470Y-60246329D01*
X136896735Y-60269428D01*
X136902696Y-60293227D01*
X136906296Y-60317495D01*
X136907500Y-60341999D01*
X136907500Y-60992001D01*
X136906296Y-61016505D01*
X136902696Y-61040773D01*
X136896735Y-61064572D01*
X136888470Y-61087671D01*
X136877980Y-61109850D01*
X136865368Y-61130893D01*
X136850753Y-61150599D01*
X136834277Y-61168777D01*
X136816099Y-61185253D01*
X136796393Y-61199868D01*
X136775350Y-61212480D01*
X136753171Y-61222970D01*
X136730072Y-61231235D01*
X136706273Y-61237196D01*
X136682005Y-61240796D01*
X136657501Y-61242000D01*
X135757499Y-61242000D01*
X135732995Y-61240796D01*
X135708727Y-61237196D01*
X135684928Y-61231235D01*
X135661829Y-61222970D01*
X135639650Y-61212480D01*
X135618607Y-61199868D01*
X135598901Y-61185253D01*
X135580723Y-61168777D01*
X135564247Y-61150599D01*
X135549632Y-61130893D01*
X135537020Y-61109850D01*
X135526530Y-61087671D01*
X135518265Y-61064572D01*
X135512304Y-61040773D01*
X135508704Y-61016505D01*
X135507500Y-60992001D01*
X135507500Y-60341999D01*
X135508704Y-60317495D01*
X135512304Y-60293227D01*
X135518265Y-60269428D01*
X135526530Y-60246329D01*
X135537020Y-60224150D01*
X135549632Y-60203107D01*
X135564247Y-60183401D01*
X135580723Y-60165223D01*
X135598901Y-60148747D01*
X135618607Y-60134132D01*
X135639650Y-60121520D01*
X135661829Y-60111030D01*
X135684928Y-60102765D01*
X135708727Y-60096804D01*
X135732995Y-60093204D01*
X135757499Y-60092000D01*
X136657501Y-60092000D01*
X136682005Y-60093204D01*
X136682005Y-60093204D01*
G37*
D13*
G04 #@! TD*
G04 #@! TO.P,R1,2*
G04 #@! TO.N,+3V3*
X136207500Y-60667000D03*
D18*
G04 #@! TO.N,+3V3*
X126111000Y-72771000D03*
X118618000Y-62738000D03*
G04 #@! TO.N,GND*
X133731000Y-71374000D03*
X123825000Y-73152000D03*
G04 #@! TD*
D19*
G04 #@! TO.N,+3V3*
X136183000Y-60691500D02*
X136207500Y-60667000D01*
X136183000Y-63246000D02*
X136183000Y-60691500D01*
X140944600Y-66065400D02*
X137693400Y-66065400D01*
X136183000Y-64555000D02*
X136183000Y-63246000D01*
X137693400Y-66065400D02*
X136183000Y-64555000D01*
X118491000Y-62865000D02*
X118618000Y-62738000D01*
X118618000Y-65278000D02*
X118618000Y-62738000D01*
X126111000Y-72771000D02*
X118618000Y-65278000D01*
G04 #@! TO.N,/MISO*
X137883000Y-58967000D02*
X137883000Y-63246000D01*
X140944600Y-55905400D02*
X137883000Y-58967000D01*
G04 #@! TO.N,Net-(C1-Pad1)*
X120515200Y-57103200D02*
X120396000Y-56984000D01*
X122986800Y-57103200D02*
X120515200Y-57103200D01*
X120396000Y-59094000D02*
X120396000Y-56984000D01*
G04 #@! TO.N,/SS*
X133770600Y-58967000D02*
X133686800Y-58883200D01*
X136207500Y-58967000D02*
X133770600Y-58967000D01*
X136207500Y-58292000D02*
X136207500Y-58967000D01*
X136207500Y-57002500D02*
X136207500Y-58292000D01*
X139844600Y-53365400D02*
X136207500Y-57002500D01*
X140944600Y-53365400D02*
X139844600Y-53365400D01*
G04 #@! TD*
G04 #@! TO.N,GND*
G36*
X142775001Y-75211000D02*
X116305000Y-75211000D01*
X116305000Y-71876607D01*
X116799000Y-71876607D01*
X116799000Y-72903393D01*
X117191934Y-73852019D01*
X117917981Y-74578066D01*
X118866607Y-74971000D01*
X119893393Y-74971000D01*
X120842019Y-74578066D01*
X121568066Y-73852019D01*
X121961000Y-72903393D01*
X121961000Y-71876607D01*
X121568066Y-70927981D01*
X120842019Y-70201934D01*
X119893393Y-69809000D01*
X118866607Y-69809000D01*
X117917981Y-70201934D01*
X117191934Y-70927981D01*
X116799000Y-71876607D01*
X116305000Y-71876607D01*
X116305000Y-62594007D01*
X117894100Y-62594007D01*
X117894100Y-62881993D01*
X118004307Y-63148056D01*
X118110001Y-63253750D01*
X118110000Y-65227972D01*
X118100049Y-65278000D01*
X118110000Y-65328028D01*
X118110000Y-65328031D01*
X118139475Y-65476211D01*
X118251753Y-65644247D01*
X118294168Y-65672588D01*
X125387100Y-72765521D01*
X125387100Y-72914993D01*
X125497307Y-73181056D01*
X125700944Y-73384693D01*
X125967007Y-73494900D01*
X126254993Y-73494900D01*
X126521056Y-73384693D01*
X126724693Y-73181056D01*
X126834900Y-72914993D01*
X126834900Y-72627007D01*
X126724693Y-72360944D01*
X126521056Y-72157307D01*
X126254993Y-72047100D01*
X126105521Y-72047100D01*
X125935028Y-71876607D01*
X136865000Y-71876607D01*
X136865000Y-72903393D01*
X137257934Y-73852019D01*
X137983981Y-74578066D01*
X138932607Y-74971000D01*
X139959393Y-74971000D01*
X140908019Y-74578066D01*
X141634066Y-73852019D01*
X142027000Y-72903393D01*
X142027000Y-71876607D01*
X141634066Y-70927981D01*
X140908019Y-70201934D01*
X139959393Y-69809000D01*
X138932607Y-69809000D01*
X137983981Y-70201934D01*
X137257934Y-70927981D01*
X136865000Y-71876607D01*
X125935028Y-71876607D01*
X123020711Y-68962290D01*
X139503124Y-68962290D01*
X139672955Y-69372324D01*
X140063242Y-69800583D01*
X140587708Y-70046886D01*
X140817600Y-69926219D01*
X140817600Y-68732400D01*
X141071600Y-68732400D01*
X141071600Y-69926219D01*
X141301492Y-70046886D01*
X141825958Y-69800583D01*
X142216245Y-69372324D01*
X142386076Y-68962290D01*
X142264755Y-68732400D01*
X141071600Y-68732400D01*
X140817600Y-68732400D01*
X139624445Y-68732400D01*
X139503124Y-68962290D01*
X123020711Y-68962290D01*
X119868743Y-65810322D01*
X121639381Y-65810322D01*
X121668136Y-66340640D01*
X121815758Y-66697031D01*
X122051525Y-66758869D01*
X122807195Y-66003200D01*
X122051525Y-65247531D01*
X121815758Y-65309369D01*
X121639381Y-65810322D01*
X119868743Y-65810322D01*
X119126000Y-65067580D01*
X119126000Y-63253749D01*
X119231693Y-63148056D01*
X119341900Y-62881993D01*
X119341900Y-62594007D01*
X119231693Y-62327944D01*
X119028056Y-62124307D01*
X118761993Y-62014100D01*
X118474007Y-62014100D01*
X118207944Y-62124307D01*
X118004307Y-62327944D01*
X117894100Y-62594007D01*
X116305000Y-62594007D01*
X116305000Y-61079750D01*
X119061000Y-61079750D01*
X119061000Y-61495309D01*
X119157673Y-61728698D01*
X119336301Y-61907327D01*
X119569690Y-62004000D01*
X120110250Y-62004000D01*
X120269000Y-61845250D01*
X120269000Y-60921000D01*
X120523000Y-60921000D01*
X120523000Y-61845250D01*
X120681750Y-62004000D01*
X121222310Y-62004000D01*
X121455699Y-61907327D01*
X121634327Y-61728698D01*
X121731000Y-61495309D01*
X121731000Y-61079750D01*
X121572250Y-60921000D01*
X120523000Y-60921000D01*
X120269000Y-60921000D01*
X119219750Y-60921000D01*
X119061000Y-61079750D01*
X116305000Y-61079750D01*
X116305000Y-55569750D01*
X119061000Y-55569750D01*
X119061000Y-55985309D01*
X119157673Y-56218698D01*
X119336301Y-56397327D01*
X119360912Y-56407521D01*
X119356136Y-56414670D01*
X119307536Y-56658999D01*
X119307536Y-57309001D01*
X119356136Y-57553330D01*
X119494537Y-57760463D01*
X119701670Y-57898864D01*
X119888001Y-57935927D01*
X119888000Y-58142073D01*
X119701670Y-58179136D01*
X119494537Y-58317537D01*
X119356136Y-58524670D01*
X119307536Y-58768999D01*
X119307536Y-59419001D01*
X119356136Y-59663330D01*
X119360912Y-59670479D01*
X119336301Y-59680673D01*
X119157673Y-59859302D01*
X119061000Y-60092691D01*
X119061000Y-60508250D01*
X119219750Y-60667000D01*
X120269000Y-60667000D01*
X120269000Y-60647000D01*
X120523000Y-60647000D01*
X120523000Y-60667000D01*
X121572250Y-60667000D01*
X121731000Y-60508250D01*
X121731000Y-60092691D01*
X121634327Y-59859302D01*
X121455699Y-59680673D01*
X121431088Y-59670479D01*
X121435864Y-59663330D01*
X121484464Y-59419001D01*
X121484464Y-58768999D01*
X121435864Y-58524670D01*
X121297463Y-58317537D01*
X121090330Y-58179136D01*
X120904000Y-58142073D01*
X120904000Y-57935927D01*
X121090330Y-57898864D01*
X121297463Y-57760463D01*
X121397197Y-57611200D01*
X122027154Y-57611200D01*
X122070372Y-57715537D01*
X122348035Y-57993200D01*
X122070372Y-58270863D01*
X121905800Y-58668176D01*
X121905800Y-59098224D01*
X122070372Y-59495537D01*
X122348035Y-59773200D01*
X122070372Y-60050863D01*
X121905800Y-60448176D01*
X121905800Y-60878224D01*
X122070372Y-61275537D01*
X122348035Y-61553200D01*
X122070372Y-61830863D01*
X121905800Y-62228176D01*
X121905800Y-62658224D01*
X122070372Y-63055537D01*
X122348035Y-63333200D01*
X122070372Y-63610863D01*
X121905800Y-64008176D01*
X121905800Y-64438224D01*
X122070372Y-64835537D01*
X122246014Y-65011179D01*
X122231131Y-65067925D01*
X122986800Y-65823595D01*
X123000942Y-65809452D01*
X123180548Y-65989058D01*
X123166405Y-66003200D01*
X123180548Y-66017342D01*
X123000942Y-66196948D01*
X122986800Y-66182805D01*
X122231131Y-66938475D01*
X122292969Y-67174242D01*
X122793922Y-67350619D01*
X123324240Y-67321864D01*
X123680631Y-67174242D01*
X123742469Y-66938477D01*
X123857718Y-67053726D01*
X123884801Y-67026643D01*
X123884801Y-68008229D01*
X123881823Y-68023200D01*
X123893620Y-68082507D01*
X123927215Y-68132785D01*
X123977493Y-68166380D01*
X124021834Y-68175200D01*
X124036800Y-68178177D01*
X124051766Y-68175200D01*
X132621834Y-68175200D01*
X132636800Y-68178177D01*
X132651766Y-68175200D01*
X132696107Y-68166380D01*
X132746385Y-68132785D01*
X132779980Y-68082507D01*
X132791777Y-68023200D01*
X132788800Y-68008234D01*
X132788800Y-66633965D01*
X133074463Y-66919628D01*
X133471776Y-67084200D01*
X133901824Y-67084200D01*
X134299137Y-66919628D01*
X134603228Y-66615537D01*
X134767800Y-66218224D01*
X134767800Y-65788176D01*
X134603228Y-65390863D01*
X134325565Y-65113200D01*
X134603228Y-64835537D01*
X134767800Y-64438224D01*
X134767800Y-64008176D01*
X134603228Y-63610863D01*
X134325565Y-63333200D01*
X134603228Y-63055537D01*
X134767800Y-62658224D01*
X134767800Y-62228176D01*
X134603228Y-61830863D01*
X134325565Y-61553200D01*
X134603228Y-61275537D01*
X134767800Y-60878224D01*
X134767800Y-60448176D01*
X134603228Y-60050863D01*
X134325565Y-59773200D01*
X134603228Y-59495537D01*
X134611735Y-59475000D01*
X135155437Y-59475000D01*
X135167636Y-59536330D01*
X135306037Y-59743463D01*
X135416094Y-59817000D01*
X135306037Y-59890537D01*
X135167636Y-60097670D01*
X135119036Y-60341999D01*
X135119036Y-60992001D01*
X135167636Y-61236330D01*
X135306037Y-61443463D01*
X135513170Y-61581864D01*
X135675001Y-61614054D01*
X135675000Y-62193937D01*
X135613670Y-62206136D01*
X135406537Y-62344537D01*
X135268136Y-62551670D01*
X135219536Y-62795999D01*
X135219536Y-63696001D01*
X135268136Y-63940330D01*
X135406537Y-64147463D01*
X135613670Y-64285864D01*
X135675000Y-64298063D01*
X135675000Y-64504972D01*
X135665049Y-64555000D01*
X135675000Y-64605028D01*
X135675000Y-64605031D01*
X135704475Y-64753211D01*
X135816753Y-64921247D01*
X135859168Y-64949588D01*
X137298814Y-66389235D01*
X137327153Y-66431647D01*
X137369565Y-66459986D01*
X137369567Y-66459988D01*
X137495188Y-66543925D01*
X137643368Y-66573400D01*
X137643371Y-66573400D01*
X137693399Y-66583351D01*
X137743427Y-66573400D01*
X139803525Y-66573400D01*
X140057099Y-66952901D01*
X140461563Y-67223155D01*
X140063242Y-67410217D01*
X139672955Y-67838476D01*
X139503124Y-68248510D01*
X139624445Y-68478400D01*
X140817600Y-68478400D01*
X140817600Y-68458400D01*
X141071600Y-68458400D01*
X141071600Y-68478400D01*
X142264755Y-68478400D01*
X142386076Y-68248510D01*
X142216245Y-67838476D01*
X141825958Y-67410217D01*
X141427637Y-67223155D01*
X141832101Y-66952901D01*
X142104176Y-66545712D01*
X142199716Y-66065400D01*
X142104176Y-65585088D01*
X141832101Y-65177899D01*
X141424912Y-64905824D01*
X141065839Y-64834400D01*
X140823361Y-64834400D01*
X140464288Y-64905824D01*
X140057099Y-65177899D01*
X139803525Y-65557400D01*
X137903821Y-65557400D01*
X136691000Y-64344580D01*
X136691000Y-64298063D01*
X136752330Y-64285864D01*
X136959463Y-64147463D01*
X137033000Y-64037406D01*
X137106537Y-64147463D01*
X137313670Y-64285864D01*
X137557999Y-64334464D01*
X138208001Y-64334464D01*
X138452330Y-64285864D01*
X138659463Y-64147463D01*
X138797864Y-63940330D01*
X138846464Y-63696001D01*
X138846464Y-63525400D01*
X139689484Y-63525400D01*
X139785024Y-64005712D01*
X140057099Y-64412901D01*
X140464288Y-64684976D01*
X140823361Y-64756400D01*
X141065839Y-64756400D01*
X141424912Y-64684976D01*
X141832101Y-64412901D01*
X142104176Y-64005712D01*
X142199716Y-63525400D01*
X142104176Y-63045088D01*
X141832101Y-62637899D01*
X141424912Y-62365824D01*
X141065839Y-62294400D01*
X140823361Y-62294400D01*
X140464288Y-62365824D01*
X140057099Y-62637899D01*
X139785024Y-63045088D01*
X139689484Y-63525400D01*
X138846464Y-63525400D01*
X138846464Y-62795999D01*
X138797864Y-62551670D01*
X138659463Y-62344537D01*
X138452330Y-62206136D01*
X138391000Y-62193937D01*
X138391000Y-60985400D01*
X139689484Y-60985400D01*
X139785024Y-61465712D01*
X140057099Y-61872901D01*
X140464288Y-62144976D01*
X140823361Y-62216400D01*
X141065839Y-62216400D01*
X141424912Y-62144976D01*
X141832101Y-61872901D01*
X142104176Y-61465712D01*
X142199716Y-60985400D01*
X142104176Y-60505088D01*
X141832101Y-60097899D01*
X141424912Y-59825824D01*
X141065839Y-59754400D01*
X140823361Y-59754400D01*
X140464288Y-59825824D01*
X140057099Y-60097899D01*
X139785024Y-60505088D01*
X139689484Y-60985400D01*
X138391000Y-60985400D01*
X138391000Y-59177420D01*
X139123020Y-58445400D01*
X139689484Y-58445400D01*
X139785024Y-58925712D01*
X140057099Y-59332901D01*
X140464288Y-59604976D01*
X140823361Y-59676400D01*
X141065839Y-59676400D01*
X141424912Y-59604976D01*
X141832101Y-59332901D01*
X142104176Y-58925712D01*
X142199716Y-58445400D01*
X142104176Y-57965088D01*
X141832101Y-57557899D01*
X141424912Y-57285824D01*
X141065839Y-57214400D01*
X140823361Y-57214400D01*
X140464288Y-57285824D01*
X140057099Y-57557899D01*
X139785024Y-57965088D01*
X139689484Y-58445400D01*
X139123020Y-58445400D01*
X140496948Y-57071473D01*
X140823361Y-57136400D01*
X141065839Y-57136400D01*
X141424912Y-57064976D01*
X141832101Y-56792901D01*
X142104176Y-56385712D01*
X142199716Y-55905400D01*
X142104176Y-55425088D01*
X141832101Y-55017899D01*
X141424912Y-54745824D01*
X141065839Y-54674400D01*
X140823361Y-54674400D01*
X140464288Y-54745824D01*
X140057099Y-55017899D01*
X139785024Y-55425088D01*
X139689484Y-55905400D01*
X139778527Y-56353052D01*
X137559168Y-58572412D01*
X137516753Y-58600753D01*
X137404475Y-58768789D01*
X137375000Y-58916969D01*
X137375000Y-58916972D01*
X137365049Y-58967000D01*
X137375000Y-59017028D01*
X137375001Y-62193937D01*
X137313670Y-62206136D01*
X137106537Y-62344537D01*
X137033000Y-62454594D01*
X136959463Y-62344537D01*
X136752330Y-62206136D01*
X136691000Y-62193937D01*
X136691000Y-61623801D01*
X136901830Y-61581864D01*
X137108963Y-61443463D01*
X137247364Y-61236330D01*
X137295964Y-60992001D01*
X137295964Y-60341999D01*
X137247364Y-60097670D01*
X137108963Y-59890537D01*
X136998906Y-59817000D01*
X137108963Y-59743463D01*
X137247364Y-59536330D01*
X137295964Y-59292001D01*
X137295964Y-58641999D01*
X137247364Y-58397670D01*
X137108963Y-58190537D01*
X136901830Y-58052136D01*
X136715500Y-58015073D01*
X136715500Y-57212920D01*
X139707278Y-54221143D01*
X139735706Y-54364059D01*
X139819914Y-54490086D01*
X139945941Y-54574294D01*
X140094600Y-54603864D01*
X141794600Y-54603864D01*
X141943259Y-54574294D01*
X142069286Y-54490086D01*
X142153494Y-54364059D01*
X142183064Y-54215400D01*
X142183064Y-52515400D01*
X142153494Y-52366741D01*
X142069286Y-52240714D01*
X141943259Y-52156506D01*
X141794600Y-52126936D01*
X140094600Y-52126936D01*
X139945941Y-52156506D01*
X139819914Y-52240714D01*
X139735706Y-52366741D01*
X139706136Y-52515400D01*
X139706136Y-52874990D01*
X139646388Y-52886875D01*
X139520767Y-52970812D01*
X139520765Y-52970814D01*
X139478353Y-52999153D01*
X139450014Y-53041565D01*
X135883668Y-56607912D01*
X135841253Y-56636253D01*
X135728975Y-56804289D01*
X135699500Y-56952469D01*
X135699500Y-56952472D01*
X135689549Y-57002500D01*
X135699500Y-57052528D01*
X135699501Y-58015073D01*
X135513170Y-58052136D01*
X135306037Y-58190537D01*
X135167636Y-58397670D01*
X135155437Y-58459000D01*
X134681157Y-58459000D01*
X134603228Y-58270863D01*
X134325565Y-57993200D01*
X134603228Y-57715537D01*
X134767800Y-57318224D01*
X134767800Y-56888176D01*
X134603228Y-56490863D01*
X134325565Y-56213200D01*
X134603228Y-55935537D01*
X134767800Y-55538224D01*
X134767800Y-55108176D01*
X134603228Y-54710863D01*
X134325565Y-54433200D01*
X134603228Y-54155537D01*
X134767800Y-53758224D01*
X134767800Y-53328176D01*
X134603228Y-52930863D01*
X134299137Y-52626772D01*
X133901824Y-52462200D01*
X133471776Y-52462200D01*
X133074463Y-52626772D01*
X132788800Y-52912435D01*
X132788800Y-50778166D01*
X132791777Y-50763200D01*
X132779980Y-50703893D01*
X132746385Y-50653615D01*
X132696107Y-50620020D01*
X132651766Y-50611200D01*
X132636800Y-50608223D01*
X132621834Y-50611200D01*
X124051766Y-50611200D01*
X124036800Y-50608223D01*
X124021834Y-50611200D01*
X123977493Y-50620020D01*
X123927215Y-50653615D01*
X123893620Y-50703893D01*
X123881823Y-50763200D01*
X123884800Y-50778166D01*
X123884800Y-52517274D01*
X123835459Y-52484306D01*
X123686800Y-52454736D01*
X122286800Y-52454736D01*
X122138141Y-52484306D01*
X122012114Y-52568514D01*
X121927906Y-52694541D01*
X121898336Y-52843200D01*
X121898336Y-54243200D01*
X121927906Y-54391859D01*
X122012114Y-54517886D01*
X122138141Y-54602094D01*
X122172339Y-54608896D01*
X122070372Y-54710863D01*
X121905800Y-55108176D01*
X121905800Y-55538224D01*
X122070372Y-55935537D01*
X122348035Y-56213200D01*
X122070372Y-56490863D01*
X122027154Y-56595200D01*
X121471774Y-56595200D01*
X121435864Y-56414670D01*
X121431088Y-56407521D01*
X121455699Y-56397327D01*
X121634327Y-56218698D01*
X121731000Y-55985309D01*
X121731000Y-55569750D01*
X121572250Y-55411000D01*
X120523000Y-55411000D01*
X120523000Y-55431000D01*
X120269000Y-55431000D01*
X120269000Y-55411000D01*
X119219750Y-55411000D01*
X119061000Y-55569750D01*
X116305000Y-55569750D01*
X116305000Y-54582691D01*
X119061000Y-54582691D01*
X119061000Y-54998250D01*
X119219750Y-55157000D01*
X120269000Y-55157000D01*
X120269000Y-54232750D01*
X120523000Y-54232750D01*
X120523000Y-55157000D01*
X121572250Y-55157000D01*
X121731000Y-54998250D01*
X121731000Y-54582691D01*
X121634327Y-54349302D01*
X121455699Y-54170673D01*
X121222310Y-54074000D01*
X120681750Y-54074000D01*
X120523000Y-54232750D01*
X120269000Y-54232750D01*
X120110250Y-54074000D01*
X119569690Y-54074000D01*
X119336301Y-54170673D01*
X119157673Y-54349302D01*
X119061000Y-54582691D01*
X116305000Y-54582691D01*
X116305000Y-49016607D01*
X116799000Y-49016607D01*
X116799000Y-50043393D01*
X117191934Y-50992019D01*
X117917981Y-51718066D01*
X118866607Y-52111000D01*
X119893393Y-52111000D01*
X120842019Y-51718066D01*
X121568066Y-50992019D01*
X121961000Y-50043393D01*
X121961000Y-49016607D01*
X136865000Y-49016607D01*
X136865000Y-50043393D01*
X137257934Y-50992019D01*
X137983981Y-51718066D01*
X138932607Y-52111000D01*
X139959393Y-52111000D01*
X140908019Y-51718066D01*
X141634066Y-50992019D01*
X142027000Y-50043393D01*
X142027000Y-49016607D01*
X141634066Y-48067981D01*
X140908019Y-47341934D01*
X139959393Y-46949000D01*
X138932607Y-46949000D01*
X137983981Y-47341934D01*
X137257934Y-48067981D01*
X136865000Y-49016607D01*
X121961000Y-49016607D01*
X121568066Y-48067981D01*
X120842019Y-47341934D01*
X119893393Y-46949000D01*
X118866607Y-46949000D01*
X117917981Y-47341934D01*
X117191934Y-48067981D01*
X116799000Y-49016607D01*
X116305000Y-49016607D01*
X116305000Y-46709000D01*
X142775000Y-46709000D01*
X142775001Y-75211000D01*
X142775001Y-75211000D01*
G37*
X142775001Y-75211000D02*
X116305000Y-75211000D01*
X116305000Y-71876607D01*
X116799000Y-71876607D01*
X116799000Y-72903393D01*
X117191934Y-73852019D01*
X117917981Y-74578066D01*
X118866607Y-74971000D01*
X119893393Y-74971000D01*
X120842019Y-74578066D01*
X121568066Y-73852019D01*
X121961000Y-72903393D01*
X121961000Y-71876607D01*
X121568066Y-70927981D01*
X120842019Y-70201934D01*
X119893393Y-69809000D01*
X118866607Y-69809000D01*
X117917981Y-70201934D01*
X117191934Y-70927981D01*
X116799000Y-71876607D01*
X116305000Y-71876607D01*
X116305000Y-62594007D01*
X117894100Y-62594007D01*
X117894100Y-62881993D01*
X118004307Y-63148056D01*
X118110001Y-63253750D01*
X118110000Y-65227972D01*
X118100049Y-65278000D01*
X118110000Y-65328028D01*
X118110000Y-65328031D01*
X118139475Y-65476211D01*
X118251753Y-65644247D01*
X118294168Y-65672588D01*
X125387100Y-72765521D01*
X125387100Y-72914993D01*
X125497307Y-73181056D01*
X125700944Y-73384693D01*
X125967007Y-73494900D01*
X126254993Y-73494900D01*
X126521056Y-73384693D01*
X126724693Y-73181056D01*
X126834900Y-72914993D01*
X126834900Y-72627007D01*
X126724693Y-72360944D01*
X126521056Y-72157307D01*
X126254993Y-72047100D01*
X126105521Y-72047100D01*
X125935028Y-71876607D01*
X136865000Y-71876607D01*
X136865000Y-72903393D01*
X137257934Y-73852019D01*
X137983981Y-74578066D01*
X138932607Y-74971000D01*
X139959393Y-74971000D01*
X140908019Y-74578066D01*
X141634066Y-73852019D01*
X142027000Y-72903393D01*
X142027000Y-71876607D01*
X141634066Y-70927981D01*
X140908019Y-70201934D01*
X139959393Y-69809000D01*
X138932607Y-69809000D01*
X137983981Y-70201934D01*
X137257934Y-70927981D01*
X136865000Y-71876607D01*
X125935028Y-71876607D01*
X123020711Y-68962290D01*
X139503124Y-68962290D01*
X139672955Y-69372324D01*
X140063242Y-69800583D01*
X140587708Y-70046886D01*
X140817600Y-69926219D01*
X140817600Y-68732400D01*
X141071600Y-68732400D01*
X141071600Y-69926219D01*
X141301492Y-70046886D01*
X141825958Y-69800583D01*
X142216245Y-69372324D01*
X142386076Y-68962290D01*
X142264755Y-68732400D01*
X141071600Y-68732400D01*
X140817600Y-68732400D01*
X139624445Y-68732400D01*
X139503124Y-68962290D01*
X123020711Y-68962290D01*
X119868743Y-65810322D01*
X121639381Y-65810322D01*
X121668136Y-66340640D01*
X121815758Y-66697031D01*
X122051525Y-66758869D01*
X122807195Y-66003200D01*
X122051525Y-65247531D01*
X121815758Y-65309369D01*
X121639381Y-65810322D01*
X119868743Y-65810322D01*
X119126000Y-65067580D01*
X119126000Y-63253749D01*
X119231693Y-63148056D01*
X119341900Y-62881993D01*
X119341900Y-62594007D01*
X119231693Y-62327944D01*
X119028056Y-62124307D01*
X118761993Y-62014100D01*
X118474007Y-62014100D01*
X118207944Y-62124307D01*
X118004307Y-62327944D01*
X117894100Y-62594007D01*
X116305000Y-62594007D01*
X116305000Y-61079750D01*
X119061000Y-61079750D01*
X119061000Y-61495309D01*
X119157673Y-61728698D01*
X119336301Y-61907327D01*
X119569690Y-62004000D01*
X120110250Y-62004000D01*
X120269000Y-61845250D01*
X120269000Y-60921000D01*
X120523000Y-60921000D01*
X120523000Y-61845250D01*
X120681750Y-62004000D01*
X121222310Y-62004000D01*
X121455699Y-61907327D01*
X121634327Y-61728698D01*
X121731000Y-61495309D01*
X121731000Y-61079750D01*
X121572250Y-60921000D01*
X120523000Y-60921000D01*
X120269000Y-60921000D01*
X119219750Y-60921000D01*
X119061000Y-61079750D01*
X116305000Y-61079750D01*
X116305000Y-55569750D01*
X119061000Y-55569750D01*
X119061000Y-55985309D01*
X119157673Y-56218698D01*
X119336301Y-56397327D01*
X119360912Y-56407521D01*
X119356136Y-56414670D01*
X119307536Y-56658999D01*
X119307536Y-57309001D01*
X119356136Y-57553330D01*
X119494537Y-57760463D01*
X119701670Y-57898864D01*
X119888001Y-57935927D01*
X119888000Y-58142073D01*
X119701670Y-58179136D01*
X119494537Y-58317537D01*
X119356136Y-58524670D01*
X119307536Y-58768999D01*
X119307536Y-59419001D01*
X119356136Y-59663330D01*
X119360912Y-59670479D01*
X119336301Y-59680673D01*
X119157673Y-59859302D01*
X119061000Y-60092691D01*
X119061000Y-60508250D01*
X119219750Y-60667000D01*
X120269000Y-60667000D01*
X120269000Y-60647000D01*
X120523000Y-60647000D01*
X120523000Y-60667000D01*
X121572250Y-60667000D01*
X121731000Y-60508250D01*
X121731000Y-60092691D01*
X121634327Y-59859302D01*
X121455699Y-59680673D01*
X121431088Y-59670479D01*
X121435864Y-59663330D01*
X121484464Y-59419001D01*
X121484464Y-58768999D01*
X121435864Y-58524670D01*
X121297463Y-58317537D01*
X121090330Y-58179136D01*
X120904000Y-58142073D01*
X120904000Y-57935927D01*
X121090330Y-57898864D01*
X121297463Y-57760463D01*
X121397197Y-57611200D01*
X122027154Y-57611200D01*
X122070372Y-57715537D01*
X122348035Y-57993200D01*
X122070372Y-58270863D01*
X121905800Y-58668176D01*
X121905800Y-59098224D01*
X122070372Y-59495537D01*
X122348035Y-59773200D01*
X122070372Y-60050863D01*
X121905800Y-60448176D01*
X121905800Y-60878224D01*
X122070372Y-61275537D01*
X122348035Y-61553200D01*
X122070372Y-61830863D01*
X121905800Y-62228176D01*
X121905800Y-62658224D01*
X122070372Y-63055537D01*
X122348035Y-63333200D01*
X122070372Y-63610863D01*
X121905800Y-64008176D01*
X121905800Y-64438224D01*
X122070372Y-64835537D01*
X122246014Y-65011179D01*
X122231131Y-65067925D01*
X122986800Y-65823595D01*
X123000942Y-65809452D01*
X123180548Y-65989058D01*
X123166405Y-66003200D01*
X123180548Y-66017342D01*
X123000942Y-66196948D01*
X122986800Y-66182805D01*
X122231131Y-66938475D01*
X122292969Y-67174242D01*
X122793922Y-67350619D01*
X123324240Y-67321864D01*
X123680631Y-67174242D01*
X123742469Y-66938477D01*
X123857718Y-67053726D01*
X123884801Y-67026643D01*
X123884801Y-68008229D01*
X123881823Y-68023200D01*
X123893620Y-68082507D01*
X123927215Y-68132785D01*
X123977493Y-68166380D01*
X124021834Y-68175200D01*
X124036800Y-68178177D01*
X124051766Y-68175200D01*
X132621834Y-68175200D01*
X132636800Y-68178177D01*
X132651766Y-68175200D01*
X132696107Y-68166380D01*
X132746385Y-68132785D01*
X132779980Y-68082507D01*
X132791777Y-68023200D01*
X132788800Y-68008234D01*
X132788800Y-66633965D01*
X133074463Y-66919628D01*
X133471776Y-67084200D01*
X133901824Y-67084200D01*
X134299137Y-66919628D01*
X134603228Y-66615537D01*
X134767800Y-66218224D01*
X134767800Y-65788176D01*
X134603228Y-65390863D01*
X134325565Y-65113200D01*
X134603228Y-64835537D01*
X134767800Y-64438224D01*
X134767800Y-64008176D01*
X134603228Y-63610863D01*
X134325565Y-63333200D01*
X134603228Y-63055537D01*
X134767800Y-62658224D01*
X134767800Y-62228176D01*
X134603228Y-61830863D01*
X134325565Y-61553200D01*
X134603228Y-61275537D01*
X134767800Y-60878224D01*
X134767800Y-60448176D01*
X134603228Y-60050863D01*
X134325565Y-59773200D01*
X134603228Y-59495537D01*
X134611735Y-59475000D01*
X135155437Y-59475000D01*
X135167636Y-59536330D01*
X135306037Y-59743463D01*
X135416094Y-59817000D01*
X135306037Y-59890537D01*
X135167636Y-60097670D01*
X135119036Y-60341999D01*
X135119036Y-60992001D01*
X135167636Y-61236330D01*
X135306037Y-61443463D01*
X135513170Y-61581864D01*
X135675001Y-61614054D01*
X135675000Y-62193937D01*
X135613670Y-62206136D01*
X135406537Y-62344537D01*
X135268136Y-62551670D01*
X135219536Y-62795999D01*
X135219536Y-63696001D01*
X135268136Y-63940330D01*
X135406537Y-64147463D01*
X135613670Y-64285864D01*
X135675000Y-64298063D01*
X135675000Y-64504972D01*
X135665049Y-64555000D01*
X135675000Y-64605028D01*
X135675000Y-64605031D01*
X135704475Y-64753211D01*
X135816753Y-64921247D01*
X135859168Y-64949588D01*
X137298814Y-66389235D01*
X137327153Y-66431647D01*
X137369565Y-66459986D01*
X137369567Y-66459988D01*
X137495188Y-66543925D01*
X137643368Y-66573400D01*
X137643371Y-66573400D01*
X137693399Y-66583351D01*
X137743427Y-66573400D01*
X139803525Y-66573400D01*
X140057099Y-66952901D01*
X140461563Y-67223155D01*
X140063242Y-67410217D01*
X139672955Y-67838476D01*
X139503124Y-68248510D01*
X139624445Y-68478400D01*
X140817600Y-68478400D01*
X140817600Y-68458400D01*
X141071600Y-68458400D01*
X141071600Y-68478400D01*
X142264755Y-68478400D01*
X142386076Y-68248510D01*
X142216245Y-67838476D01*
X141825958Y-67410217D01*
X141427637Y-67223155D01*
X141832101Y-66952901D01*
X142104176Y-66545712D01*
X142199716Y-66065400D01*
X142104176Y-65585088D01*
X141832101Y-65177899D01*
X141424912Y-64905824D01*
X141065839Y-64834400D01*
X140823361Y-64834400D01*
X140464288Y-64905824D01*
X140057099Y-65177899D01*
X139803525Y-65557400D01*
X137903821Y-65557400D01*
X136691000Y-64344580D01*
X136691000Y-64298063D01*
X136752330Y-64285864D01*
X136959463Y-64147463D01*
X137033000Y-64037406D01*
X137106537Y-64147463D01*
X137313670Y-64285864D01*
X137557999Y-64334464D01*
X138208001Y-64334464D01*
X138452330Y-64285864D01*
X138659463Y-64147463D01*
X138797864Y-63940330D01*
X138846464Y-63696001D01*
X138846464Y-63525400D01*
X139689484Y-63525400D01*
X139785024Y-64005712D01*
X140057099Y-64412901D01*
X140464288Y-64684976D01*
X140823361Y-64756400D01*
X141065839Y-64756400D01*
X141424912Y-64684976D01*
X141832101Y-64412901D01*
X142104176Y-64005712D01*
X142199716Y-63525400D01*
X142104176Y-63045088D01*
X141832101Y-62637899D01*
X141424912Y-62365824D01*
X141065839Y-62294400D01*
X140823361Y-62294400D01*
X140464288Y-62365824D01*
X140057099Y-62637899D01*
X139785024Y-63045088D01*
X139689484Y-63525400D01*
X138846464Y-63525400D01*
X138846464Y-62795999D01*
X138797864Y-62551670D01*
X138659463Y-62344537D01*
X138452330Y-62206136D01*
X138391000Y-62193937D01*
X138391000Y-60985400D01*
X139689484Y-60985400D01*
X139785024Y-61465712D01*
X140057099Y-61872901D01*
X140464288Y-62144976D01*
X140823361Y-62216400D01*
X141065839Y-62216400D01*
X141424912Y-62144976D01*
X141832101Y-61872901D01*
X142104176Y-61465712D01*
X142199716Y-60985400D01*
X142104176Y-60505088D01*
X141832101Y-60097899D01*
X141424912Y-59825824D01*
X141065839Y-59754400D01*
X140823361Y-59754400D01*
X140464288Y-59825824D01*
X140057099Y-60097899D01*
X139785024Y-60505088D01*
X139689484Y-60985400D01*
X138391000Y-60985400D01*
X138391000Y-59177420D01*
X139123020Y-58445400D01*
X139689484Y-58445400D01*
X139785024Y-58925712D01*
X140057099Y-59332901D01*
X140464288Y-59604976D01*
X140823361Y-59676400D01*
X141065839Y-59676400D01*
X141424912Y-59604976D01*
X141832101Y-59332901D01*
X142104176Y-58925712D01*
X142199716Y-58445400D01*
X142104176Y-57965088D01*
X141832101Y-57557899D01*
X141424912Y-57285824D01*
X141065839Y-57214400D01*
X140823361Y-57214400D01*
X140464288Y-57285824D01*
X140057099Y-57557899D01*
X139785024Y-57965088D01*
X139689484Y-58445400D01*
X139123020Y-58445400D01*
X140496948Y-57071473D01*
X140823361Y-57136400D01*
X141065839Y-57136400D01*
X141424912Y-57064976D01*
X141832101Y-56792901D01*
X142104176Y-56385712D01*
X142199716Y-55905400D01*
X142104176Y-55425088D01*
X141832101Y-55017899D01*
X141424912Y-54745824D01*
X141065839Y-54674400D01*
X140823361Y-54674400D01*
X140464288Y-54745824D01*
X140057099Y-55017899D01*
X139785024Y-55425088D01*
X139689484Y-55905400D01*
X139778527Y-56353052D01*
X137559168Y-58572412D01*
X137516753Y-58600753D01*
X137404475Y-58768789D01*
X137375000Y-58916969D01*
X137375000Y-58916972D01*
X137365049Y-58967000D01*
X137375000Y-59017028D01*
X137375001Y-62193937D01*
X137313670Y-62206136D01*
X137106537Y-62344537D01*
X137033000Y-62454594D01*
X136959463Y-62344537D01*
X136752330Y-62206136D01*
X136691000Y-62193937D01*
X136691000Y-61623801D01*
X136901830Y-61581864D01*
X137108963Y-61443463D01*
X137247364Y-61236330D01*
X137295964Y-60992001D01*
X137295964Y-60341999D01*
X137247364Y-60097670D01*
X137108963Y-59890537D01*
X136998906Y-59817000D01*
X137108963Y-59743463D01*
X137247364Y-59536330D01*
X137295964Y-59292001D01*
X137295964Y-58641999D01*
X137247364Y-58397670D01*
X137108963Y-58190537D01*
X136901830Y-58052136D01*
X136715500Y-58015073D01*
X136715500Y-57212920D01*
X139707278Y-54221143D01*
X139735706Y-54364059D01*
X139819914Y-54490086D01*
X139945941Y-54574294D01*
X140094600Y-54603864D01*
X141794600Y-54603864D01*
X141943259Y-54574294D01*
X142069286Y-54490086D01*
X142153494Y-54364059D01*
X142183064Y-54215400D01*
X142183064Y-52515400D01*
X142153494Y-52366741D01*
X142069286Y-52240714D01*
X141943259Y-52156506D01*
X141794600Y-52126936D01*
X140094600Y-52126936D01*
X139945941Y-52156506D01*
X139819914Y-52240714D01*
X139735706Y-52366741D01*
X139706136Y-52515400D01*
X139706136Y-52874990D01*
X139646388Y-52886875D01*
X139520767Y-52970812D01*
X139520765Y-52970814D01*
X139478353Y-52999153D01*
X139450014Y-53041565D01*
X135883668Y-56607912D01*
X135841253Y-56636253D01*
X135728975Y-56804289D01*
X135699500Y-56952469D01*
X135699500Y-56952472D01*
X135689549Y-57002500D01*
X135699500Y-57052528D01*
X135699501Y-58015073D01*
X135513170Y-58052136D01*
X135306037Y-58190537D01*
X135167636Y-58397670D01*
X135155437Y-58459000D01*
X134681157Y-58459000D01*
X134603228Y-58270863D01*
X134325565Y-57993200D01*
X134603228Y-57715537D01*
X134767800Y-57318224D01*
X134767800Y-56888176D01*
X134603228Y-56490863D01*
X134325565Y-56213200D01*
X134603228Y-55935537D01*
X134767800Y-55538224D01*
X134767800Y-55108176D01*
X134603228Y-54710863D01*
X134325565Y-54433200D01*
X134603228Y-54155537D01*
X134767800Y-53758224D01*
X134767800Y-53328176D01*
X134603228Y-52930863D01*
X134299137Y-52626772D01*
X133901824Y-52462200D01*
X133471776Y-52462200D01*
X133074463Y-52626772D01*
X132788800Y-52912435D01*
X132788800Y-50778166D01*
X132791777Y-50763200D01*
X132779980Y-50703893D01*
X132746385Y-50653615D01*
X132696107Y-50620020D01*
X132651766Y-50611200D01*
X132636800Y-50608223D01*
X132621834Y-50611200D01*
X124051766Y-50611200D01*
X124036800Y-50608223D01*
X124021834Y-50611200D01*
X123977493Y-50620020D01*
X123927215Y-50653615D01*
X123893620Y-50703893D01*
X123881823Y-50763200D01*
X123884800Y-50778166D01*
X123884800Y-52517274D01*
X123835459Y-52484306D01*
X123686800Y-52454736D01*
X122286800Y-52454736D01*
X122138141Y-52484306D01*
X122012114Y-52568514D01*
X121927906Y-52694541D01*
X121898336Y-52843200D01*
X121898336Y-54243200D01*
X121927906Y-54391859D01*
X122012114Y-54517886D01*
X122138141Y-54602094D01*
X122172339Y-54608896D01*
X122070372Y-54710863D01*
X121905800Y-55108176D01*
X121905800Y-55538224D01*
X122070372Y-55935537D01*
X122348035Y-56213200D01*
X122070372Y-56490863D01*
X122027154Y-56595200D01*
X121471774Y-56595200D01*
X121435864Y-56414670D01*
X121431088Y-56407521D01*
X121455699Y-56397327D01*
X121634327Y-56218698D01*
X121731000Y-55985309D01*
X121731000Y-55569750D01*
X121572250Y-55411000D01*
X120523000Y-55411000D01*
X120523000Y-55431000D01*
X120269000Y-55431000D01*
X120269000Y-55411000D01*
X119219750Y-55411000D01*
X119061000Y-55569750D01*
X116305000Y-55569750D01*
X116305000Y-54582691D01*
X119061000Y-54582691D01*
X119061000Y-54998250D01*
X119219750Y-55157000D01*
X120269000Y-55157000D01*
X120269000Y-54232750D01*
X120523000Y-54232750D01*
X120523000Y-55157000D01*
X121572250Y-55157000D01*
X121731000Y-54998250D01*
X121731000Y-54582691D01*
X121634327Y-54349302D01*
X121455699Y-54170673D01*
X121222310Y-54074000D01*
X120681750Y-54074000D01*
X120523000Y-54232750D01*
X120269000Y-54232750D01*
X120110250Y-54074000D01*
X119569690Y-54074000D01*
X119336301Y-54170673D01*
X119157673Y-54349302D01*
X119061000Y-54582691D01*
X116305000Y-54582691D01*
X116305000Y-49016607D01*
X116799000Y-49016607D01*
X116799000Y-50043393D01*
X117191934Y-50992019D01*
X117917981Y-51718066D01*
X118866607Y-52111000D01*
X119893393Y-52111000D01*
X120842019Y-51718066D01*
X121568066Y-50992019D01*
X121961000Y-50043393D01*
X121961000Y-49016607D01*
X136865000Y-49016607D01*
X136865000Y-50043393D01*
X137257934Y-50992019D01*
X137983981Y-51718066D01*
X138932607Y-52111000D01*
X139959393Y-52111000D01*
X140908019Y-51718066D01*
X141634066Y-50992019D01*
X142027000Y-50043393D01*
X142027000Y-49016607D01*
X141634066Y-48067981D01*
X140908019Y-47341934D01*
X139959393Y-46949000D01*
X138932607Y-46949000D01*
X137983981Y-47341934D01*
X137257934Y-48067981D01*
X136865000Y-49016607D01*
X121961000Y-49016607D01*
X121568066Y-48067981D01*
X120842019Y-47341934D01*
X119893393Y-46949000D01*
X118866607Y-46949000D01*
X117917981Y-47341934D01*
X117191934Y-48067981D01*
X116799000Y-49016607D01*
X116305000Y-49016607D01*
X116305000Y-46709000D01*
X142775000Y-46709000D01*
X142775001Y-75211000D01*
G04 #@! TD*
M02*
