G04 #@! TF.GenerationSoftware,KiCad,Pcbnew,(5.99.0-8366-gd64f1b3b25)*
G04 #@! TF.CreationDate,2021-01-13T01:42:35+02:00*
G04 #@! TF.ProjectId,board,626f6172-642e-46b6-9963-61645f706362,1.0.0*
G04 #@! TF.SameCoordinates,Original*
G04 #@! TF.FileFunction,Copper,L2,Bot*
G04 #@! TF.FilePolarity,Positive*
%FSLAX46Y46*%
G04 Gerber Fmt 4.6, Leading zero omitted, Abs format (unit mm)*
G04 Created by KiCad (PCBNEW (5.99.0-8366-gd64f1b3b25)) date 2021-01-13 01:42:35*
%MOMM*%
%LPD*%
G01*
G04 APERTURE LIST*
G04 Aperture macros list*
%AMRoundRect*
0 Rectangle with rounded corners*
0 $1 Rounding radius*
0 $2 $3 $4 $5 $6 $7 $8 $9 X,Y pos of 4 corners*
0 Add a 4 corners polygon primitive as box body*
4,1,4,$2,$3,$4,$5,$6,$7,$8,$9,$2,$3,0*
0 Add four circle primitives for the rounded corners*
1,1,$1+$1,$2,$3*
1,1,$1+$1,$4,$5*
1,1,$1+$1,$6,$7*
1,1,$1+$1,$8,$9*
0 Add four rect primitives between the rounded corners*
20,1,$1+$1,$2,$3,$4,$5,0*
20,1,$1+$1,$4,$5,$6,$7,0*
20,1,$1+$1,$6,$7,$8,$9,0*
20,1,$1+$1,$8,$9,$2,$3,0*%
G04 Aperture macros list end*
G04 #@! TA.AperFunction,ComponentPad*
%ADD10C,0.700000*%
G04 #@! TD*
G04 #@! TA.AperFunction,ComponentPad*
%ADD11C,4.400000*%
G04 #@! TD*
G04 #@! TA.AperFunction,ComponentPad*
%ADD12R,1.000000X1.000000*%
G04 #@! TD*
G04 #@! TA.AperFunction,ComponentPad*
%ADD13O,1.000000X1.000000*%
G04 #@! TD*
G04 #@! TA.AperFunction,ComponentPad*
%ADD14R,1.400000X1.400000*%
G04 #@! TD*
G04 #@! TA.AperFunction,ComponentPad*
%ADD15C,1.400000*%
G04 #@! TD*
G04 #@! TA.AperFunction,SMDPad,CuDef*
%ADD16RoundRect,0.250000X-0.450000X0.325000X-0.450000X-0.325000X0.450000X-0.325000X0.450000X0.325000X0*%
G04 #@! TD*
G04 #@! TA.AperFunction,SMDPad,CuDef*
%ADD17RoundRect,0.250000X-0.325000X-0.450000X0.325000X-0.450000X0.325000X0.450000X-0.325000X0.450000X0*%
G04 #@! TD*
G04 #@! TA.AperFunction,SMDPad,CuDef*
%ADD18R,1.060000X0.650000*%
G04 #@! TD*
G04 #@! TA.AperFunction,SMDPad,CuDef*
%ADD19RoundRect,0.250000X-0.450000X0.262500X-0.450000X-0.262500X0.450000X-0.262500X0.450000X0.262500X0*%
G04 #@! TD*
G04 #@! TA.AperFunction,Conductor*
%ADD20C,0.254000*%
G04 #@! TD*
G04 APERTURE END LIST*
D10*
X118213274Y-71223274D03*
X119380000Y-74040000D03*
X120546726Y-71223274D03*
X118213274Y-73556726D03*
X117730000Y-72390000D03*
X121030000Y-72390000D03*
D11*
X119380000Y-72390000D03*
D10*
X119380000Y-70740000D03*
X120546726Y-73556726D03*
X136144000Y-74040000D03*
D11*
X136144000Y-72390000D03*
D10*
X136144000Y-70740000D03*
X137310726Y-71223274D03*
X134977274Y-73556726D03*
X134977274Y-71223274D03*
X134494000Y-72390000D03*
X137794000Y-72390000D03*
X137310726Y-73556726D03*
D12*
X136779000Y-57404000D03*
D13*
X136779000Y-58674000D03*
X136779000Y-59944000D03*
X136779000Y-61214000D03*
X136779000Y-62484000D03*
X136779000Y-63754000D03*
X136779000Y-65024000D03*
D10*
X121030000Y-50292000D03*
X119380000Y-51942000D03*
X118213274Y-49125274D03*
X117730000Y-50292000D03*
X120546726Y-51458726D03*
X118213274Y-51458726D03*
D11*
X119380000Y-50292000D03*
D10*
X120546726Y-49125274D03*
X119380000Y-48642000D03*
D14*
X122412000Y-55681000D03*
D15*
X122412000Y-57461000D03*
X122412000Y-59241000D03*
X122412000Y-61021000D03*
X122412000Y-62801000D03*
X122412000Y-64581000D03*
X122412000Y-66361000D03*
X122412000Y-68141000D03*
X133112000Y-69031000D03*
X133112000Y-67251000D03*
X133112000Y-65471000D03*
X133112000Y-63691000D03*
X133112000Y-61911000D03*
X133112000Y-60131000D03*
X133112000Y-58351000D03*
X133112000Y-56571000D03*
D10*
X136144000Y-51942000D03*
X134494000Y-50292000D03*
X137794000Y-50292000D03*
X137310726Y-51458726D03*
D11*
X136144000Y-50292000D03*
D10*
X136144000Y-48642000D03*
X137310726Y-49125274D03*
X134977274Y-51458726D03*
X134977274Y-49125274D03*
D16*
X129794000Y-71794000D03*
X129794000Y-73494000D03*
D17*
X135802000Y-54864000D03*
X137502000Y-54864000D03*
X130214000Y-50800000D03*
X131914000Y-50800000D03*
D18*
X127846000Y-71694000D03*
X127846000Y-72644000D03*
X127846000Y-73594000D03*
X125646000Y-73594000D03*
X125646000Y-71694000D03*
D19*
X123190000Y-71731500D03*
X123190000Y-73556500D03*
D20*
X134493000Y-62063104D02*
X133112000Y-63444104D01*
X134493000Y-58801000D02*
X134493000Y-62063104D01*
X135802000Y-57492000D02*
X134493000Y-58801000D01*
X135802000Y-54864000D02*
X135802000Y-57492000D01*
X133112000Y-63444104D02*
X133112000Y-63691000D01*
X135802000Y-54864000D02*
X135770989Y-54895011D01*
X134366000Y-57531000D02*
X133546000Y-58351000D01*
X133546000Y-58351000D02*
X133112000Y-58351000D01*
X131914000Y-50800000D02*
X134366000Y-53252000D01*
X134366000Y-53252000D02*
X134366000Y-57531000D01*
X135382000Y-63847103D02*
X135382000Y-66761000D01*
X136779000Y-62484000D02*
X136745103Y-62484000D01*
X136745103Y-62484000D02*
X135382000Y-63847103D01*
X136779000Y-62484000D02*
X136525000Y-62484000D01*
X135382000Y-66761000D02*
X133112000Y-69031000D01*
X134874000Y-63119000D02*
X134874000Y-65489000D01*
X136779000Y-61214000D02*
X134874000Y-63119000D01*
X136779000Y-61214000D02*
X136745103Y-61214000D01*
X133112000Y-67070897D02*
X133112000Y-67251000D01*
X134874000Y-65489000D02*
X133112000Y-67251000D01*
X136779000Y-61214000D02*
X136779000Y-61602989D01*
X130976000Y-73494000D02*
X129794000Y-73494000D01*
X129794000Y-73494000D02*
X128944000Y-72644000D01*
X136779000Y-67691000D02*
X130976000Y-73494000D01*
X128944000Y-72644000D02*
X127846000Y-72644000D01*
X136779000Y-65024000D02*
X136779000Y-67691000D01*
X136779000Y-59944000D02*
X136779000Y-60261500D01*
X133112000Y-65135000D02*
X133112000Y-65471000D01*
X135001020Y-61721980D02*
X135001019Y-62273533D01*
X134365980Y-64217020D02*
X133112000Y-65471000D01*
X136779000Y-59944000D02*
X135001020Y-61721980D01*
X134365980Y-62908572D02*
X134365980Y-64217020D01*
X135001019Y-62273533D02*
X134365980Y-62908572D01*
X136779000Y-58674000D02*
X137194820Y-58674000D01*
X137194820Y-58674000D02*
X137668000Y-58200820D01*
X137668000Y-58200820D02*
X137668000Y-55030000D01*
X137668000Y-55030000D02*
X137502000Y-54864000D01*
X129794000Y-71794000D02*
X127946000Y-71794000D01*
X127846000Y-71694000D02*
X127018000Y-70866000D01*
X136779000Y-63754000D02*
X135890000Y-64643000D01*
X127188000Y-73594000D02*
X127846000Y-73594000D01*
X120777000Y-63627000D02*
X120777000Y-69318500D01*
X124055500Y-70866000D02*
X123190000Y-71731500D01*
X121603000Y-62801000D02*
X120777000Y-63627000D01*
X120777000Y-69318500D02*
X123190000Y-71731500D01*
X127168084Y-71694000D02*
X126746000Y-72116084D01*
X127018000Y-70866000D02*
X124055500Y-70866000D01*
X126746000Y-72116084D02*
X126746000Y-73152000D01*
X131957552Y-71794000D02*
X129794000Y-71794000D01*
X126746000Y-73152000D02*
X127188000Y-73594000D01*
X135890000Y-67861552D02*
X131957552Y-71794000D01*
X122412000Y-62801000D02*
X121603000Y-62801000D01*
X127846000Y-71694000D02*
X127168084Y-71694000D01*
X135890000Y-64643000D02*
X135890000Y-67861552D01*
G04 #@! TA.AperFunction,Conductor*
G36*
X139134121Y-47264002D02*
G01*
X139180614Y-47317658D01*
X139192000Y-47370000D01*
X139192000Y-75312000D01*
X139171998Y-75380121D01*
X139118342Y-75426614D01*
X139066000Y-75438000D01*
X116458000Y-75438000D01*
X116389879Y-75417998D01*
X116343386Y-75364342D01*
X116332000Y-75312000D01*
X116332000Y-72497282D01*
X116922841Y-72497282D01*
X116956389Y-72808630D01*
X117029227Y-73113192D01*
X117140174Y-73406030D01*
X117287430Y-73682398D01*
X117468610Y-73937814D01*
X117680775Y-74168138D01*
X117683848Y-74170721D01*
X117683850Y-74170723D01*
X117801626Y-74269724D01*
X117920486Y-74369636D01*
X117923860Y-74371806D01*
X117923861Y-74371807D01*
X118180489Y-74536876D01*
X118183858Y-74539043D01*
X118263616Y-74577000D01*
X118462551Y-74671674D01*
X118466621Y-74673611D01*
X118764190Y-74771159D01*
X118768116Y-74771912D01*
X118768122Y-74771913D01*
X118910077Y-74799120D01*
X119071743Y-74830106D01*
X119075742Y-74830354D01*
X119075749Y-74830355D01*
X119380279Y-74849247D01*
X119384293Y-74849496D01*
X119696773Y-74829015D01*
X119700712Y-74828246D01*
X119700718Y-74828245D01*
X120000183Y-74769764D01*
X120000191Y-74769762D01*
X120004118Y-74768995D01*
X120301345Y-74670409D01*
X120583636Y-74534854D01*
X120846415Y-74364530D01*
X120894882Y-74323500D01*
X121082359Y-74164788D01*
X121085422Y-74162195D01*
X121287676Y-73941087D01*
X121294070Y-73934097D01*
X121294071Y-73934095D01*
X121296782Y-73931132D01*
X121372181Y-73824048D01*
X121982000Y-73824048D01*
X121982000Y-73858223D01*
X121982424Y-73865524D01*
X121996617Y-73987255D01*
X121999963Y-74001410D01*
X122055263Y-74153761D01*
X122061773Y-74166760D01*
X122150641Y-74302306D01*
X122159965Y-74313458D01*
X122277629Y-74424922D01*
X122289276Y-74433635D01*
X122429429Y-74515043D01*
X122442754Y-74520837D01*
X122598700Y-74568068D01*
X122611323Y-74570516D01*
X122681184Y-74576751D01*
X122686779Y-74577000D01*
X122917885Y-74577000D01*
X122933124Y-74572525D01*
X122934329Y-74571135D01*
X122936000Y-74563452D01*
X122936000Y-73828615D01*
X122934659Y-73824048D01*
X123444000Y-73824048D01*
X123444000Y-74558885D01*
X123448475Y-74574124D01*
X123449865Y-74575329D01*
X123457548Y-74577000D01*
X123679223Y-74577000D01*
X123686524Y-74576576D01*
X123808255Y-74562383D01*
X123822410Y-74559037D01*
X123974761Y-74503737D01*
X123987760Y-74497227D01*
X124123306Y-74408359D01*
X124134458Y-74399035D01*
X124245922Y-74281371D01*
X124254635Y-74269724D01*
X124336043Y-74129571D01*
X124341837Y-74116246D01*
X124389068Y-73960300D01*
X124391516Y-73947677D01*
X124397751Y-73877816D01*
X124398000Y-73872221D01*
X124398000Y-73828615D01*
X124393525Y-73813376D01*
X124392135Y-73812171D01*
X124384452Y-73810500D01*
X123462115Y-73810500D01*
X123446876Y-73814975D01*
X123445671Y-73816365D01*
X123444000Y-73824048D01*
X122934659Y-73824048D01*
X122931525Y-73813376D01*
X122930135Y-73812171D01*
X122922452Y-73810500D01*
X122000115Y-73810500D01*
X121984876Y-73814975D01*
X121983671Y-73816365D01*
X121982000Y-73824048D01*
X121372181Y-73824048D01*
X121477068Y-73675085D01*
X121623359Y-73398206D01*
X121733283Y-73104982D01*
X121738493Y-73082858D01*
X121804137Y-72804075D01*
X121805057Y-72800168D01*
X121831315Y-72548229D01*
X121837245Y-72491335D01*
X121837245Y-72491330D01*
X121837519Y-72488704D01*
X121839500Y-72390000D01*
X121826371Y-72184194D01*
X121819820Y-72081494D01*
X121819819Y-72081490D01*
X121819564Y-72077485D01*
X121817983Y-72069309D01*
X121760843Y-71773972D01*
X121760842Y-71773968D01*
X121760081Y-71770035D01*
X121662013Y-71472637D01*
X121645612Y-71438329D01*
X121528688Y-71193740D01*
X121528686Y-71193737D01*
X121526952Y-71190109D01*
X121475683Y-71110707D01*
X121359260Y-70930399D01*
X121359255Y-70930393D01*
X121357086Y-70927033D01*
X121155169Y-70687674D01*
X121016740Y-70560605D01*
X120927433Y-70478626D01*
X120927431Y-70478624D01*
X120924475Y-70475911D01*
X120668743Y-70295178D01*
X120392120Y-70148404D01*
X120388363Y-70146988D01*
X120102849Y-70039385D01*
X120102843Y-70039383D01*
X120099088Y-70037968D01*
X119952728Y-70003235D01*
X119798316Y-69966591D01*
X119798311Y-69966590D01*
X119794400Y-69965662D01*
X119482993Y-69932657D01*
X119478992Y-69932744D01*
X119478985Y-69932744D01*
X119173934Y-69939401D01*
X119173929Y-69939401D01*
X119169917Y-69939489D01*
X119165946Y-69940086D01*
X118864217Y-69985449D01*
X118864215Y-69985449D01*
X118860247Y-69986046D01*
X118856389Y-69987141D01*
X118856386Y-69987142D01*
X118743330Y-70019240D01*
X118559002Y-70071573D01*
X118271067Y-70194685D01*
X118267613Y-70196715D01*
X118267606Y-70196719D01*
X118124814Y-70280663D01*
X118001108Y-70353386D01*
X117753503Y-70545102D01*
X117532266Y-70766726D01*
X117529812Y-70769907D01*
X117529811Y-70769908D01*
X117343522Y-71011373D01*
X117340982Y-71014665D01*
X117338945Y-71018144D01*
X117204505Y-71247751D01*
X117182753Y-71284900D01*
X117181185Y-71288585D01*
X117181183Y-71288589D01*
X117133049Y-71401712D01*
X117060144Y-71573050D01*
X116975142Y-71874443D01*
X116929126Y-72184194D01*
X116929046Y-72188203D01*
X116929045Y-72188209D01*
X116923594Y-72459792D01*
X116922841Y-72497282D01*
X116332000Y-72497282D01*
X116332000Y-69300293D01*
X120390930Y-69300293D01*
X120392154Y-69310633D01*
X120394627Y-69331532D01*
X120395018Y-69338163D01*
X120395072Y-69338159D01*
X120395500Y-69343335D01*
X120395500Y-69348540D01*
X120396355Y-69353676D01*
X120398954Y-69369294D01*
X120399791Y-69375170D01*
X120405846Y-69426330D01*
X120409828Y-69434623D01*
X120411338Y-69443694D01*
X120416281Y-69452855D01*
X120416282Y-69452858D01*
X120435798Y-69489026D01*
X120438475Y-69494279D01*
X120460785Y-69540739D01*
X120466415Y-69547438D01*
X120468351Y-69549374D01*
X120468371Y-69549396D01*
X120471605Y-69555389D01*
X120479251Y-69562457D01*
X120506321Y-69587480D01*
X120509887Y-69590910D01*
X122201826Y-71282848D01*
X122235851Y-71345160D01*
X122236597Y-71392017D01*
X122236096Y-71393691D01*
X122235500Y-71401712D01*
X122235500Y-72028914D01*
X122240111Y-72061113D01*
X122243571Y-72085269D01*
X122250979Y-72137000D01*
X122310771Y-72268504D01*
X122405067Y-72377941D01*
X122421677Y-72388707D01*
X122467958Y-72442543D01*
X122477787Y-72512856D01*
X122448042Y-72577321D01*
X122409558Y-72607101D01*
X122392236Y-72615775D01*
X122256694Y-72704641D01*
X122245542Y-72713965D01*
X122134078Y-72831629D01*
X122125365Y-72843276D01*
X122043957Y-72983429D01*
X122038163Y-72996754D01*
X121990932Y-73152700D01*
X121988484Y-73165323D01*
X121982249Y-73235184D01*
X121982000Y-73240779D01*
X121982000Y-73284385D01*
X121986475Y-73299624D01*
X121987865Y-73300829D01*
X121995548Y-73302500D01*
X124379885Y-73302500D01*
X124395124Y-73298025D01*
X124396329Y-73296635D01*
X124398000Y-73288952D01*
X124398000Y-73254777D01*
X124397576Y-73247476D01*
X124383383Y-73125745D01*
X124380037Y-73111590D01*
X124324737Y-72959239D01*
X124318227Y-72946240D01*
X124229359Y-72810694D01*
X124220035Y-72799542D01*
X124102371Y-72688078D01*
X124090724Y-72679365D01*
X123960929Y-72603973D01*
X123912071Y-72552462D01*
X123898817Y-72482713D01*
X123925377Y-72416872D01*
X123941968Y-72399566D01*
X124017137Y-72334797D01*
X124017142Y-72334792D01*
X124023941Y-72328933D01*
X124102513Y-72207711D01*
X124143904Y-72069309D01*
X124144500Y-72061288D01*
X124144500Y-71961548D01*
X124603000Y-71961548D01*
X124603000Y-72016743D01*
X124603161Y-72021250D01*
X124607740Y-72085269D01*
X124610126Y-72098491D01*
X124646819Y-72223458D01*
X124654233Y-72239692D01*
X124723426Y-72347360D01*
X124735112Y-72360847D01*
X124831840Y-72444662D01*
X124846848Y-72454307D01*
X124963275Y-72507477D01*
X124980388Y-72512502D01*
X125111554Y-72531361D01*
X125120495Y-72532000D01*
X125373885Y-72532000D01*
X125389124Y-72527525D01*
X125390329Y-72526135D01*
X125392000Y-72518452D01*
X125392000Y-71966115D01*
X125387525Y-71950876D01*
X125386135Y-71949671D01*
X125378452Y-71948000D01*
X124621115Y-71948000D01*
X124605876Y-71952475D01*
X124604671Y-71953865D01*
X124603000Y-71961548D01*
X124144500Y-71961548D01*
X124144500Y-71434086D01*
X124138707Y-71393637D01*
X124148851Y-71323371D01*
X124174340Y-71286683D01*
X124176618Y-71284405D01*
X124238930Y-71250379D01*
X124265713Y-71247500D01*
X124477000Y-71247500D01*
X124545121Y-71267502D01*
X124591614Y-71321158D01*
X124603000Y-71373500D01*
X124603000Y-71421885D01*
X124607475Y-71437124D01*
X124608865Y-71438329D01*
X124616548Y-71440000D01*
X125774000Y-71440000D01*
X125842121Y-71460002D01*
X125888614Y-71513658D01*
X125900000Y-71566000D01*
X125900000Y-72513885D01*
X125904475Y-72529124D01*
X125905865Y-72530329D01*
X125913548Y-72532000D01*
X126173743Y-72532000D01*
X126178253Y-72531839D01*
X126229512Y-72528173D01*
X126298886Y-72543265D01*
X126349088Y-72593467D01*
X126364500Y-72653852D01*
X126364500Y-72893463D01*
X126344498Y-72961584D01*
X126290842Y-73008077D01*
X126213920Y-73017042D01*
X126182071Y-73010707D01*
X126182065Y-73010706D01*
X126176000Y-73009500D01*
X125116000Y-73009500D01*
X125016694Y-73029253D01*
X124932506Y-73085506D01*
X124876253Y-73169694D01*
X124856500Y-73269000D01*
X124856500Y-73919000D01*
X124876253Y-74018306D01*
X124932506Y-74102494D01*
X125016694Y-74158747D01*
X125116000Y-74178500D01*
X126176000Y-74178500D01*
X126275306Y-74158747D01*
X126359494Y-74102494D01*
X126415747Y-74018306D01*
X126435500Y-73919000D01*
X126435500Y-73685214D01*
X126455502Y-73617093D01*
X126509158Y-73570600D01*
X126579432Y-73560496D01*
X126644012Y-73589990D01*
X126650595Y-73596118D01*
X126880869Y-73826391D01*
X126893932Y-73842567D01*
X126896487Y-73845375D01*
X126902133Y-73854119D01*
X126910308Y-73860564D01*
X126910310Y-73860566D01*
X126926844Y-73873600D01*
X126931806Y-73878010D01*
X126931842Y-73877968D01*
X126935799Y-73881321D01*
X126939480Y-73885002D01*
X126943712Y-73888026D01*
X126956598Y-73897235D01*
X126961344Y-73900798D01*
X127001802Y-73932693D01*
X127010483Y-73935741D01*
X127017963Y-73941087D01*
X127018664Y-73941297D01*
X127065908Y-73988797D01*
X127071567Y-74000666D01*
X127073832Y-74006134D01*
X127076253Y-74018306D01*
X127132506Y-74102494D01*
X127216694Y-74158747D01*
X127316000Y-74178500D01*
X128376000Y-74178500D01*
X128475306Y-74158747D01*
X128559494Y-74102494D01*
X128615747Y-74018306D01*
X128620013Y-73996859D01*
X128652919Y-73933949D01*
X128714614Y-73898817D01*
X128785509Y-73902616D01*
X128843095Y-73944140D01*
X128858292Y-73969287D01*
X128914771Y-74093504D01*
X128920631Y-74100305D01*
X128934367Y-74116246D01*
X129009067Y-74202941D01*
X129130289Y-74281513D01*
X129199816Y-74302306D01*
X129262150Y-74320948D01*
X129262152Y-74320948D01*
X129268691Y-74322904D01*
X129276712Y-74323500D01*
X130278914Y-74323500D01*
X130321403Y-74317415D01*
X130378107Y-74309295D01*
X130378110Y-74309294D01*
X130387000Y-74308021D01*
X130395176Y-74304304D01*
X130395178Y-74304303D01*
X130445613Y-74281371D01*
X130518504Y-74248229D01*
X130627941Y-74153933D01*
X130706513Y-74032711D01*
X130709085Y-74024109D01*
X130709087Y-74024106D01*
X130726644Y-73965398D01*
X130765326Y-73905864D01*
X130830053Y-73876694D01*
X130847361Y-73875500D01*
X130923155Y-73875500D01*
X130943828Y-73877700D01*
X130947613Y-73877878D01*
X130957793Y-73880070D01*
X130989032Y-73876373D01*
X130995663Y-73875982D01*
X130995659Y-73875928D01*
X131000835Y-73875500D01*
X131006040Y-73875500D01*
X131026792Y-73872046D01*
X131032670Y-73871209D01*
X131073490Y-73866378D01*
X131073491Y-73866378D01*
X131083830Y-73865154D01*
X131092123Y-73861172D01*
X131101194Y-73859662D01*
X131110355Y-73854719D01*
X131110358Y-73854718D01*
X131146526Y-73835202D01*
X131151779Y-73832525D01*
X131198239Y-73810215D01*
X131204938Y-73804585D01*
X131206874Y-73802649D01*
X131206896Y-73802629D01*
X131212889Y-73799395D01*
X131244981Y-73764678D01*
X131248410Y-73761113D01*
X133651850Y-71357673D01*
X133714162Y-71323647D01*
X133784977Y-71328712D01*
X133841813Y-71371259D01*
X133866624Y-71437779D01*
X133856886Y-71496101D01*
X133824144Y-71573050D01*
X133739142Y-71874443D01*
X133693126Y-72184194D01*
X133693046Y-72188203D01*
X133693045Y-72188209D01*
X133687594Y-72459792D01*
X133686841Y-72497282D01*
X133720389Y-72808630D01*
X133793227Y-73113192D01*
X133904174Y-73406030D01*
X134051430Y-73682398D01*
X134232610Y-73937814D01*
X134444775Y-74168138D01*
X134447848Y-74170721D01*
X134447850Y-74170723D01*
X134565626Y-74269724D01*
X134684486Y-74369636D01*
X134687860Y-74371806D01*
X134687861Y-74371807D01*
X134944489Y-74536876D01*
X134947858Y-74539043D01*
X135027616Y-74577000D01*
X135226551Y-74671674D01*
X135230621Y-74673611D01*
X135528190Y-74771159D01*
X135532116Y-74771912D01*
X135532122Y-74771913D01*
X135674077Y-74799120D01*
X135835743Y-74830106D01*
X135839742Y-74830354D01*
X135839749Y-74830355D01*
X136144279Y-74849247D01*
X136148293Y-74849496D01*
X136460773Y-74829015D01*
X136464712Y-74828246D01*
X136464718Y-74828245D01*
X136764183Y-74769764D01*
X136764191Y-74769762D01*
X136768118Y-74768995D01*
X137065345Y-74670409D01*
X137347636Y-74534854D01*
X137610415Y-74364530D01*
X137658882Y-74323500D01*
X137846359Y-74164788D01*
X137849422Y-74162195D01*
X138051676Y-73941087D01*
X138058070Y-73934097D01*
X138058071Y-73934095D01*
X138060782Y-73931132D01*
X138241068Y-73675085D01*
X138387359Y-73398206D01*
X138497283Y-73104982D01*
X138502493Y-73082858D01*
X138568137Y-72804075D01*
X138569057Y-72800168D01*
X138595315Y-72548229D01*
X138601245Y-72491335D01*
X138601245Y-72491330D01*
X138601519Y-72488704D01*
X138603500Y-72390000D01*
X138590371Y-72184194D01*
X138583820Y-72081494D01*
X138583819Y-72081490D01*
X138583564Y-72077485D01*
X138581983Y-72069309D01*
X138524843Y-71773972D01*
X138524842Y-71773968D01*
X138524081Y-71770035D01*
X138426013Y-71472637D01*
X138409612Y-71438329D01*
X138292688Y-71193740D01*
X138292686Y-71193737D01*
X138290952Y-71190109D01*
X138239683Y-71110707D01*
X138123260Y-70930399D01*
X138123255Y-70930393D01*
X138121086Y-70927033D01*
X137919169Y-70687674D01*
X137780740Y-70560605D01*
X137691433Y-70478626D01*
X137691431Y-70478624D01*
X137688475Y-70475911D01*
X137432743Y-70295178D01*
X137156120Y-70148404D01*
X137152363Y-70146988D01*
X136866849Y-70039385D01*
X136866843Y-70039383D01*
X136863088Y-70037968D01*
X136716728Y-70003235D01*
X136562316Y-69966591D01*
X136562311Y-69966590D01*
X136558400Y-69965662D01*
X136246993Y-69932657D01*
X136242992Y-69932744D01*
X136242985Y-69932744D01*
X135937934Y-69939401D01*
X135937929Y-69939401D01*
X135933917Y-69939489D01*
X135929946Y-69940086D01*
X135628217Y-69985449D01*
X135628215Y-69985449D01*
X135624247Y-69986046D01*
X135620389Y-69987141D01*
X135620386Y-69987142D01*
X135507330Y-70019240D01*
X135323002Y-70071573D01*
X135319314Y-70073150D01*
X135250553Y-70102550D01*
X135180054Y-70110940D01*
X135116210Y-70079883D01*
X135079292Y-70019240D01*
X135081021Y-69948264D01*
X135111922Y-69897601D01*
X137011393Y-67998130D01*
X137027566Y-67985068D01*
X137030371Y-67982515D01*
X137039119Y-67976867D01*
X137045564Y-67968692D01*
X137045566Y-67968690D01*
X137058596Y-67952161D01*
X137063011Y-67947193D01*
X137062969Y-67947158D01*
X137066322Y-67943201D01*
X137070003Y-67939520D01*
X137082244Y-67922391D01*
X137085807Y-67917645D01*
X137111245Y-67885378D01*
X137111246Y-67885375D01*
X137117693Y-67877198D01*
X137120741Y-67868518D01*
X137126087Y-67861037D01*
X137129071Y-67851059D01*
X137129073Y-67851055D01*
X137140838Y-67811714D01*
X137142673Y-67806066D01*
X137157118Y-67764933D01*
X137157119Y-67764930D01*
X137159745Y-67757451D01*
X137160500Y-67748733D01*
X137160500Y-67746024D01*
X137160503Y-67745959D01*
X137162452Y-67739441D01*
X137160597Y-67692230D01*
X137160500Y-67687284D01*
X137160500Y-65748739D01*
X137180502Y-65680618D01*
X137212619Y-65646672D01*
X137217962Y-65642804D01*
X137224350Y-65639227D01*
X137353938Y-65520273D01*
X137452685Y-65374698D01*
X137515294Y-65210311D01*
X137534400Y-65066160D01*
X137537894Y-65039794D01*
X137537894Y-65039792D01*
X137538406Y-65035930D01*
X137538500Y-65024000D01*
X137518129Y-64849277D01*
X137458110Y-64683927D01*
X137361662Y-64536819D01*
X137356351Y-64531788D01*
X137356347Y-64531783D01*
X137302331Y-64480614D01*
X137266632Y-64419245D01*
X137269779Y-64348319D01*
X137303777Y-64296319D01*
X137348546Y-64255224D01*
X137348552Y-64255217D01*
X137353938Y-64250273D01*
X137452685Y-64104698D01*
X137515294Y-63940311D01*
X137522472Y-63886157D01*
X137537894Y-63769794D01*
X137537894Y-63769792D01*
X137538406Y-63765930D01*
X137538500Y-63754000D01*
X137537815Y-63748119D01*
X137518977Y-63586550D01*
X137518129Y-63579277D01*
X137458110Y-63413927D01*
X137361662Y-63266819D01*
X137356351Y-63261788D01*
X137356347Y-63261783D01*
X137302331Y-63210614D01*
X137266632Y-63149245D01*
X137269779Y-63078319D01*
X137303777Y-63026319D01*
X137348546Y-62985224D01*
X137348552Y-62985217D01*
X137353938Y-62980273D01*
X137452685Y-62834698D01*
X137515294Y-62670311D01*
X137531435Y-62548531D01*
X137537894Y-62499794D01*
X137537894Y-62499792D01*
X137538406Y-62495930D01*
X137538438Y-62491934D01*
X137538469Y-62487914D01*
X137538500Y-62484000D01*
X137532827Y-62435338D01*
X137518977Y-62316550D01*
X137518129Y-62309277D01*
X137472623Y-62183910D01*
X137460607Y-62150806D01*
X137458110Y-62143927D01*
X137361662Y-61996819D01*
X137356351Y-61991788D01*
X137356347Y-61991783D01*
X137302331Y-61940614D01*
X137266632Y-61879245D01*
X137269779Y-61808319D01*
X137303777Y-61756319D01*
X137348546Y-61715224D01*
X137348552Y-61715217D01*
X137353938Y-61710273D01*
X137452685Y-61564698D01*
X137515294Y-61400311D01*
X137525103Y-61326306D01*
X137537894Y-61229794D01*
X137537894Y-61229792D01*
X137538406Y-61225930D01*
X137538500Y-61214000D01*
X137531132Y-61150798D01*
X137518977Y-61046550D01*
X137518129Y-61039277D01*
X137479155Y-60931905D01*
X137460607Y-60880806D01*
X137458110Y-60873927D01*
X137361662Y-60726819D01*
X137356351Y-60721788D01*
X137356347Y-60721783D01*
X137302331Y-60670614D01*
X137266632Y-60609245D01*
X137269779Y-60538319D01*
X137303777Y-60486319D01*
X137348546Y-60445224D01*
X137348552Y-60445217D01*
X137353938Y-60440273D01*
X137452685Y-60294698D01*
X137515294Y-60130311D01*
X137538406Y-59955930D01*
X137538500Y-59944000D01*
X137537809Y-59938066D01*
X137518977Y-59776550D01*
X137518129Y-59769277D01*
X137515631Y-59762395D01*
X137460607Y-59610806D01*
X137458110Y-59603927D01*
X137361662Y-59456819D01*
X137356351Y-59451788D01*
X137356347Y-59451783D01*
X137302331Y-59400614D01*
X137266632Y-59339245D01*
X137269779Y-59268319D01*
X137303777Y-59216319D01*
X137348546Y-59175224D01*
X137348552Y-59175217D01*
X137353938Y-59170273D01*
X137452685Y-59024698D01*
X137485561Y-58938378D01*
X137514214Y-58894129D01*
X137900391Y-58507951D01*
X137916567Y-58494888D01*
X137919375Y-58492333D01*
X137928119Y-58486687D01*
X137934564Y-58478512D01*
X137934566Y-58478510D01*
X137947600Y-58461976D01*
X137952011Y-58457013D01*
X137951969Y-58456977D01*
X137955323Y-58453019D01*
X137959003Y-58449339D01*
X137962025Y-58445111D01*
X137962032Y-58445102D01*
X137971250Y-58432203D01*
X137974812Y-58427459D01*
X138000245Y-58395197D01*
X138006693Y-58387018D01*
X138009741Y-58378338D01*
X138015088Y-58370856D01*
X138029845Y-58321512D01*
X138031680Y-58315864D01*
X138046119Y-58274750D01*
X138046120Y-58274746D01*
X138048745Y-58267271D01*
X138049500Y-58258553D01*
X138049500Y-58255812D01*
X138049501Y-58255787D01*
X138051453Y-58249261D01*
X138049597Y-58202025D01*
X138049500Y-58197079D01*
X138049500Y-55843960D01*
X138069502Y-55775839D01*
X138101818Y-55743594D01*
X138101504Y-55743229D01*
X138106488Y-55738935D01*
X138106491Y-55738932D01*
X138210941Y-55648933D01*
X138289513Y-55527711D01*
X138330904Y-55389309D01*
X138331500Y-55381288D01*
X138331500Y-54379086D01*
X138324127Y-54327601D01*
X138317295Y-54279893D01*
X138317294Y-54279890D01*
X138316021Y-54271000D01*
X138256229Y-54139496D01*
X138161933Y-54030059D01*
X138040711Y-53951487D01*
X137943793Y-53922502D01*
X137908850Y-53912052D01*
X137908848Y-53912052D01*
X137902309Y-53910096D01*
X137894288Y-53909500D01*
X137142086Y-53909500D01*
X137099597Y-53915585D01*
X137042893Y-53923705D01*
X137042890Y-53923706D01*
X137034000Y-53924979D01*
X137025824Y-53928696D01*
X137025822Y-53928697D01*
X136981358Y-53948914D01*
X136902496Y-53984771D01*
X136793059Y-54079067D01*
X136760078Y-54129951D01*
X136706245Y-54176232D01*
X136635932Y-54186063D01*
X136571467Y-54156319D01*
X136556659Y-54139125D01*
X136556229Y-54139496D01*
X136510648Y-54086596D01*
X136461933Y-54030059D01*
X136340711Y-53951487D01*
X136243793Y-53922502D01*
X136208850Y-53912052D01*
X136208848Y-53912052D01*
X136202309Y-53910096D01*
X136194288Y-53909500D01*
X135442086Y-53909500D01*
X135399597Y-53915585D01*
X135342893Y-53923705D01*
X135342890Y-53923706D01*
X135334000Y-53924979D01*
X135325824Y-53928696D01*
X135325822Y-53928697D01*
X135281358Y-53948914D01*
X135202496Y-53984771D01*
X135093059Y-54079067D01*
X135014487Y-54200289D01*
X135011915Y-54208891D01*
X135011913Y-54208894D01*
X134994217Y-54268067D01*
X134955535Y-54327601D01*
X134890808Y-54356771D01*
X134820585Y-54346316D01*
X134767163Y-54299555D01*
X134747500Y-54231965D01*
X134747500Y-53304850D01*
X134749702Y-53284160D01*
X134749880Y-53280384D01*
X134752071Y-53270207D01*
X134748373Y-53238962D01*
X134747982Y-53232335D01*
X134747928Y-53232339D01*
X134747500Y-53227160D01*
X134747500Y-53221960D01*
X134746647Y-53216834D01*
X134746646Y-53216825D01*
X134744046Y-53201205D01*
X134743209Y-53195329D01*
X134738378Y-53154510D01*
X134738378Y-53154509D01*
X134737154Y-53144170D01*
X134733172Y-53135877D01*
X134731662Y-53126806D01*
X134726717Y-53117641D01*
X134726715Y-53117636D01*
X134707208Y-53081484D01*
X134704511Y-53076191D01*
X134685647Y-53036905D01*
X134685645Y-53036901D01*
X134682216Y-53029761D01*
X134676585Y-53023062D01*
X134674647Y-53021124D01*
X134674629Y-53021105D01*
X134671395Y-53015111D01*
X134636678Y-52983019D01*
X134633113Y-52979590D01*
X132780405Y-51126882D01*
X132746379Y-51064570D01*
X132743500Y-51037787D01*
X132743500Y-50399282D01*
X133686841Y-50399282D01*
X133720389Y-50710630D01*
X133793227Y-51015192D01*
X133904174Y-51308030D01*
X134051430Y-51584398D01*
X134232610Y-51839814D01*
X134444775Y-52070138D01*
X134684486Y-52271636D01*
X134687860Y-52273806D01*
X134687861Y-52273807D01*
X134944489Y-52438876D01*
X134947858Y-52441043D01*
X135116025Y-52521074D01*
X135226551Y-52573674D01*
X135230621Y-52575611D01*
X135528190Y-52673159D01*
X135532116Y-52673912D01*
X135532122Y-52673913D01*
X135674077Y-52701120D01*
X135835743Y-52732106D01*
X135839742Y-52732354D01*
X135839749Y-52732355D01*
X136144279Y-52751247D01*
X136148293Y-52751496D01*
X136460773Y-52731015D01*
X136464712Y-52730246D01*
X136464718Y-52730245D01*
X136764183Y-52671764D01*
X136764191Y-52671762D01*
X136768118Y-52670995D01*
X137065345Y-52572409D01*
X137347636Y-52436854D01*
X137610415Y-52266530D01*
X137849422Y-52064195D01*
X138039935Y-51855922D01*
X138058070Y-51836097D01*
X138058071Y-51836095D01*
X138060782Y-51833132D01*
X138241068Y-51577085D01*
X138387359Y-51300206D01*
X138497283Y-51006982D01*
X138569057Y-50702168D01*
X138601519Y-50390704D01*
X138603500Y-50292000D01*
X138590210Y-50083670D01*
X138583820Y-49983494D01*
X138583819Y-49983490D01*
X138583564Y-49979485D01*
X138582283Y-49972859D01*
X138524843Y-49675972D01*
X138524842Y-49675968D01*
X138524081Y-49672035D01*
X138426013Y-49374637D01*
X138338030Y-49190589D01*
X138292688Y-49095740D01*
X138292686Y-49095737D01*
X138290952Y-49092109D01*
X138179916Y-48920144D01*
X138123260Y-48832399D01*
X138123255Y-48832393D01*
X138121086Y-48829033D01*
X137919169Y-48589674D01*
X137766954Y-48449950D01*
X137691433Y-48380626D01*
X137691431Y-48380624D01*
X137688475Y-48377911D01*
X137432743Y-48197178D01*
X137156120Y-48050404D01*
X137152363Y-48048988D01*
X136866849Y-47941385D01*
X136866843Y-47941383D01*
X136863088Y-47939968D01*
X136801710Y-47925402D01*
X136562316Y-47868591D01*
X136562311Y-47868590D01*
X136558400Y-47867662D01*
X136246993Y-47834657D01*
X136242992Y-47834744D01*
X136242985Y-47834744D01*
X135937934Y-47841401D01*
X135937929Y-47841401D01*
X135933917Y-47841489D01*
X135929946Y-47842086D01*
X135628217Y-47887449D01*
X135628215Y-47887449D01*
X135624247Y-47888046D01*
X135620389Y-47889141D01*
X135620386Y-47889142D01*
X135444638Y-47939039D01*
X135323002Y-47973573D01*
X135035067Y-48096685D01*
X135031613Y-48098715D01*
X135031606Y-48098719D01*
X134878396Y-48188787D01*
X134765108Y-48255386D01*
X134517503Y-48447102D01*
X134296266Y-48668726D01*
X134293812Y-48671907D01*
X134293811Y-48671908D01*
X134172590Y-48829033D01*
X134104982Y-48916665D01*
X134102945Y-48920144D01*
X134004232Y-49088734D01*
X133946753Y-49186900D01*
X133824144Y-49475050D01*
X133739142Y-49776443D01*
X133693126Y-50086194D01*
X133693046Y-50090203D01*
X133693045Y-50090209D01*
X133688899Y-50296779D01*
X133686841Y-50399282D01*
X132743500Y-50399282D01*
X132743500Y-50315086D01*
X132737415Y-50272597D01*
X132729295Y-50215893D01*
X132729294Y-50215890D01*
X132728021Y-50207000D01*
X132668229Y-50075496D01*
X132573933Y-49966059D01*
X132452711Y-49887487D01*
X132345894Y-49855542D01*
X132320850Y-49848052D01*
X132320848Y-49848052D01*
X132314309Y-49846096D01*
X132306288Y-49845500D01*
X131554086Y-49845500D01*
X131511597Y-49851585D01*
X131454893Y-49859705D01*
X131454890Y-49859706D01*
X131446000Y-49860979D01*
X131437824Y-49864696D01*
X131437822Y-49864697D01*
X131433437Y-49866691D01*
X131314496Y-49920771D01*
X131311531Y-49923326D01*
X131245813Y-49942464D01*
X131177737Y-49922311D01*
X131140720Y-49885548D01*
X131128357Y-49866691D01*
X131119035Y-49855542D01*
X131001371Y-49744078D01*
X130989724Y-49735365D01*
X130849571Y-49653957D01*
X130836246Y-49648163D01*
X130680300Y-49600932D01*
X130667677Y-49598484D01*
X130597816Y-49592249D01*
X130592221Y-49592000D01*
X130486115Y-49592000D01*
X130470876Y-49596475D01*
X130469671Y-49597865D01*
X130468000Y-49605548D01*
X130468000Y-51989885D01*
X130472475Y-52005124D01*
X130473865Y-52006329D01*
X130481548Y-52008000D01*
X130578223Y-52008000D01*
X130585524Y-52007576D01*
X130707255Y-51993383D01*
X130721410Y-51990037D01*
X130873761Y-51934737D01*
X130886760Y-51928227D01*
X131022306Y-51839359D01*
X131033458Y-51830035D01*
X131144922Y-51712371D01*
X131149507Y-51706242D01*
X131206328Y-51663676D01*
X131277142Y-51658587D01*
X131318933Y-51675985D01*
X131375289Y-51712513D01*
X131444816Y-51733306D01*
X131507150Y-51751948D01*
X131507152Y-51751948D01*
X131513691Y-51753904D01*
X131521712Y-51754500D01*
X132273914Y-51754500D01*
X132273914Y-51755993D01*
X132337015Y-51769740D01*
X132365691Y-51791214D01*
X133947595Y-53373118D01*
X133981621Y-53435430D01*
X133984500Y-53462213D01*
X133984500Y-55783819D01*
X133964498Y-55851940D01*
X133910842Y-55898433D01*
X133840568Y-55908537D01*
X133773736Y-55876098D01*
X133773690Y-55876157D01*
X133620458Y-55757298D01*
X133446455Y-55671678D01*
X133440277Y-55670069D01*
X133440275Y-55670068D01*
X133264972Y-55624405D01*
X133264969Y-55624405D01*
X133258790Y-55622795D01*
X133175491Y-55618430D01*
X133071510Y-55612980D01*
X133071506Y-55612980D01*
X133065129Y-55612646D01*
X132925987Y-55633689D01*
X132879696Y-55640689D01*
X132879695Y-55640689D01*
X132873382Y-55641644D01*
X132867393Y-55643847D01*
X132867391Y-55643848D01*
X132796128Y-55670068D01*
X132691383Y-55708607D01*
X132526566Y-55810798D01*
X132385663Y-55944043D01*
X132382906Y-55947980D01*
X132323729Y-55986170D01*
X132252732Y-55986306D01*
X132192933Y-55948036D01*
X132163317Y-55883512D01*
X132162000Y-55865342D01*
X132162000Y-52885612D01*
X132161861Y-52885184D01*
X132161861Y-52868553D01*
X132152086Y-52855099D01*
X132152421Y-52854856D01*
X132151831Y-52854315D01*
X132146947Y-52839283D01*
X132134661Y-52830357D01*
X132134660Y-52830356D01*
X132133492Y-52829508D01*
X132133735Y-52829173D01*
X132133007Y-52828840D01*
X132123717Y-52816053D01*
X132107901Y-52810914D01*
X132108028Y-52810523D01*
X132107238Y-52810432D01*
X132094447Y-52801139D01*
X132078266Y-52801139D01*
X132077672Y-52801092D01*
X132077388Y-52801000D01*
X123446612Y-52801000D01*
X123446184Y-52801139D01*
X123429553Y-52801139D01*
X123416099Y-52810914D01*
X123415856Y-52810579D01*
X123415315Y-52811169D01*
X123400283Y-52816053D01*
X123391357Y-52828339D01*
X123391356Y-52828340D01*
X123390508Y-52829508D01*
X123390173Y-52829265D01*
X123389840Y-52829993D01*
X123377053Y-52839283D01*
X123371914Y-52855099D01*
X123371523Y-52854972D01*
X123371432Y-52855762D01*
X123362139Y-52868553D01*
X123362139Y-52884734D01*
X123362092Y-52885328D01*
X123362000Y-52885612D01*
X123362000Y-54617721D01*
X123341998Y-54685842D01*
X123288342Y-54732335D01*
X123218068Y-54742439D01*
X123211433Y-54740613D01*
X123211306Y-54741253D01*
X123118068Y-54722707D01*
X123112000Y-54721500D01*
X121712000Y-54721500D01*
X121612694Y-54741253D01*
X121528506Y-54797506D01*
X121472253Y-54881694D01*
X121452500Y-54981000D01*
X121452500Y-56381000D01*
X121472253Y-56480306D01*
X121528506Y-56564494D01*
X121612694Y-56620747D01*
X121624866Y-56623168D01*
X121636331Y-56627917D01*
X121635448Y-56630050D01*
X121683622Y-56655249D01*
X121718755Y-56716943D01*
X121714955Y-56787838D01*
X121691514Y-56828251D01*
X121690298Y-56829660D01*
X121685663Y-56834043D01*
X121574431Y-56992899D01*
X121523777Y-57109955D01*
X121501239Y-57162038D01*
X121497414Y-57170876D01*
X121496108Y-57177126D01*
X121496108Y-57177127D01*
X121460012Y-57349908D01*
X121457756Y-57360705D01*
X121457713Y-57372977D01*
X121457122Y-57542427D01*
X121457079Y-57554631D01*
X121464372Y-57590798D01*
X121492044Y-57728036D01*
X121495410Y-57744732D01*
X121497905Y-57750609D01*
X121497905Y-57750610D01*
X121563016Y-57904000D01*
X121571184Y-57923243D01*
X121681304Y-58082871D01*
X121685908Y-58087286D01*
X121720371Y-58120335D01*
X121755694Y-58181921D01*
X121758938Y-58218776D01*
X121758713Y-58222555D01*
X121766094Y-58235884D01*
X122682115Y-59151905D01*
X122716141Y-59214217D01*
X122711076Y-59285032D01*
X122682115Y-59330095D01*
X121894022Y-60118188D01*
X121886408Y-60132132D01*
X121886539Y-60133965D01*
X121890790Y-60140580D01*
X122682115Y-60931905D01*
X122716141Y-60994217D01*
X122711076Y-61065032D01*
X122682115Y-61110095D01*
X121768300Y-62023910D01*
X121760686Y-62037853D01*
X121760799Y-62039432D01*
X121745708Y-62108807D01*
X121721694Y-62139970D01*
X121685663Y-62174043D01*
X121574431Y-62332899D01*
X121571897Y-62338755D01*
X121560509Y-62365071D01*
X121515097Y-62419645D01*
X121494822Y-62429113D01*
X121495173Y-62429844D01*
X121492041Y-62431348D01*
X121485377Y-62434078D01*
X121477806Y-62435338D01*
X121468644Y-62440281D01*
X121468645Y-62440281D01*
X121432480Y-62459794D01*
X121427195Y-62462487D01*
X121380760Y-62484785D01*
X121374062Y-62490416D01*
X121372131Y-62492347D01*
X121372105Y-62492370D01*
X121366111Y-62495605D01*
X121359042Y-62503252D01*
X121359041Y-62503253D01*
X121334021Y-62530320D01*
X121330591Y-62533887D01*
X120544604Y-63319873D01*
X120528428Y-63332937D01*
X120525627Y-63335486D01*
X120516881Y-63341133D01*
X120510436Y-63349308D01*
X120510434Y-63349310D01*
X120497404Y-63365839D01*
X120492991Y-63370805D01*
X120493032Y-63370840D01*
X120489674Y-63374803D01*
X120485997Y-63378480D01*
X120473742Y-63395630D01*
X120470203Y-63400343D01*
X120464319Y-63407807D01*
X120445659Y-63431477D01*
X120438307Y-63440802D01*
X120435260Y-63449480D01*
X120429912Y-63456963D01*
X120426928Y-63466941D01*
X120426926Y-63466945D01*
X120415155Y-63506306D01*
X120413320Y-63511954D01*
X120399019Y-63552679D01*
X120396255Y-63560549D01*
X120395500Y-63569267D01*
X120395500Y-63572008D01*
X120395499Y-63572032D01*
X120393547Y-63578559D01*
X120394395Y-63600146D01*
X120395403Y-63625794D01*
X120395500Y-63630741D01*
X120395500Y-69265655D01*
X120393300Y-69286328D01*
X120393122Y-69290113D01*
X120390930Y-69300293D01*
X116332000Y-69300293D01*
X116332000Y-61091559D01*
X121201541Y-61091559D01*
X121202243Y-61102711D01*
X121233165Y-61304795D01*
X121235831Y-61315648D01*
X121302050Y-61509060D01*
X121306601Y-61519280D01*
X121386435Y-61662714D01*
X121396487Y-61672605D01*
X121404091Y-61669699D01*
X122039978Y-61033812D01*
X122047592Y-61019868D01*
X122047461Y-61018035D01*
X122043210Y-61011420D01*
X121409897Y-60378107D01*
X121397517Y-60371347D01*
X121389545Y-60377315D01*
X121334194Y-60465551D01*
X121329114Y-60475521D01*
X121252864Y-60665198D01*
X121249633Y-60675898D01*
X121208177Y-60876084D01*
X121206892Y-60887191D01*
X121201541Y-61091559D01*
X116332000Y-61091559D01*
X116332000Y-59311559D01*
X121201541Y-59311559D01*
X121202243Y-59322711D01*
X121233165Y-59524795D01*
X121235831Y-59535648D01*
X121302050Y-59729060D01*
X121306601Y-59739280D01*
X121386435Y-59882714D01*
X121396487Y-59892605D01*
X121404091Y-59889699D01*
X122039978Y-59253812D01*
X122047592Y-59239868D01*
X122047461Y-59238035D01*
X122043210Y-59231420D01*
X121409897Y-58598107D01*
X121397517Y-58591347D01*
X121389545Y-58597315D01*
X121334194Y-58685551D01*
X121329114Y-58695521D01*
X121252864Y-58885198D01*
X121249633Y-58895898D01*
X121208177Y-59096084D01*
X121206892Y-59107191D01*
X121201541Y-59311559D01*
X116332000Y-59311559D01*
X116332000Y-50399282D01*
X116922841Y-50399282D01*
X116956389Y-50710630D01*
X117029227Y-51015192D01*
X117140174Y-51308030D01*
X117287430Y-51584398D01*
X117468610Y-51839814D01*
X117680775Y-52070138D01*
X117920486Y-52271636D01*
X117923860Y-52273806D01*
X117923861Y-52273807D01*
X118180489Y-52438876D01*
X118183858Y-52441043D01*
X118352025Y-52521074D01*
X118462551Y-52573674D01*
X118466621Y-52575611D01*
X118764190Y-52673159D01*
X118768116Y-52673912D01*
X118768122Y-52673913D01*
X118910077Y-52701120D01*
X119071743Y-52732106D01*
X119075742Y-52732354D01*
X119075749Y-52732355D01*
X119380279Y-52751247D01*
X119384293Y-52751496D01*
X119696773Y-52731015D01*
X119700712Y-52730246D01*
X119700718Y-52730245D01*
X120000183Y-52671764D01*
X120000191Y-52671762D01*
X120004118Y-52670995D01*
X120301345Y-52572409D01*
X120583636Y-52436854D01*
X120846415Y-52266530D01*
X121085422Y-52064195D01*
X121275935Y-51855922D01*
X121294070Y-51836097D01*
X121294071Y-51836095D01*
X121296782Y-51833132D01*
X121477068Y-51577085D01*
X121623359Y-51300206D01*
X121710578Y-51067548D01*
X129131000Y-51067548D01*
X129131000Y-51289223D01*
X129131424Y-51296524D01*
X129145617Y-51418255D01*
X129148963Y-51432410D01*
X129204263Y-51584761D01*
X129210773Y-51597760D01*
X129299641Y-51733306D01*
X129308965Y-51744458D01*
X129426629Y-51855922D01*
X129438276Y-51864635D01*
X129578429Y-51946043D01*
X129591754Y-51951837D01*
X129747700Y-51999068D01*
X129760323Y-52001516D01*
X129830184Y-52007751D01*
X129835779Y-52008000D01*
X129941885Y-52008000D01*
X129957124Y-52003525D01*
X129958329Y-52002135D01*
X129960000Y-51994452D01*
X129960000Y-51072115D01*
X129955525Y-51056876D01*
X129954135Y-51055671D01*
X129946452Y-51054000D01*
X129149115Y-51054000D01*
X129133876Y-51058475D01*
X129132671Y-51059865D01*
X129131000Y-51067548D01*
X121710578Y-51067548D01*
X121733283Y-51006982D01*
X121805057Y-50702168D01*
X121837519Y-50390704D01*
X121839404Y-50296779D01*
X129131000Y-50296779D01*
X129131000Y-50527885D01*
X129135475Y-50543124D01*
X129136865Y-50544329D01*
X129144548Y-50546000D01*
X129941885Y-50546000D01*
X129957124Y-50541525D01*
X129958329Y-50540135D01*
X129960000Y-50532452D01*
X129960000Y-49610115D01*
X129955525Y-49594876D01*
X129954135Y-49593671D01*
X129946452Y-49592000D01*
X129849777Y-49592000D01*
X129842476Y-49592424D01*
X129720745Y-49606617D01*
X129706590Y-49609963D01*
X129554239Y-49665263D01*
X129541240Y-49671773D01*
X129405694Y-49760641D01*
X129394542Y-49769965D01*
X129283078Y-49887629D01*
X129274365Y-49899276D01*
X129192957Y-50039429D01*
X129187163Y-50052754D01*
X129139932Y-50208700D01*
X129137484Y-50221323D01*
X129131249Y-50291184D01*
X129131000Y-50296779D01*
X121839404Y-50296779D01*
X121839500Y-50292000D01*
X121826210Y-50083670D01*
X121819820Y-49983494D01*
X121819819Y-49983490D01*
X121819564Y-49979485D01*
X121818283Y-49972859D01*
X121760843Y-49675972D01*
X121760842Y-49675968D01*
X121760081Y-49672035D01*
X121662013Y-49374637D01*
X121574030Y-49190589D01*
X121528688Y-49095740D01*
X121528686Y-49095737D01*
X121526952Y-49092109D01*
X121415916Y-48920144D01*
X121359260Y-48832399D01*
X121359255Y-48832393D01*
X121357086Y-48829033D01*
X121155169Y-48589674D01*
X121002954Y-48449950D01*
X120927433Y-48380626D01*
X120927431Y-48380624D01*
X120924475Y-48377911D01*
X120668743Y-48197178D01*
X120392120Y-48050404D01*
X120388363Y-48048988D01*
X120102849Y-47941385D01*
X120102843Y-47941383D01*
X120099088Y-47939968D01*
X120037710Y-47925402D01*
X119798316Y-47868591D01*
X119798311Y-47868590D01*
X119794400Y-47867662D01*
X119482993Y-47834657D01*
X119478992Y-47834744D01*
X119478985Y-47834744D01*
X119173934Y-47841401D01*
X119173929Y-47841401D01*
X119169917Y-47841489D01*
X119165946Y-47842086D01*
X118864217Y-47887449D01*
X118864215Y-47887449D01*
X118860247Y-47888046D01*
X118856389Y-47889141D01*
X118856386Y-47889142D01*
X118680638Y-47939039D01*
X118559002Y-47973573D01*
X118271067Y-48096685D01*
X118267613Y-48098715D01*
X118267606Y-48098719D01*
X118114396Y-48188787D01*
X118001108Y-48255386D01*
X117753503Y-48447102D01*
X117532266Y-48668726D01*
X117529812Y-48671907D01*
X117529811Y-48671908D01*
X117408590Y-48829033D01*
X117340982Y-48916665D01*
X117338945Y-48920144D01*
X117240232Y-49088734D01*
X117182753Y-49186900D01*
X117060144Y-49475050D01*
X116975142Y-49776443D01*
X116929126Y-50086194D01*
X116929046Y-50090203D01*
X116929045Y-50090209D01*
X116924899Y-50296779D01*
X116922841Y-50399282D01*
X116332000Y-50399282D01*
X116332000Y-47370000D01*
X116352002Y-47301879D01*
X116405658Y-47255386D01*
X116458000Y-47244000D01*
X139066000Y-47244000D01*
X139134121Y-47264002D01*
G37*
G04 #@! TD.AperFunction*
M02*
