G04 #@! TF.GenerationSoftware,KiCad,Pcbnew,(5.99.0-8366-gd64f1b3b25)*
G04 #@! TF.CreationDate,2021-01-13T01:42:37+02:00*
G04 #@! TF.ProjectId,board,626f6172-642e-46b6-9963-61645f706362,1.0.0*
G04 #@! TF.SameCoordinates,Original*
G04 #@! TF.FileFunction,Soldermask,Bot*
G04 #@! TF.FilePolarity,Negative*
%FSLAX46Y46*%
G04 Gerber Fmt 4.6, Leading zero omitted, Abs format (unit mm)*
G04 Created by KiCad (PCBNEW (5.99.0-8366-gd64f1b3b25)) date 2021-01-13 01:42:37*
%MOMM*%
%LPD*%
G01*
G04 APERTURE LIST*
G04 Aperture macros list*
%AMRoundRect*
0 Rectangle with rounded corners*
0 $1 Rounding radius*
0 $2 $3 $4 $5 $6 $7 $8 $9 X,Y pos of 4 corners*
0 Add a 4 corners polygon primitive as box body*
4,1,4,$2,$3,$4,$5,$6,$7,$8,$9,$2,$3,0*
0 Add four circle primitives for the rounded corners*
1,1,$1+$1,$2,$3*
1,1,$1+$1,$4,$5*
1,1,$1+$1,$6,$7*
1,1,$1+$1,$8,$9*
0 Add four rect primitives between the rounded corners*
20,1,$1+$1,$2,$3,$4,$5,0*
20,1,$1+$1,$4,$5,$6,$7,0*
20,1,$1+$1,$6,$7,$8,$9,0*
20,1,$1+$1,$8,$9,$2,$3,0*%
G04 Aperture macros list end*
%ADD10C,0.700000*%
%ADD11C,4.400000*%
%ADD12R,1.000000X1.000000*%
%ADD13O,1.000000X1.000000*%
%ADD14R,1.400000X1.400000*%
%ADD15C,1.400000*%
%ADD16RoundRect,0.250000X-0.450000X0.325000X-0.450000X-0.325000X0.450000X-0.325000X0.450000X0.325000X0*%
%ADD17RoundRect,0.250000X-0.325000X-0.450000X0.325000X-0.450000X0.325000X0.450000X-0.325000X0.450000X0*%
%ADD18R,1.060000X0.650000*%
%ADD19RoundRect,0.250000X-0.450000X0.262500X-0.450000X-0.262500X0.450000X-0.262500X0.450000X0.262500X0*%
G04 APERTURE END LIST*
D10*
X118213274Y-71223274D03*
X119380000Y-74040000D03*
X120546726Y-71223274D03*
X118213274Y-73556726D03*
X117730000Y-72390000D03*
X121030000Y-72390000D03*
D11*
X119380000Y-72390000D03*
D10*
X119380000Y-70740000D03*
X120546726Y-73556726D03*
X136144000Y-74040000D03*
D11*
X136144000Y-72390000D03*
D10*
X136144000Y-70740000D03*
X137310726Y-71223274D03*
X134977274Y-73556726D03*
X134977274Y-71223274D03*
X134494000Y-72390000D03*
X137794000Y-72390000D03*
X137310726Y-73556726D03*
D12*
X136779000Y-57404000D03*
D13*
X136779000Y-58674000D03*
X136779000Y-59944000D03*
X136779000Y-61214000D03*
X136779000Y-62484000D03*
X136779000Y-63754000D03*
X136779000Y-65024000D03*
D10*
X121030000Y-50292000D03*
X119380000Y-51942000D03*
X118213274Y-49125274D03*
X117730000Y-50292000D03*
X120546726Y-51458726D03*
X118213274Y-51458726D03*
D11*
X119380000Y-50292000D03*
D10*
X120546726Y-49125274D03*
X119380000Y-48642000D03*
D14*
X122412000Y-55681000D03*
D15*
X122412000Y-57461000D03*
X122412000Y-59241000D03*
X122412000Y-61021000D03*
X122412000Y-62801000D03*
X122412000Y-64581000D03*
X122412000Y-66361000D03*
X122412000Y-68141000D03*
X133112000Y-69031000D03*
X133112000Y-67251000D03*
X133112000Y-65471000D03*
X133112000Y-63691000D03*
X133112000Y-61911000D03*
X133112000Y-60131000D03*
X133112000Y-58351000D03*
X133112000Y-56571000D03*
D10*
X136144000Y-51942000D03*
X134494000Y-50292000D03*
X137794000Y-50292000D03*
X137310726Y-51458726D03*
D11*
X136144000Y-50292000D03*
D10*
X136144000Y-48642000D03*
X137310726Y-49125274D03*
X134977274Y-51458726D03*
X134977274Y-49125274D03*
D16*
X129794000Y-71794000D03*
X129794000Y-73494000D03*
D17*
X135802000Y-54864000D03*
X137502000Y-54864000D03*
X130214000Y-50800000D03*
X131914000Y-50800000D03*
D18*
X127846000Y-71694000D03*
X127846000Y-72644000D03*
X127846000Y-73594000D03*
X125646000Y-73594000D03*
X125646000Y-71694000D03*
D19*
X123190000Y-71731500D03*
X123190000Y-73556500D03*
M02*
