M48
;DRILL file {KiCad (5.0.0-rc3-dev)} date Tue Jul  3 21:02:46 2018
;FORMAT={-:-/ absolute / metric / decimal}
FMAT,2
METRIC,TZ
T1C0.330
T2C0.400
T3C0.700
T4C1.000
T5C2.200
%
G90
G05
M71
T1
X118.618Y-62.738
X123.825Y-73.152
X126.111Y-72.771
X133.731Y-71.374
T2
X117.73Y-72.39
X118.213Y-71.223
X118.213Y-73.557
X119.38Y-70.74
X119.38Y-74.04
X120.547Y-71.223
X120.547Y-73.557
X121.03Y-72.39
X137.796Y-49.53
X138.279Y-48.363
X138.279Y-50.697
X139.446Y-47.88
X139.446Y-51.18
X140.613Y-48.363
X140.613Y-50.697
X141.096Y-49.53
X117.73Y-49.53
X118.213Y-48.363
X118.213Y-50.697
X119.38Y-47.88
X119.38Y-51.18
X120.547Y-48.363
X120.547Y-50.697
X121.03Y-49.53
X137.796Y-72.39
X138.279Y-71.223
X138.279Y-73.557
X139.446Y-70.74
X139.446Y-74.04
X140.613Y-71.223
X140.613Y-73.557
X141.096Y-72.39
T3
X122.987Y-53.543
X122.987Y-55.323
X122.987Y-57.103
X122.987Y-58.883
X122.987Y-60.663
X122.987Y-62.443
X122.987Y-64.223
X122.987Y-66.003
X133.687Y-53.543
X133.687Y-55.323
X133.687Y-57.103
X133.687Y-58.883
X133.687Y-60.663
X133.687Y-62.443
X133.687Y-64.223
X133.687Y-66.003
T4
X140.945Y-53.365
X140.945Y-55.905
X140.945Y-58.445
X140.945Y-60.985
X140.945Y-63.525
X140.945Y-66.065
X140.945Y-68.605
T5
X119.38Y-72.39
X139.446Y-49.53
X119.38Y-49.53
X139.446Y-72.39
T0
M30
