G04 #@! TF.GenerationSoftware,KiCad,Pcbnew,(5.99.0-8366-gd64f1b3b25)*
G04 #@! TF.CreationDate,2021-01-13T01:42:34+02:00*
G04 #@! TF.ProjectId,board,626f6172-642e-46b6-9963-61645f706362,1.0.0*
G04 #@! TF.SameCoordinates,Original*
G04 #@! TF.FileFunction,Copper,L1,Top*
G04 #@! TF.FilePolarity,Positive*
%FSLAX46Y46*%
G04 Gerber Fmt 4.6, Leading zero omitted, Abs format (unit mm)*
G04 Created by KiCad (PCBNEW (5.99.0-8366-gd64f1b3b25)) date 2021-01-13 01:42:34*
%MOMM*%
%LPD*%
G01*
G04 APERTURE LIST*
G04 Aperture macros list*
%AMRoundRect*
0 Rectangle with rounded corners*
0 $1 Rounding radius*
0 $2 $3 $4 $5 $6 $7 $8 $9 X,Y pos of 4 corners*
0 Add a 4 corners polygon primitive as box body*
4,1,4,$2,$3,$4,$5,$6,$7,$8,$9,$2,$3,0*
0 Add four circle primitives for the rounded corners*
1,1,$1+$1,$2,$3*
1,1,$1+$1,$4,$5*
1,1,$1+$1,$6,$7*
1,1,$1+$1,$8,$9*
0 Add four rect primitives between the rounded corners*
20,1,$1+$1,$2,$3,$4,$5,0*
20,1,$1+$1,$4,$5,$6,$7,0*
20,1,$1+$1,$6,$7,$8,$9,0*
20,1,$1+$1,$8,$9,$2,$3,0*%
G04 Aperture macros list end*
G04 #@! TA.AperFunction,SMDPad,CuDef*
%ADD10RoundRect,0.250000X-0.325000X-0.450000X0.325000X-0.450000X0.325000X0.450000X-0.325000X0.450000X0*%
G04 #@! TD*
G04 #@! TA.AperFunction,SMDPad,CuDef*
%ADD11RoundRect,0.250000X0.325000X0.450000X-0.325000X0.450000X-0.325000X-0.450000X0.325000X-0.450000X0*%
G04 #@! TD*
G04 #@! TA.AperFunction,SMDPad,CuDef*
%ADD12RoundRect,0.250000X-0.450000X0.325000X-0.450000X-0.325000X0.450000X-0.325000X0.450000X0.325000X0*%
G04 #@! TD*
G04 #@! TA.AperFunction,ComponentPad*
%ADD13C,0.700000*%
G04 #@! TD*
G04 #@! TA.AperFunction,ComponentPad*
%ADD14C,4.400000*%
G04 #@! TD*
G04 #@! TA.AperFunction,ComponentPad*
%ADD15R,1.000000X1.000000*%
G04 #@! TD*
G04 #@! TA.AperFunction,ComponentPad*
%ADD16O,1.000000X1.000000*%
G04 #@! TD*
G04 #@! TA.AperFunction,ComponentPad*
%ADD17R,1.400000X1.400000*%
G04 #@! TD*
G04 #@! TA.AperFunction,ComponentPad*
%ADD18C,1.400000*%
G04 #@! TD*
G04 #@! TA.AperFunction,Conductor*
%ADD19C,0.254000*%
G04 #@! TD*
G04 APERTURE END LIST*
D10*
X135294000Y-54864000D03*
X136994000Y-54864000D03*
D11*
X120484000Y-61087000D03*
X118784000Y-61087000D03*
X120484000Y-58928000D03*
X118784000Y-58928000D03*
D12*
X119634000Y-64682000D03*
X119634000Y-66382000D03*
D10*
X118784000Y-56769000D03*
X120484000Y-56769000D03*
X135294000Y-67564000D03*
X136994000Y-67564000D03*
D13*
X118213274Y-71223274D03*
X119380000Y-74040000D03*
X120546726Y-71223274D03*
X118213274Y-73556726D03*
X117730000Y-72390000D03*
X121030000Y-72390000D03*
D14*
X119380000Y-72390000D03*
D13*
X119380000Y-70740000D03*
X120546726Y-73556726D03*
X136144000Y-74040000D03*
D14*
X136144000Y-72390000D03*
D13*
X136144000Y-70740000D03*
X137310726Y-71223274D03*
X134977274Y-73556726D03*
X134977274Y-71223274D03*
X134494000Y-72390000D03*
X137794000Y-72390000D03*
X137310726Y-73556726D03*
D15*
X136779000Y-57404000D03*
D16*
X136779000Y-58674000D03*
X136779000Y-59944000D03*
X136779000Y-61214000D03*
X136779000Y-62484000D03*
X136779000Y-63754000D03*
X136779000Y-65024000D03*
D13*
X121030000Y-50292000D03*
X119380000Y-51942000D03*
X118213274Y-49125274D03*
X117730000Y-50292000D03*
X120546726Y-51458726D03*
X118213274Y-51458726D03*
D14*
X119380000Y-50292000D03*
D13*
X120546726Y-49125274D03*
X119380000Y-48642000D03*
D17*
X122412000Y-55681000D03*
D18*
X122412000Y-57461000D03*
X122412000Y-59241000D03*
X122412000Y-61021000D03*
X122412000Y-62801000D03*
X122412000Y-64581000D03*
X122412000Y-66361000D03*
X122412000Y-68141000D03*
X133112000Y-69031000D03*
X133112000Y-67251000D03*
X133112000Y-65471000D03*
X133112000Y-63691000D03*
X133112000Y-61911000D03*
X133112000Y-60131000D03*
X133112000Y-58351000D03*
X133112000Y-56571000D03*
D13*
X136144000Y-51942000D03*
X134494000Y-50292000D03*
X137794000Y-50292000D03*
X137310726Y-51458726D03*
D14*
X136144000Y-50292000D03*
D13*
X136144000Y-48642000D03*
X137310726Y-49125274D03*
X134977274Y-51458726D03*
X134977274Y-49125274D03*
D19*
X122412000Y-66361000D02*
X119655000Y-66361000D01*
X119655000Y-66361000D02*
X119634000Y-66382000D01*
X120484000Y-56769000D02*
X120484000Y-58928000D01*
X120484000Y-61087000D02*
X120484000Y-63832000D01*
X122412000Y-59241000D02*
X120797000Y-59241000D01*
X120484000Y-61087000D02*
X120484000Y-58928000D01*
X120797000Y-59241000D02*
X120484000Y-58928000D01*
X120484000Y-63832000D02*
X119634000Y-64682000D01*
X136588500Y-58674000D02*
X135294000Y-59968500D01*
X136779000Y-58674000D02*
X136588500Y-58674000D01*
X135294000Y-59968500D02*
X135294000Y-67564000D01*
X133542000Y-61911000D02*
X133112000Y-61911000D01*
X136525000Y-57404000D02*
X134493000Y-59436000D01*
X135294000Y-54864000D02*
X135294000Y-55919000D01*
X135294000Y-55919000D02*
X136779000Y-57404000D01*
X136779000Y-57404000D02*
X136525000Y-57404000D01*
X134493000Y-60960000D02*
X133542000Y-61911000D01*
X134493000Y-59436000D02*
X134493000Y-60960000D01*
X136779000Y-63754000D02*
X136620250Y-63754000D01*
X136994000Y-54864000D02*
X137795000Y-55665000D01*
X137795000Y-62865000D02*
X136906000Y-63754000D01*
X136620250Y-63754000D02*
X135802020Y-64572230D01*
X136906000Y-63754000D02*
X136779000Y-63754000D01*
X137795000Y-55665000D02*
X137795000Y-62865000D01*
X135802020Y-66372020D02*
X136994000Y-67564000D01*
X135802020Y-64572230D02*
X135802020Y-66372020D01*
G04 #@! TA.AperFunction,Conductor*
G36*
X139134121Y-47264002D02*
G01*
X139180614Y-47317658D01*
X139192000Y-47370000D01*
X139192000Y-75312000D01*
X139171998Y-75380121D01*
X139118342Y-75426614D01*
X139066000Y-75438000D01*
X116458000Y-75438000D01*
X116389879Y-75417998D01*
X116343386Y-75364342D01*
X116332000Y-75312000D01*
X116332000Y-72497282D01*
X116922841Y-72497282D01*
X116956389Y-72808630D01*
X117029227Y-73113192D01*
X117140174Y-73406030D01*
X117287430Y-73682398D01*
X117468610Y-73937814D01*
X117680775Y-74168138D01*
X117920486Y-74369636D01*
X117923860Y-74371806D01*
X117923861Y-74371807D01*
X118180489Y-74536876D01*
X118183858Y-74539043D01*
X118352025Y-74619074D01*
X118462551Y-74671674D01*
X118466621Y-74673611D01*
X118764190Y-74771159D01*
X118768116Y-74771912D01*
X118768122Y-74771913D01*
X118910077Y-74799120D01*
X119071743Y-74830106D01*
X119075742Y-74830354D01*
X119075749Y-74830355D01*
X119380279Y-74849247D01*
X119384293Y-74849496D01*
X119696773Y-74829015D01*
X119700712Y-74828246D01*
X119700718Y-74828245D01*
X120000183Y-74769764D01*
X120000191Y-74769762D01*
X120004118Y-74768995D01*
X120301345Y-74670409D01*
X120583636Y-74534854D01*
X120846415Y-74364530D01*
X121085422Y-74162195D01*
X121211638Y-74024213D01*
X121294070Y-73934097D01*
X121294071Y-73934095D01*
X121296782Y-73931132D01*
X121477068Y-73675085D01*
X121623359Y-73398206D01*
X121733283Y-73104982D01*
X121805057Y-72800168D01*
X121836625Y-72497282D01*
X133686841Y-72497282D01*
X133720389Y-72808630D01*
X133793227Y-73113192D01*
X133904174Y-73406030D01*
X134051430Y-73682398D01*
X134232610Y-73937814D01*
X134444775Y-74168138D01*
X134684486Y-74369636D01*
X134687860Y-74371806D01*
X134687861Y-74371807D01*
X134944489Y-74536876D01*
X134947858Y-74539043D01*
X135116025Y-74619074D01*
X135226551Y-74671674D01*
X135230621Y-74673611D01*
X135528190Y-74771159D01*
X135532116Y-74771912D01*
X135532122Y-74771913D01*
X135674077Y-74799120D01*
X135835743Y-74830106D01*
X135839742Y-74830354D01*
X135839749Y-74830355D01*
X136144279Y-74849247D01*
X136148293Y-74849496D01*
X136460773Y-74829015D01*
X136464712Y-74828246D01*
X136464718Y-74828245D01*
X136764183Y-74769764D01*
X136764191Y-74769762D01*
X136768118Y-74768995D01*
X137065345Y-74670409D01*
X137347636Y-74534854D01*
X137610415Y-74364530D01*
X137849422Y-74162195D01*
X137975638Y-74024213D01*
X138058070Y-73934097D01*
X138058071Y-73934095D01*
X138060782Y-73931132D01*
X138241068Y-73675085D01*
X138387359Y-73398206D01*
X138497283Y-73104982D01*
X138569057Y-72800168D01*
X138601519Y-72488704D01*
X138603500Y-72390000D01*
X138590371Y-72184194D01*
X138583820Y-72081494D01*
X138583819Y-72081490D01*
X138583564Y-72077485D01*
X138524081Y-71770035D01*
X138426013Y-71472637D01*
X138338030Y-71288589D01*
X138292688Y-71193740D01*
X138292686Y-71193737D01*
X138290952Y-71190109D01*
X138179916Y-71018144D01*
X138123260Y-70930399D01*
X138123255Y-70930393D01*
X138121086Y-70927033D01*
X137919169Y-70687674D01*
X137766954Y-70547950D01*
X137691433Y-70478626D01*
X137691431Y-70478624D01*
X137688475Y-70475911D01*
X137432743Y-70295178D01*
X137156120Y-70148404D01*
X137152363Y-70146988D01*
X136866849Y-70039385D01*
X136866843Y-70039383D01*
X136863088Y-70037968D01*
X136801710Y-70023402D01*
X136562316Y-69966591D01*
X136562311Y-69966590D01*
X136558400Y-69965662D01*
X136246993Y-69932657D01*
X136242992Y-69932744D01*
X136242985Y-69932744D01*
X135937934Y-69939401D01*
X135937929Y-69939401D01*
X135933917Y-69939489D01*
X135929946Y-69940086D01*
X135628217Y-69985449D01*
X135628215Y-69985449D01*
X135624247Y-69986046D01*
X135620389Y-69987141D01*
X135620386Y-69987142D01*
X135613828Y-69989004D01*
X135323002Y-70071573D01*
X135035067Y-70194685D01*
X135031613Y-70196715D01*
X135031606Y-70196719D01*
X134878396Y-70286787D01*
X134765108Y-70353386D01*
X134517503Y-70545102D01*
X134296266Y-70766726D01*
X134293812Y-70769907D01*
X134293811Y-70769908D01*
X134172590Y-70927033D01*
X134104982Y-71014665D01*
X134102945Y-71018144D01*
X134004232Y-71186734D01*
X133946753Y-71284900D01*
X133824144Y-71573050D01*
X133739142Y-71874443D01*
X133693126Y-72184194D01*
X133693046Y-72188203D01*
X133693045Y-72188209D01*
X133688942Y-72392639D01*
X133686841Y-72497282D01*
X121836625Y-72497282D01*
X121837519Y-72488704D01*
X121839500Y-72390000D01*
X121826371Y-72184194D01*
X121819820Y-72081494D01*
X121819819Y-72081490D01*
X121819564Y-72077485D01*
X121760081Y-71770035D01*
X121662013Y-71472637D01*
X121574030Y-71288589D01*
X121528688Y-71193740D01*
X121528686Y-71193737D01*
X121526952Y-71190109D01*
X121415916Y-71018144D01*
X121359260Y-70930399D01*
X121359255Y-70930393D01*
X121357086Y-70927033D01*
X121155169Y-70687674D01*
X121002954Y-70547950D01*
X120927433Y-70478626D01*
X120927431Y-70478624D01*
X120924475Y-70475911D01*
X120668743Y-70295178D01*
X120392120Y-70148404D01*
X120388363Y-70146988D01*
X120102849Y-70039385D01*
X120102843Y-70039383D01*
X120099088Y-70037968D01*
X120037710Y-70023402D01*
X119798316Y-69966591D01*
X119798311Y-69966590D01*
X119794400Y-69965662D01*
X119482993Y-69932657D01*
X119478992Y-69932744D01*
X119478985Y-69932744D01*
X119173934Y-69939401D01*
X119173929Y-69939401D01*
X119169917Y-69939489D01*
X119165946Y-69940086D01*
X118864217Y-69985449D01*
X118864215Y-69985449D01*
X118860247Y-69986046D01*
X118856389Y-69987141D01*
X118856386Y-69987142D01*
X118849828Y-69989004D01*
X118559002Y-70071573D01*
X118271067Y-70194685D01*
X118267613Y-70196715D01*
X118267606Y-70196719D01*
X118114396Y-70286787D01*
X118001108Y-70353386D01*
X117753503Y-70545102D01*
X117532266Y-70766726D01*
X117529812Y-70769907D01*
X117529811Y-70769908D01*
X117408590Y-70927033D01*
X117340982Y-71014665D01*
X117338945Y-71018144D01*
X117240232Y-71186734D01*
X117182753Y-71284900D01*
X117060144Y-71573050D01*
X116975142Y-71874443D01*
X116929126Y-72184194D01*
X116929046Y-72188203D01*
X116929045Y-72188209D01*
X116924942Y-72392639D01*
X116922841Y-72497282D01*
X116332000Y-72497282D01*
X116332000Y-68211559D01*
X121201541Y-68211559D01*
X121202243Y-68222711D01*
X121233165Y-68424795D01*
X121235831Y-68435648D01*
X121302050Y-68629060D01*
X121306601Y-68639280D01*
X121386435Y-68782714D01*
X121396487Y-68792605D01*
X121404091Y-68789699D01*
X122039978Y-68153812D01*
X122047592Y-68139868D01*
X122047461Y-68138035D01*
X122043210Y-68131420D01*
X121409897Y-67498107D01*
X121397517Y-67491347D01*
X121389545Y-67497315D01*
X121334194Y-67585551D01*
X121329114Y-67595521D01*
X121252864Y-67785198D01*
X121249633Y-67795898D01*
X121208177Y-67996084D01*
X121206892Y-68007191D01*
X121201541Y-68211559D01*
X116332000Y-68211559D01*
X116332000Y-64289712D01*
X118679500Y-64289712D01*
X118679500Y-65041914D01*
X118694979Y-65150000D01*
X118698696Y-65158176D01*
X118698697Y-65158178D01*
X118716586Y-65197522D01*
X118754771Y-65281504D01*
X118849067Y-65390941D01*
X118899951Y-65423922D01*
X118946232Y-65477755D01*
X118956063Y-65548068D01*
X118926319Y-65612533D01*
X118909125Y-65627341D01*
X118909496Y-65627771D01*
X118800059Y-65722067D01*
X118721487Y-65843289D01*
X118680096Y-65981691D01*
X118679500Y-65989712D01*
X118679500Y-66741914D01*
X118683982Y-66773208D01*
X118693475Y-66839496D01*
X118694979Y-66850000D01*
X118698696Y-66858176D01*
X118698697Y-66858178D01*
X118714417Y-66892751D01*
X118754771Y-66981504D01*
X118849067Y-67090941D01*
X118970289Y-67169513D01*
X119011565Y-67181857D01*
X119102150Y-67208948D01*
X119102152Y-67208948D01*
X119108691Y-67210904D01*
X119116712Y-67211500D01*
X120118914Y-67211500D01*
X120161403Y-67205415D01*
X120218107Y-67197295D01*
X120218110Y-67197294D01*
X120227000Y-67196021D01*
X120235176Y-67192304D01*
X120235178Y-67192303D01*
X120285301Y-67169513D01*
X120358504Y-67136229D01*
X120467941Y-67041933D01*
X120546513Y-66920711D01*
X120572924Y-66832397D01*
X120611605Y-66772865D01*
X120676333Y-66743694D01*
X120693641Y-66742500D01*
X121453513Y-66742500D01*
X121521634Y-66762502D01*
X121563952Y-66812688D01*
X121565615Y-66811774D01*
X121568689Y-66817366D01*
X121571184Y-66823243D01*
X121681304Y-66982871D01*
X121685908Y-66987286D01*
X121720371Y-67020335D01*
X121755694Y-67081921D01*
X121758938Y-67118776D01*
X121758713Y-67122555D01*
X121766094Y-67135884D01*
X122682115Y-68051905D01*
X122716141Y-68114217D01*
X122711076Y-68185032D01*
X122682115Y-68230095D01*
X121768300Y-69143910D01*
X121761540Y-69156290D01*
X121766821Y-69163344D01*
X121890683Y-69235723D01*
X121900801Y-69240484D01*
X122092788Y-69310742D01*
X122103573Y-69313632D01*
X122304975Y-69348782D01*
X122316109Y-69349717D01*
X122520538Y-69348646D01*
X122531673Y-69347594D01*
X122732680Y-69310339D01*
X122743451Y-69307332D01*
X122934689Y-69235069D01*
X122944749Y-69230206D01*
X123120173Y-69125217D01*
X123129209Y-69118653D01*
X123153171Y-69097749D01*
X123217653Y-69068041D01*
X123287960Y-69077911D01*
X123341770Y-69124225D01*
X123362000Y-69192698D01*
X123362000Y-70176388D01*
X123362139Y-70176816D01*
X123362139Y-70193447D01*
X123371914Y-70206901D01*
X123371579Y-70207144D01*
X123372169Y-70207685D01*
X123377053Y-70222717D01*
X123389339Y-70231643D01*
X123389340Y-70231644D01*
X123390508Y-70232492D01*
X123390265Y-70232827D01*
X123390993Y-70233160D01*
X123400283Y-70245947D01*
X123414726Y-70250640D01*
X123416099Y-70251086D01*
X123415972Y-70251477D01*
X123416762Y-70251568D01*
X123429553Y-70260861D01*
X123445734Y-70260861D01*
X123446328Y-70260908D01*
X123446612Y-70261000D01*
X132077388Y-70261000D01*
X132077816Y-70260861D01*
X132094447Y-70260861D01*
X132107901Y-70251086D01*
X132108144Y-70251421D01*
X132108685Y-70250831D01*
X132123717Y-70245947D01*
X132132643Y-70233661D01*
X132132644Y-70233660D01*
X132133492Y-70232492D01*
X132133827Y-70232735D01*
X132134160Y-70232007D01*
X132146947Y-70222717D01*
X132152086Y-70206901D01*
X132152477Y-70207028D01*
X132152568Y-70206238D01*
X132161861Y-70193447D01*
X132161861Y-70177266D01*
X132161908Y-70176672D01*
X132162000Y-70176388D01*
X132162000Y-69736652D01*
X132182002Y-69668531D01*
X132235658Y-69622038D01*
X132305932Y-69611934D01*
X132370512Y-69641428D01*
X132380045Y-69651046D01*
X132381304Y-69652871D01*
X132521273Y-69787096D01*
X132592272Y-69831806D01*
X132679965Y-69887030D01*
X132679969Y-69887032D01*
X132685373Y-69890435D01*
X132866900Y-69958667D01*
X132873204Y-69959665D01*
X132873206Y-69959666D01*
X132962669Y-69973835D01*
X133058439Y-69989004D01*
X133252167Y-69980207D01*
X133258352Y-69978642D01*
X133433980Y-69934201D01*
X133433982Y-69934200D01*
X133440168Y-69932635D01*
X133527463Y-69890435D01*
X133609016Y-69851011D01*
X133609018Y-69851010D01*
X133614764Y-69848232D01*
X133619833Y-69844356D01*
X133619837Y-69844354D01*
X133709307Y-69775949D01*
X133768823Y-69730445D01*
X133846205Y-69641428D01*
X133891863Y-69588905D01*
X133891864Y-69588903D01*
X133896051Y-69584087D01*
X133991250Y-69415135D01*
X134050533Y-69230491D01*
X134071477Y-69037699D01*
X134071500Y-69031000D01*
X134051902Y-68838066D01*
X133993910Y-68653013D01*
X133899893Y-68483400D01*
X133773690Y-68336157D01*
X133650131Y-68240314D01*
X133608564Y-68182758D01*
X133604713Y-68111866D01*
X133639801Y-68050146D01*
X133650828Y-68040659D01*
X133694602Y-68007191D01*
X133768823Y-67950445D01*
X133846205Y-67861428D01*
X133891863Y-67808905D01*
X133891864Y-67808903D01*
X133896051Y-67804087D01*
X133991250Y-67635135D01*
X134050533Y-67450491D01*
X134071477Y-67257699D01*
X134071500Y-67251000D01*
X134067229Y-67208948D01*
X134052547Y-67064415D01*
X134052547Y-67064414D01*
X134051902Y-67058066D01*
X133993910Y-66873013D01*
X133899893Y-66703400D01*
X133773690Y-66556157D01*
X133650131Y-66460314D01*
X133608564Y-66402758D01*
X133604713Y-66331866D01*
X133639801Y-66270146D01*
X133650828Y-66260659D01*
X133690283Y-66230493D01*
X133768823Y-66170445D01*
X133846205Y-66081428D01*
X133891863Y-66028905D01*
X133891864Y-66028903D01*
X133896051Y-66024087D01*
X133991250Y-65855135D01*
X134050533Y-65670491D01*
X134071477Y-65477699D01*
X134071500Y-65471000D01*
X134066056Y-65417400D01*
X134052547Y-65284415D01*
X134052547Y-65284414D01*
X134051902Y-65278066D01*
X133993910Y-65093013D01*
X133899893Y-64923400D01*
X133773690Y-64776157D01*
X133650131Y-64680314D01*
X133608564Y-64622758D01*
X133604713Y-64551866D01*
X133639801Y-64490146D01*
X133650828Y-64480659D01*
X133690283Y-64450493D01*
X133768823Y-64390445D01*
X133860473Y-64285015D01*
X133891863Y-64248905D01*
X133891864Y-64248903D01*
X133896051Y-64244087D01*
X133991250Y-64075135D01*
X134050533Y-63890491D01*
X134071477Y-63697699D01*
X134071500Y-63691000D01*
X134068486Y-63661322D01*
X134052547Y-63504415D01*
X134052547Y-63504414D01*
X134051902Y-63498066D01*
X133993910Y-63313013D01*
X133899893Y-63143400D01*
X133773690Y-62996157D01*
X133650131Y-62900314D01*
X133608564Y-62842758D01*
X133604713Y-62771866D01*
X133639801Y-62710146D01*
X133650828Y-62700659D01*
X133690283Y-62670493D01*
X133768823Y-62610445D01*
X133860473Y-62505015D01*
X133891863Y-62468905D01*
X133891864Y-62468903D01*
X133896051Y-62464087D01*
X133991250Y-62295135D01*
X134050533Y-62110491D01*
X134066277Y-61965565D01*
X134093519Y-61900003D01*
X134102445Y-61890078D01*
X134697405Y-61295118D01*
X134759717Y-61261092D01*
X134830532Y-61266157D01*
X134887368Y-61308704D01*
X134912179Y-61375224D01*
X134912500Y-61384213D01*
X134912500Y-66506579D01*
X134892498Y-66574700D01*
X134838842Y-66621193D01*
X134830346Y-66624357D01*
X134826000Y-66624979D01*
X134694496Y-66684771D01*
X134585059Y-66779067D01*
X134506487Y-66900289D01*
X134483299Y-66977825D01*
X134470586Y-67020335D01*
X134465096Y-67038691D01*
X134464500Y-67046712D01*
X134464500Y-68048914D01*
X134469136Y-68081288D01*
X134477526Y-68139868D01*
X134479979Y-68157000D01*
X134483696Y-68165176D01*
X134483697Y-68165178D01*
X134504589Y-68211126D01*
X134539771Y-68288504D01*
X134634067Y-68397941D01*
X134755289Y-68476513D01*
X134831494Y-68499303D01*
X134887150Y-68515948D01*
X134887152Y-68515948D01*
X134893691Y-68517904D01*
X134901712Y-68518500D01*
X135653914Y-68518500D01*
X135696403Y-68512415D01*
X135753107Y-68504295D01*
X135753110Y-68504294D01*
X135762000Y-68503021D01*
X135770176Y-68499304D01*
X135770178Y-68499303D01*
X135820301Y-68476513D01*
X135893504Y-68443229D01*
X136002941Y-68348933D01*
X136035922Y-68298049D01*
X136089755Y-68251768D01*
X136160068Y-68241937D01*
X136224533Y-68271681D01*
X136239341Y-68288875D01*
X136239771Y-68288504D01*
X136334067Y-68397941D01*
X136455289Y-68476513D01*
X136531494Y-68499303D01*
X136587150Y-68515948D01*
X136587152Y-68515948D01*
X136593691Y-68517904D01*
X136601712Y-68518500D01*
X137353914Y-68518500D01*
X137396403Y-68512415D01*
X137453107Y-68504295D01*
X137453110Y-68504294D01*
X137462000Y-68503021D01*
X137470176Y-68499304D01*
X137470178Y-68499303D01*
X137520301Y-68476513D01*
X137593504Y-68443229D01*
X137702941Y-68348933D01*
X137781513Y-68227711D01*
X137822904Y-68089309D01*
X137823500Y-68081288D01*
X137823500Y-67079086D01*
X137811403Y-66994613D01*
X137809295Y-66979893D01*
X137809294Y-66979890D01*
X137808021Y-66971000D01*
X137748229Y-66839496D01*
X137738754Y-66828499D01*
X137698954Y-66782309D01*
X137653933Y-66730059D01*
X137532711Y-66651487D01*
X137426279Y-66619657D01*
X137400850Y-66612052D01*
X137400848Y-66612052D01*
X137394309Y-66610096D01*
X137386288Y-66609500D01*
X136634086Y-66609500D01*
X136634086Y-66608007D01*
X136570985Y-66594260D01*
X136542308Y-66572786D01*
X136220424Y-66250901D01*
X136186399Y-66188589D01*
X136183520Y-66161806D01*
X136183520Y-66060890D01*
X136203522Y-65992769D01*
X136257178Y-65946276D01*
X136327452Y-65936172D01*
X136361963Y-65947850D01*
X136362421Y-65946802D01*
X136379306Y-65954179D01*
X136507769Y-65995919D01*
X136521867Y-65996322D01*
X136525000Y-65989950D01*
X136525000Y-65291548D01*
X137033000Y-65291548D01*
X137033000Y-65981691D01*
X137036973Y-65995222D01*
X137045188Y-65996403D01*
X137139390Y-65970101D01*
X137150823Y-65965667D01*
X137316293Y-65882082D01*
X137326652Y-65875508D01*
X137472729Y-65761380D01*
X137481611Y-65752922D01*
X137602739Y-65612594D01*
X137609813Y-65602566D01*
X137701377Y-65441385D01*
X137706367Y-65430176D01*
X137751272Y-65295187D01*
X137751773Y-65281096D01*
X137745585Y-65278000D01*
X137051115Y-65278000D01*
X137035876Y-65282475D01*
X137034671Y-65283865D01*
X137033000Y-65291548D01*
X136525000Y-65291548D01*
X136525000Y-64896000D01*
X136545002Y-64827879D01*
X136598658Y-64781386D01*
X136651000Y-64770000D01*
X137737311Y-64770000D01*
X137750842Y-64766027D01*
X137751934Y-64758433D01*
X137717345Y-64643871D01*
X137712672Y-64632536D01*
X137625643Y-64468856D01*
X137618856Y-64458640D01*
X137501684Y-64314975D01*
X137493055Y-64306285D01*
X137467869Y-64285449D01*
X137428131Y-64226615D01*
X137426509Y-64155637D01*
X137443911Y-64117633D01*
X137448575Y-64110757D01*
X137452685Y-64104698D01*
X137463945Y-64075135D01*
X137502184Y-63974732D01*
X137515294Y-63940311D01*
X137521998Y-63889733D01*
X137537894Y-63769794D01*
X137537894Y-63769792D01*
X137538406Y-63765930D01*
X137538500Y-63754000D01*
X137535853Y-63731299D01*
X137547831Y-63661322D01*
X137571910Y-63627613D01*
X138027393Y-63172130D01*
X138043566Y-63159068D01*
X138046371Y-63156515D01*
X138055119Y-63150867D01*
X138061564Y-63142692D01*
X138061566Y-63142690D01*
X138074596Y-63126161D01*
X138079010Y-63121194D01*
X138078969Y-63121159D01*
X138082328Y-63117195D01*
X138086003Y-63113520D01*
X138091159Y-63106306D01*
X138098242Y-63096394D01*
X138101805Y-63091648D01*
X138127246Y-63059377D01*
X138127248Y-63059374D01*
X138133693Y-63051198D01*
X138136741Y-63042518D01*
X138142088Y-63035036D01*
X138156845Y-62985692D01*
X138158680Y-62980044D01*
X138173119Y-62938930D01*
X138173120Y-62938926D01*
X138175745Y-62931451D01*
X138176500Y-62922733D01*
X138176500Y-62919992D01*
X138176501Y-62919967D01*
X138178453Y-62913441D01*
X138176597Y-62866205D01*
X138176500Y-62861259D01*
X138176500Y-55717845D01*
X138178700Y-55697172D01*
X138178878Y-55693387D01*
X138181070Y-55683207D01*
X138177373Y-55651968D01*
X138176982Y-55645337D01*
X138176928Y-55645341D01*
X138176500Y-55640165D01*
X138176500Y-55634960D01*
X138173046Y-55614206D01*
X138172209Y-55608330D01*
X138167378Y-55567510D01*
X138167378Y-55567509D01*
X138166154Y-55557170D01*
X138162172Y-55548877D01*
X138160662Y-55539806D01*
X138155719Y-55530645D01*
X138155718Y-55530642D01*
X138136202Y-55494474D01*
X138133525Y-55489221D01*
X138111215Y-55442761D01*
X138105585Y-55436062D01*
X138103649Y-55434126D01*
X138103629Y-55434104D01*
X138100395Y-55428111D01*
X138065678Y-55396019D01*
X138062113Y-55392590D01*
X137860405Y-55190882D01*
X137826379Y-55128570D01*
X137823500Y-55101787D01*
X137823500Y-54379086D01*
X137808021Y-54271000D01*
X137748229Y-54139496D01*
X137653933Y-54030059D01*
X137532711Y-53951487D01*
X137435793Y-53922502D01*
X137400850Y-53912052D01*
X137400848Y-53912052D01*
X137394309Y-53910096D01*
X137386288Y-53909500D01*
X136634086Y-53909500D01*
X136591597Y-53915585D01*
X136534893Y-53923705D01*
X136534890Y-53923706D01*
X136526000Y-53924979D01*
X136517824Y-53928696D01*
X136517822Y-53928697D01*
X136473358Y-53948914D01*
X136394496Y-53984771D01*
X136285059Y-54079067D01*
X136252078Y-54129951D01*
X136198245Y-54176232D01*
X136127932Y-54186063D01*
X136063467Y-54156319D01*
X136048659Y-54139125D01*
X136048229Y-54139496D01*
X136002648Y-54086596D01*
X135953933Y-54030059D01*
X135832711Y-53951487D01*
X135735793Y-53922502D01*
X135700850Y-53912052D01*
X135700848Y-53912052D01*
X135694309Y-53910096D01*
X135686288Y-53909500D01*
X134934086Y-53909500D01*
X134891597Y-53915585D01*
X134834893Y-53923705D01*
X134834890Y-53923706D01*
X134826000Y-53924979D01*
X134817824Y-53928696D01*
X134817822Y-53928697D01*
X134773358Y-53948914D01*
X134694496Y-53984771D01*
X134585059Y-54079067D01*
X134506487Y-54200289D01*
X134465096Y-54338691D01*
X134464500Y-54346712D01*
X134464500Y-55348914D01*
X134465136Y-55353353D01*
X134477940Y-55442761D01*
X134479979Y-55457000D01*
X134483696Y-55465176D01*
X134483697Y-55465178D01*
X134504589Y-55511126D01*
X134539771Y-55588504D01*
X134634067Y-55697941D01*
X134755289Y-55776513D01*
X134818985Y-55795562D01*
X134878518Y-55834243D01*
X134908010Y-55901470D01*
X134911627Y-55932031D01*
X134912018Y-55938663D01*
X134912072Y-55938659D01*
X134912500Y-55943835D01*
X134912500Y-55949040D01*
X134913355Y-55954176D01*
X134915954Y-55969794D01*
X134916791Y-55975670D01*
X134922846Y-56026830D01*
X134926828Y-56035123D01*
X134928338Y-56044194D01*
X134933281Y-56053355D01*
X134933282Y-56053358D01*
X134952798Y-56089526D01*
X134955475Y-56094779D01*
X134977785Y-56141239D01*
X134983415Y-56147938D01*
X134985351Y-56149874D01*
X134985371Y-56149896D01*
X134988605Y-56155889D01*
X135022720Y-56187424D01*
X135023321Y-56187980D01*
X135026887Y-56191410D01*
X135982595Y-57147118D01*
X136016621Y-57209430D01*
X136019500Y-57236213D01*
X136019500Y-57317787D01*
X135999498Y-57385908D01*
X135982595Y-57406882D01*
X134260607Y-59128870D01*
X134244434Y-59141932D01*
X134241629Y-59144485D01*
X134232881Y-59150133D01*
X134226436Y-59158308D01*
X134226434Y-59158310D01*
X134213404Y-59174839D01*
X134208991Y-59179805D01*
X134209032Y-59179840D01*
X134205674Y-59183803D01*
X134201997Y-59187480D01*
X134189742Y-59204630D01*
X134186203Y-59209343D01*
X134154307Y-59249802D01*
X134151260Y-59258480D01*
X134145912Y-59265963D01*
X134142928Y-59275941D01*
X134142926Y-59275945D01*
X134131155Y-59315306D01*
X134129320Y-59320954D01*
X134119864Y-59347882D01*
X134112255Y-59369549D01*
X134111500Y-59378267D01*
X134111500Y-59381008D01*
X134111499Y-59381032D01*
X134109547Y-59387559D01*
X134109956Y-59397965D01*
X134111403Y-59434794D01*
X134111500Y-59439741D01*
X134111500Y-59489664D01*
X134091498Y-59557785D01*
X134037842Y-59604278D01*
X133967568Y-59614382D01*
X133902988Y-59584888D01*
X133889832Y-59571662D01*
X133868099Y-59546306D01*
X133773690Y-59436157D01*
X133650131Y-59340314D01*
X133608564Y-59282758D01*
X133604713Y-59211866D01*
X133639801Y-59150146D01*
X133650828Y-59140659D01*
X133690283Y-59110493D01*
X133768823Y-59050445D01*
X133846205Y-58961428D01*
X133891863Y-58908905D01*
X133891864Y-58908903D01*
X133896051Y-58904087D01*
X133991250Y-58735135D01*
X134050533Y-58550491D01*
X134071477Y-58357699D01*
X134071500Y-58351000D01*
X134070048Y-58336700D01*
X134052547Y-58164415D01*
X134052547Y-58164414D01*
X134051902Y-58158066D01*
X133993910Y-57973013D01*
X133899893Y-57803400D01*
X133773690Y-57656157D01*
X133650131Y-57560314D01*
X133608564Y-57502758D01*
X133604713Y-57431866D01*
X133639801Y-57370146D01*
X133650828Y-57360659D01*
X133690283Y-57330493D01*
X133768823Y-57270445D01*
X133855378Y-57170876D01*
X133891863Y-57128905D01*
X133891864Y-57128903D01*
X133896051Y-57124087D01*
X133991250Y-56955135D01*
X134050533Y-56770491D01*
X134071477Y-56577699D01*
X134071500Y-56571000D01*
X134070501Y-56561160D01*
X134052547Y-56384415D01*
X134052547Y-56384414D01*
X134051902Y-56378066D01*
X133993910Y-56193013D01*
X133899893Y-56023400D01*
X133773690Y-55876157D01*
X133620458Y-55757298D01*
X133446455Y-55671678D01*
X133440277Y-55670069D01*
X133440275Y-55670068D01*
X133264972Y-55624405D01*
X133264969Y-55624405D01*
X133258790Y-55622795D01*
X133175491Y-55618430D01*
X133071510Y-55612980D01*
X133071506Y-55612980D01*
X133065129Y-55612646D01*
X132951541Y-55629824D01*
X132879696Y-55640689D01*
X132879695Y-55640689D01*
X132873382Y-55641644D01*
X132867393Y-55643847D01*
X132867391Y-55643848D01*
X132796128Y-55670068D01*
X132691383Y-55708607D01*
X132526566Y-55810798D01*
X132385663Y-55944043D01*
X132382906Y-55947980D01*
X132323729Y-55986170D01*
X132252732Y-55986306D01*
X132192933Y-55948036D01*
X132163317Y-55883512D01*
X132162000Y-55865342D01*
X132162000Y-52885612D01*
X132161861Y-52885184D01*
X132161861Y-52868553D01*
X132152086Y-52855099D01*
X132152421Y-52854856D01*
X132151831Y-52854315D01*
X132146947Y-52839283D01*
X132134661Y-52830357D01*
X132134660Y-52830356D01*
X132133492Y-52829508D01*
X132133735Y-52829173D01*
X132133007Y-52828840D01*
X132123717Y-52816053D01*
X132107901Y-52810914D01*
X132108028Y-52810523D01*
X132107238Y-52810432D01*
X132094447Y-52801139D01*
X132078266Y-52801139D01*
X132077672Y-52801092D01*
X132077388Y-52801000D01*
X123446612Y-52801000D01*
X123446184Y-52801139D01*
X123429553Y-52801139D01*
X123416099Y-52810914D01*
X123415856Y-52810579D01*
X123415315Y-52811169D01*
X123400283Y-52816053D01*
X123391357Y-52828339D01*
X123391356Y-52828340D01*
X123390508Y-52829508D01*
X123390173Y-52829265D01*
X123389840Y-52829993D01*
X123377053Y-52839283D01*
X123371914Y-52855099D01*
X123371523Y-52854972D01*
X123371432Y-52855762D01*
X123362139Y-52868553D01*
X123362139Y-52884734D01*
X123362092Y-52885328D01*
X123362000Y-52885612D01*
X123362000Y-54617721D01*
X123341998Y-54685842D01*
X123288342Y-54732335D01*
X123218068Y-54742439D01*
X123211433Y-54740613D01*
X123211306Y-54741253D01*
X123118068Y-54722707D01*
X123112000Y-54721500D01*
X121712000Y-54721500D01*
X121612694Y-54741253D01*
X121528506Y-54797506D01*
X121472253Y-54881694D01*
X121452500Y-54981000D01*
X121452500Y-55953913D01*
X121432498Y-56022034D01*
X121378842Y-56068527D01*
X121308568Y-56078631D01*
X121243988Y-56049137D01*
X121231046Y-56036160D01*
X121230153Y-56035123D01*
X121143933Y-55935059D01*
X121022711Y-55856487D01*
X120910815Y-55823023D01*
X120890850Y-55817052D01*
X120890848Y-55817052D01*
X120884309Y-55815096D01*
X120876288Y-55814500D01*
X120124086Y-55814500D01*
X120081597Y-55820585D01*
X120024893Y-55828705D01*
X120024890Y-55828706D01*
X120016000Y-55829979D01*
X120007824Y-55833696D01*
X120007822Y-55833697D01*
X119963358Y-55853914D01*
X119884496Y-55889771D01*
X119881531Y-55892326D01*
X119815813Y-55911464D01*
X119747737Y-55891311D01*
X119710720Y-55854548D01*
X119698357Y-55835691D01*
X119689035Y-55824542D01*
X119571371Y-55713078D01*
X119559724Y-55704365D01*
X119419571Y-55622957D01*
X119406246Y-55617163D01*
X119250300Y-55569932D01*
X119237677Y-55567484D01*
X119167816Y-55561249D01*
X119162221Y-55561000D01*
X119056115Y-55561000D01*
X119040876Y-55565475D01*
X119039671Y-55566865D01*
X119038000Y-55574548D01*
X119038000Y-62276885D01*
X119042475Y-62292124D01*
X119043865Y-62293329D01*
X119051548Y-62295000D01*
X119148223Y-62295000D01*
X119155524Y-62294576D01*
X119277255Y-62280383D01*
X119291410Y-62277037D01*
X119443761Y-62221737D01*
X119456760Y-62215227D01*
X119592306Y-62126359D01*
X119603458Y-62117035D01*
X119714922Y-61999371D01*
X119719507Y-61993242D01*
X119776328Y-61950676D01*
X119847142Y-61945587D01*
X119888933Y-61962985D01*
X119893938Y-61966229D01*
X119945289Y-61999513D01*
X119953891Y-62002085D01*
X119953894Y-62002087D01*
X120012602Y-62019644D01*
X120072136Y-62058326D01*
X120101306Y-62123053D01*
X120102500Y-62140361D01*
X120102500Y-63621787D01*
X120082498Y-63689908D01*
X120065595Y-63710882D01*
X119960882Y-63815595D01*
X119898570Y-63849621D01*
X119871787Y-63852500D01*
X119149086Y-63852500D01*
X119106597Y-63858585D01*
X119049893Y-63866705D01*
X119049890Y-63866706D01*
X119041000Y-63867979D01*
X119032824Y-63871696D01*
X119032822Y-63871697D01*
X119003604Y-63884982D01*
X118909496Y-63927771D01*
X118800059Y-64022067D01*
X118721487Y-64143289D01*
X118680096Y-64281691D01*
X118679500Y-64289712D01*
X116332000Y-64289712D01*
X116332000Y-61354548D01*
X117701000Y-61354548D01*
X117701000Y-61576223D01*
X117701424Y-61583524D01*
X117715617Y-61705255D01*
X117718963Y-61719410D01*
X117774263Y-61871761D01*
X117780773Y-61884760D01*
X117869641Y-62020306D01*
X117878965Y-62031458D01*
X117996629Y-62142922D01*
X118008276Y-62151635D01*
X118148429Y-62233043D01*
X118161754Y-62238837D01*
X118317700Y-62286068D01*
X118330323Y-62288516D01*
X118400184Y-62294751D01*
X118405779Y-62295000D01*
X118511885Y-62295000D01*
X118527124Y-62290525D01*
X118528329Y-62289135D01*
X118530000Y-62281452D01*
X118530000Y-61359115D01*
X118525525Y-61343876D01*
X118524135Y-61342671D01*
X118516452Y-61341000D01*
X117719115Y-61341000D01*
X117703876Y-61345475D01*
X117702671Y-61346865D01*
X117701000Y-61354548D01*
X116332000Y-61354548D01*
X116332000Y-59195548D01*
X117701000Y-59195548D01*
X117701000Y-59417223D01*
X117701424Y-59424524D01*
X117715617Y-59546255D01*
X117718963Y-59560410D01*
X117774263Y-59712761D01*
X117780773Y-59725760D01*
X117869641Y-59861306D01*
X117878968Y-59872462D01*
X117924712Y-59915795D01*
X117960411Y-59977164D01*
X117957264Y-60048090D01*
X117929533Y-60093921D01*
X117853078Y-60174629D01*
X117844365Y-60186276D01*
X117762957Y-60326429D01*
X117757163Y-60339754D01*
X117709932Y-60495700D01*
X117707484Y-60508323D01*
X117701249Y-60578184D01*
X117701000Y-60583779D01*
X117701000Y-60814885D01*
X117705475Y-60830124D01*
X117706865Y-60831329D01*
X117714548Y-60833000D01*
X118511885Y-60833000D01*
X118527124Y-60828525D01*
X118528329Y-60827135D01*
X118530000Y-60819452D01*
X118530000Y-59200115D01*
X118525525Y-59184876D01*
X118524135Y-59183671D01*
X118516452Y-59182000D01*
X117719115Y-59182000D01*
X117703876Y-59186475D01*
X117702671Y-59187865D01*
X117701000Y-59195548D01*
X116332000Y-59195548D01*
X116332000Y-57036548D01*
X117701000Y-57036548D01*
X117701000Y-57258223D01*
X117701424Y-57265524D01*
X117715617Y-57387255D01*
X117718963Y-57401410D01*
X117774263Y-57553761D01*
X117780773Y-57566760D01*
X117869641Y-57702306D01*
X117878968Y-57713462D01*
X117924712Y-57756795D01*
X117960411Y-57818164D01*
X117957264Y-57889090D01*
X117929533Y-57934921D01*
X117853078Y-58015629D01*
X117844365Y-58027276D01*
X117762957Y-58167429D01*
X117757163Y-58180754D01*
X117709932Y-58336700D01*
X117707484Y-58349323D01*
X117701249Y-58419184D01*
X117701000Y-58424779D01*
X117701000Y-58655885D01*
X117705475Y-58671124D01*
X117706865Y-58672329D01*
X117714548Y-58674000D01*
X118511885Y-58674000D01*
X118527124Y-58669525D01*
X118528329Y-58668135D01*
X118530000Y-58660452D01*
X118530000Y-57041115D01*
X118525525Y-57025876D01*
X118524135Y-57024671D01*
X118516452Y-57023000D01*
X117719115Y-57023000D01*
X117703876Y-57027475D01*
X117702671Y-57028865D01*
X117701000Y-57036548D01*
X116332000Y-57036548D01*
X116332000Y-56265779D01*
X117701000Y-56265779D01*
X117701000Y-56496885D01*
X117705475Y-56512124D01*
X117706865Y-56513329D01*
X117714548Y-56515000D01*
X118511885Y-56515000D01*
X118527124Y-56510525D01*
X118528329Y-56509135D01*
X118530000Y-56501452D01*
X118530000Y-55579115D01*
X118525525Y-55563876D01*
X118524135Y-55562671D01*
X118516452Y-55561000D01*
X118419777Y-55561000D01*
X118412476Y-55561424D01*
X118290745Y-55575617D01*
X118276590Y-55578963D01*
X118124239Y-55634263D01*
X118111240Y-55640773D01*
X117975694Y-55729641D01*
X117964542Y-55738965D01*
X117853078Y-55856629D01*
X117844365Y-55868276D01*
X117762957Y-56008429D01*
X117757163Y-56021754D01*
X117709932Y-56177700D01*
X117707484Y-56190323D01*
X117701249Y-56260184D01*
X117701000Y-56265779D01*
X116332000Y-56265779D01*
X116332000Y-50399282D01*
X116922841Y-50399282D01*
X116956389Y-50710630D01*
X117029227Y-51015192D01*
X117140174Y-51308030D01*
X117287430Y-51584398D01*
X117468610Y-51839814D01*
X117680775Y-52070138D01*
X117920486Y-52271636D01*
X117923860Y-52273806D01*
X117923861Y-52273807D01*
X118180489Y-52438876D01*
X118183858Y-52441043D01*
X118352025Y-52521074D01*
X118462551Y-52573674D01*
X118466621Y-52575611D01*
X118764190Y-52673159D01*
X118768116Y-52673912D01*
X118768122Y-52673913D01*
X118910077Y-52701120D01*
X119071743Y-52732106D01*
X119075742Y-52732354D01*
X119075749Y-52732355D01*
X119380279Y-52751247D01*
X119384293Y-52751496D01*
X119696773Y-52731015D01*
X119700712Y-52730246D01*
X119700718Y-52730245D01*
X120000183Y-52671764D01*
X120000191Y-52671762D01*
X120004118Y-52670995D01*
X120301345Y-52572409D01*
X120583636Y-52436854D01*
X120846415Y-52266530D01*
X121085422Y-52064195D01*
X121211638Y-51926213D01*
X121294070Y-51836097D01*
X121294071Y-51836095D01*
X121296782Y-51833132D01*
X121477068Y-51577085D01*
X121623359Y-51300206D01*
X121733283Y-51006982D01*
X121805057Y-50702168D01*
X121836625Y-50399282D01*
X133686841Y-50399282D01*
X133720389Y-50710630D01*
X133793227Y-51015192D01*
X133904174Y-51308030D01*
X134051430Y-51584398D01*
X134232610Y-51839814D01*
X134444775Y-52070138D01*
X134684486Y-52271636D01*
X134687860Y-52273806D01*
X134687861Y-52273807D01*
X134944489Y-52438876D01*
X134947858Y-52441043D01*
X135116025Y-52521074D01*
X135226551Y-52573674D01*
X135230621Y-52575611D01*
X135528190Y-52673159D01*
X135532116Y-52673912D01*
X135532122Y-52673913D01*
X135674077Y-52701120D01*
X135835743Y-52732106D01*
X135839742Y-52732354D01*
X135839749Y-52732355D01*
X136144279Y-52751247D01*
X136148293Y-52751496D01*
X136460773Y-52731015D01*
X136464712Y-52730246D01*
X136464718Y-52730245D01*
X136764183Y-52671764D01*
X136764191Y-52671762D01*
X136768118Y-52670995D01*
X137065345Y-52572409D01*
X137347636Y-52436854D01*
X137610415Y-52266530D01*
X137849422Y-52064195D01*
X137975638Y-51926213D01*
X138058070Y-51836097D01*
X138058071Y-51836095D01*
X138060782Y-51833132D01*
X138241068Y-51577085D01*
X138387359Y-51300206D01*
X138497283Y-51006982D01*
X138569057Y-50702168D01*
X138601519Y-50390704D01*
X138603500Y-50292000D01*
X138590371Y-50086194D01*
X138583820Y-49983494D01*
X138583819Y-49983490D01*
X138583564Y-49979485D01*
X138524081Y-49672035D01*
X138426013Y-49374637D01*
X138338030Y-49190589D01*
X138292688Y-49095740D01*
X138292686Y-49095737D01*
X138290952Y-49092109D01*
X138179916Y-48920144D01*
X138123260Y-48832399D01*
X138123255Y-48832393D01*
X138121086Y-48829033D01*
X137919169Y-48589674D01*
X137766954Y-48449950D01*
X137691433Y-48380626D01*
X137691431Y-48380624D01*
X137688475Y-48377911D01*
X137432743Y-48197178D01*
X137156120Y-48050404D01*
X137152363Y-48048988D01*
X136866849Y-47941385D01*
X136866843Y-47941383D01*
X136863088Y-47939968D01*
X136801710Y-47925402D01*
X136562316Y-47868591D01*
X136562311Y-47868590D01*
X136558400Y-47867662D01*
X136246993Y-47834657D01*
X136242992Y-47834744D01*
X136242985Y-47834744D01*
X135937934Y-47841401D01*
X135937929Y-47841401D01*
X135933917Y-47841489D01*
X135929946Y-47842086D01*
X135628217Y-47887449D01*
X135628215Y-47887449D01*
X135624247Y-47888046D01*
X135620389Y-47889141D01*
X135620386Y-47889142D01*
X135444638Y-47939039D01*
X135323002Y-47973573D01*
X135035067Y-48096685D01*
X135031613Y-48098715D01*
X135031606Y-48098719D01*
X134878396Y-48188787D01*
X134765108Y-48255386D01*
X134517503Y-48447102D01*
X134296266Y-48668726D01*
X134293812Y-48671907D01*
X134293811Y-48671908D01*
X134172590Y-48829033D01*
X134104982Y-48916665D01*
X134102945Y-48920144D01*
X134004232Y-49088734D01*
X133946753Y-49186900D01*
X133824144Y-49475050D01*
X133739142Y-49776443D01*
X133693126Y-50086194D01*
X133693046Y-50090203D01*
X133693045Y-50090209D01*
X133688942Y-50294639D01*
X133686841Y-50399282D01*
X121836625Y-50399282D01*
X121837519Y-50390704D01*
X121839500Y-50292000D01*
X121826371Y-50086194D01*
X121819820Y-49983494D01*
X121819819Y-49983490D01*
X121819564Y-49979485D01*
X121760081Y-49672035D01*
X121662013Y-49374637D01*
X121574030Y-49190589D01*
X121528688Y-49095740D01*
X121528686Y-49095737D01*
X121526952Y-49092109D01*
X121415916Y-48920144D01*
X121359260Y-48832399D01*
X121359255Y-48832393D01*
X121357086Y-48829033D01*
X121155169Y-48589674D01*
X121002954Y-48449950D01*
X120927433Y-48380626D01*
X120927431Y-48380624D01*
X120924475Y-48377911D01*
X120668743Y-48197178D01*
X120392120Y-48050404D01*
X120388363Y-48048988D01*
X120102849Y-47941385D01*
X120102843Y-47941383D01*
X120099088Y-47939968D01*
X120037710Y-47925402D01*
X119798316Y-47868591D01*
X119798311Y-47868590D01*
X119794400Y-47867662D01*
X119482993Y-47834657D01*
X119478992Y-47834744D01*
X119478985Y-47834744D01*
X119173934Y-47841401D01*
X119173929Y-47841401D01*
X119169917Y-47841489D01*
X119165946Y-47842086D01*
X118864217Y-47887449D01*
X118864215Y-47887449D01*
X118860247Y-47888046D01*
X118856389Y-47889141D01*
X118856386Y-47889142D01*
X118680638Y-47939039D01*
X118559002Y-47973573D01*
X118271067Y-48096685D01*
X118267613Y-48098715D01*
X118267606Y-48098719D01*
X118114396Y-48188787D01*
X118001108Y-48255386D01*
X117753503Y-48447102D01*
X117532266Y-48668726D01*
X117529812Y-48671907D01*
X117529811Y-48671908D01*
X117408590Y-48829033D01*
X117340982Y-48916665D01*
X117338945Y-48920144D01*
X117240232Y-49088734D01*
X117182753Y-49186900D01*
X117060144Y-49475050D01*
X116975142Y-49776443D01*
X116929126Y-50086194D01*
X116929046Y-50090203D01*
X116929045Y-50090209D01*
X116924942Y-50294639D01*
X116922841Y-50399282D01*
X116332000Y-50399282D01*
X116332000Y-47370000D01*
X116352002Y-47301879D01*
X116405658Y-47255386D01*
X116458000Y-47244000D01*
X139066000Y-47244000D01*
X139134121Y-47264002D01*
G37*
G04 #@! TD.AperFunction*
M02*
