G04 #@! TF.GenerationSoftware,KiCad,Pcbnew,(5.0.0-rc2-200-g1f6f76beb)*
G04 #@! TF.CreationDate,2018-06-26T10:28:24+03:00*
G04 #@! TF.ProjectId,board,626F6172642E6B696361645F70636200,v0.1*
G04 #@! TF.SameCoordinates,Original*
G04 #@! TF.FileFunction,Paste,Top*
G04 #@! TF.FilePolarity,Positive*
%FSLAX46Y46*%
G04 Gerber Fmt 4.6, Leading zero omitted, Abs format (unit mm)*
G04 Created by KiCad (PCBNEW (5.0.0-rc2-200-g1f6f76beb)) date Tue Jun 26 10:28:24 2018*
%MOMM*%
%LPD*%
G01*
G04 APERTURE LIST*
%ADD10C,0.100000*%
%ADD11C,1.150000*%
G04 APERTURE END LIST*
D10*
G04 #@! TO.C,R5*
G36*
X138232505Y-62547204D02*
X138256773Y-62550804D01*
X138280572Y-62556765D01*
X138303671Y-62565030D01*
X138325850Y-62575520D01*
X138346893Y-62588132D01*
X138366599Y-62602747D01*
X138384777Y-62619223D01*
X138401253Y-62637401D01*
X138415868Y-62657107D01*
X138428480Y-62678150D01*
X138438970Y-62700329D01*
X138447235Y-62723428D01*
X138453196Y-62747227D01*
X138456796Y-62771495D01*
X138458000Y-62795999D01*
X138458000Y-63696001D01*
X138456796Y-63720505D01*
X138453196Y-63744773D01*
X138447235Y-63768572D01*
X138438970Y-63791671D01*
X138428480Y-63813850D01*
X138415868Y-63834893D01*
X138401253Y-63854599D01*
X138384777Y-63872777D01*
X138366599Y-63889253D01*
X138346893Y-63903868D01*
X138325850Y-63916480D01*
X138303671Y-63926970D01*
X138280572Y-63935235D01*
X138256773Y-63941196D01*
X138232505Y-63944796D01*
X138208001Y-63946000D01*
X137557999Y-63946000D01*
X137533495Y-63944796D01*
X137509227Y-63941196D01*
X137485428Y-63935235D01*
X137462329Y-63926970D01*
X137440150Y-63916480D01*
X137419107Y-63903868D01*
X137399401Y-63889253D01*
X137381223Y-63872777D01*
X137364747Y-63854599D01*
X137350132Y-63834893D01*
X137337520Y-63813850D01*
X137327030Y-63791671D01*
X137318765Y-63768572D01*
X137312804Y-63744773D01*
X137309204Y-63720505D01*
X137308000Y-63696001D01*
X137308000Y-62795999D01*
X137309204Y-62771495D01*
X137312804Y-62747227D01*
X137318765Y-62723428D01*
X137327030Y-62700329D01*
X137337520Y-62678150D01*
X137350132Y-62657107D01*
X137364747Y-62637401D01*
X137381223Y-62619223D01*
X137399401Y-62602747D01*
X137419107Y-62588132D01*
X137440150Y-62575520D01*
X137462329Y-62565030D01*
X137485428Y-62556765D01*
X137509227Y-62550804D01*
X137533495Y-62547204D01*
X137557999Y-62546000D01*
X138208001Y-62546000D01*
X138232505Y-62547204D01*
X138232505Y-62547204D01*
G37*
D11*
X137883000Y-63246000D03*
D10*
G36*
X136532505Y-62547204D02*
X136556773Y-62550804D01*
X136580572Y-62556765D01*
X136603671Y-62565030D01*
X136625850Y-62575520D01*
X136646893Y-62588132D01*
X136666599Y-62602747D01*
X136684777Y-62619223D01*
X136701253Y-62637401D01*
X136715868Y-62657107D01*
X136728480Y-62678150D01*
X136738970Y-62700329D01*
X136747235Y-62723428D01*
X136753196Y-62747227D01*
X136756796Y-62771495D01*
X136758000Y-62795999D01*
X136758000Y-63696001D01*
X136756796Y-63720505D01*
X136753196Y-63744773D01*
X136747235Y-63768572D01*
X136738970Y-63791671D01*
X136728480Y-63813850D01*
X136715868Y-63834893D01*
X136701253Y-63854599D01*
X136684777Y-63872777D01*
X136666599Y-63889253D01*
X136646893Y-63903868D01*
X136625850Y-63916480D01*
X136603671Y-63926970D01*
X136580572Y-63935235D01*
X136556773Y-63941196D01*
X136532505Y-63944796D01*
X136508001Y-63946000D01*
X135857999Y-63946000D01*
X135833495Y-63944796D01*
X135809227Y-63941196D01*
X135785428Y-63935235D01*
X135762329Y-63926970D01*
X135740150Y-63916480D01*
X135719107Y-63903868D01*
X135699401Y-63889253D01*
X135681223Y-63872777D01*
X135664747Y-63854599D01*
X135650132Y-63834893D01*
X135637520Y-63813850D01*
X135627030Y-63791671D01*
X135618765Y-63768572D01*
X135612804Y-63744773D01*
X135609204Y-63720505D01*
X135608000Y-63696001D01*
X135608000Y-62795999D01*
X135609204Y-62771495D01*
X135612804Y-62747227D01*
X135618765Y-62723428D01*
X135627030Y-62700329D01*
X135637520Y-62678150D01*
X135650132Y-62657107D01*
X135664747Y-62637401D01*
X135681223Y-62619223D01*
X135699401Y-62602747D01*
X135719107Y-62588132D01*
X135740150Y-62575520D01*
X135762329Y-62565030D01*
X135785428Y-62556765D01*
X135809227Y-62550804D01*
X135833495Y-62547204D01*
X135857999Y-62546000D01*
X136508001Y-62546000D01*
X136532505Y-62547204D01*
X136532505Y-62547204D01*
G37*
D11*
X136183000Y-63246000D03*
G04 #@! TD*
D10*
G04 #@! TO.C,C2*
G36*
X120870505Y-60220204D02*
X120894773Y-60223804D01*
X120918572Y-60229765D01*
X120941671Y-60238030D01*
X120963850Y-60248520D01*
X120984893Y-60261132D01*
X121004599Y-60275747D01*
X121022777Y-60292223D01*
X121039253Y-60310401D01*
X121053868Y-60330107D01*
X121066480Y-60351150D01*
X121076970Y-60373329D01*
X121085235Y-60396428D01*
X121091196Y-60420227D01*
X121094796Y-60444495D01*
X121096000Y-60468999D01*
X121096000Y-61119001D01*
X121094796Y-61143505D01*
X121091196Y-61167773D01*
X121085235Y-61191572D01*
X121076970Y-61214671D01*
X121066480Y-61236850D01*
X121053868Y-61257893D01*
X121039253Y-61277599D01*
X121022777Y-61295777D01*
X121004599Y-61312253D01*
X120984893Y-61326868D01*
X120963850Y-61339480D01*
X120941671Y-61349970D01*
X120918572Y-61358235D01*
X120894773Y-61364196D01*
X120870505Y-61367796D01*
X120846001Y-61369000D01*
X119945999Y-61369000D01*
X119921495Y-61367796D01*
X119897227Y-61364196D01*
X119873428Y-61358235D01*
X119850329Y-61349970D01*
X119828150Y-61339480D01*
X119807107Y-61326868D01*
X119787401Y-61312253D01*
X119769223Y-61295777D01*
X119752747Y-61277599D01*
X119738132Y-61257893D01*
X119725520Y-61236850D01*
X119715030Y-61214671D01*
X119706765Y-61191572D01*
X119700804Y-61167773D01*
X119697204Y-61143505D01*
X119696000Y-61119001D01*
X119696000Y-60468999D01*
X119697204Y-60444495D01*
X119700804Y-60420227D01*
X119706765Y-60396428D01*
X119715030Y-60373329D01*
X119725520Y-60351150D01*
X119738132Y-60330107D01*
X119752747Y-60310401D01*
X119769223Y-60292223D01*
X119787401Y-60275747D01*
X119807107Y-60261132D01*
X119828150Y-60248520D01*
X119850329Y-60238030D01*
X119873428Y-60229765D01*
X119897227Y-60223804D01*
X119921495Y-60220204D01*
X119945999Y-60219000D01*
X120846001Y-60219000D01*
X120870505Y-60220204D01*
X120870505Y-60220204D01*
G37*
D11*
X120396000Y-60794000D03*
D10*
G36*
X120870505Y-58520204D02*
X120894773Y-58523804D01*
X120918572Y-58529765D01*
X120941671Y-58538030D01*
X120963850Y-58548520D01*
X120984893Y-58561132D01*
X121004599Y-58575747D01*
X121022777Y-58592223D01*
X121039253Y-58610401D01*
X121053868Y-58630107D01*
X121066480Y-58651150D01*
X121076970Y-58673329D01*
X121085235Y-58696428D01*
X121091196Y-58720227D01*
X121094796Y-58744495D01*
X121096000Y-58768999D01*
X121096000Y-59419001D01*
X121094796Y-59443505D01*
X121091196Y-59467773D01*
X121085235Y-59491572D01*
X121076970Y-59514671D01*
X121066480Y-59536850D01*
X121053868Y-59557893D01*
X121039253Y-59577599D01*
X121022777Y-59595777D01*
X121004599Y-59612253D01*
X120984893Y-59626868D01*
X120963850Y-59639480D01*
X120941671Y-59649970D01*
X120918572Y-59658235D01*
X120894773Y-59664196D01*
X120870505Y-59667796D01*
X120846001Y-59669000D01*
X119945999Y-59669000D01*
X119921495Y-59667796D01*
X119897227Y-59664196D01*
X119873428Y-59658235D01*
X119850329Y-59649970D01*
X119828150Y-59639480D01*
X119807107Y-59626868D01*
X119787401Y-59612253D01*
X119769223Y-59595777D01*
X119752747Y-59577599D01*
X119738132Y-59557893D01*
X119725520Y-59536850D01*
X119715030Y-59514671D01*
X119706765Y-59491572D01*
X119700804Y-59467773D01*
X119697204Y-59443505D01*
X119696000Y-59419001D01*
X119696000Y-58768999D01*
X119697204Y-58744495D01*
X119700804Y-58720227D01*
X119706765Y-58696428D01*
X119715030Y-58673329D01*
X119725520Y-58651150D01*
X119738132Y-58630107D01*
X119752747Y-58610401D01*
X119769223Y-58592223D01*
X119787401Y-58575747D01*
X119807107Y-58561132D01*
X119828150Y-58548520D01*
X119850329Y-58538030D01*
X119873428Y-58529765D01*
X119897227Y-58523804D01*
X119921495Y-58520204D01*
X119945999Y-58519000D01*
X120846001Y-58519000D01*
X120870505Y-58520204D01*
X120870505Y-58520204D01*
G37*
D11*
X120396000Y-59094000D03*
G04 #@! TD*
D10*
G04 #@! TO.C,C1*
G36*
X120870505Y-56410204D02*
X120894773Y-56413804D01*
X120918572Y-56419765D01*
X120941671Y-56428030D01*
X120963850Y-56438520D01*
X120984893Y-56451132D01*
X121004599Y-56465747D01*
X121022777Y-56482223D01*
X121039253Y-56500401D01*
X121053868Y-56520107D01*
X121066480Y-56541150D01*
X121076970Y-56563329D01*
X121085235Y-56586428D01*
X121091196Y-56610227D01*
X121094796Y-56634495D01*
X121096000Y-56658999D01*
X121096000Y-57309001D01*
X121094796Y-57333505D01*
X121091196Y-57357773D01*
X121085235Y-57381572D01*
X121076970Y-57404671D01*
X121066480Y-57426850D01*
X121053868Y-57447893D01*
X121039253Y-57467599D01*
X121022777Y-57485777D01*
X121004599Y-57502253D01*
X120984893Y-57516868D01*
X120963850Y-57529480D01*
X120941671Y-57539970D01*
X120918572Y-57548235D01*
X120894773Y-57554196D01*
X120870505Y-57557796D01*
X120846001Y-57559000D01*
X119945999Y-57559000D01*
X119921495Y-57557796D01*
X119897227Y-57554196D01*
X119873428Y-57548235D01*
X119850329Y-57539970D01*
X119828150Y-57529480D01*
X119807107Y-57516868D01*
X119787401Y-57502253D01*
X119769223Y-57485777D01*
X119752747Y-57467599D01*
X119738132Y-57447893D01*
X119725520Y-57426850D01*
X119715030Y-57404671D01*
X119706765Y-57381572D01*
X119700804Y-57357773D01*
X119697204Y-57333505D01*
X119696000Y-57309001D01*
X119696000Y-56658999D01*
X119697204Y-56634495D01*
X119700804Y-56610227D01*
X119706765Y-56586428D01*
X119715030Y-56563329D01*
X119725520Y-56541150D01*
X119738132Y-56520107D01*
X119752747Y-56500401D01*
X119769223Y-56482223D01*
X119787401Y-56465747D01*
X119807107Y-56451132D01*
X119828150Y-56438520D01*
X119850329Y-56428030D01*
X119873428Y-56419765D01*
X119897227Y-56413804D01*
X119921495Y-56410204D01*
X119945999Y-56409000D01*
X120846001Y-56409000D01*
X120870505Y-56410204D01*
X120870505Y-56410204D01*
G37*
D11*
X120396000Y-56984000D03*
D10*
G36*
X120870505Y-54710204D02*
X120894773Y-54713804D01*
X120918572Y-54719765D01*
X120941671Y-54728030D01*
X120963850Y-54738520D01*
X120984893Y-54751132D01*
X121004599Y-54765747D01*
X121022777Y-54782223D01*
X121039253Y-54800401D01*
X121053868Y-54820107D01*
X121066480Y-54841150D01*
X121076970Y-54863329D01*
X121085235Y-54886428D01*
X121091196Y-54910227D01*
X121094796Y-54934495D01*
X121096000Y-54958999D01*
X121096000Y-55609001D01*
X121094796Y-55633505D01*
X121091196Y-55657773D01*
X121085235Y-55681572D01*
X121076970Y-55704671D01*
X121066480Y-55726850D01*
X121053868Y-55747893D01*
X121039253Y-55767599D01*
X121022777Y-55785777D01*
X121004599Y-55802253D01*
X120984893Y-55816868D01*
X120963850Y-55829480D01*
X120941671Y-55839970D01*
X120918572Y-55848235D01*
X120894773Y-55854196D01*
X120870505Y-55857796D01*
X120846001Y-55859000D01*
X119945999Y-55859000D01*
X119921495Y-55857796D01*
X119897227Y-55854196D01*
X119873428Y-55848235D01*
X119850329Y-55839970D01*
X119828150Y-55829480D01*
X119807107Y-55816868D01*
X119787401Y-55802253D01*
X119769223Y-55785777D01*
X119752747Y-55767599D01*
X119738132Y-55747893D01*
X119725520Y-55726850D01*
X119715030Y-55704671D01*
X119706765Y-55681572D01*
X119700804Y-55657773D01*
X119697204Y-55633505D01*
X119696000Y-55609001D01*
X119696000Y-54958999D01*
X119697204Y-54934495D01*
X119700804Y-54910227D01*
X119706765Y-54886428D01*
X119715030Y-54863329D01*
X119725520Y-54841150D01*
X119738132Y-54820107D01*
X119752747Y-54800401D01*
X119769223Y-54782223D01*
X119787401Y-54765747D01*
X119807107Y-54751132D01*
X119828150Y-54738520D01*
X119850329Y-54728030D01*
X119873428Y-54719765D01*
X119897227Y-54713804D01*
X119921495Y-54710204D01*
X119945999Y-54709000D01*
X120846001Y-54709000D01*
X120870505Y-54710204D01*
X120870505Y-54710204D01*
G37*
D11*
X120396000Y-55284000D03*
G04 #@! TD*
D10*
G04 #@! TO.C,R1*
G36*
X136682005Y-58393204D02*
X136706273Y-58396804D01*
X136730072Y-58402765D01*
X136753171Y-58411030D01*
X136775350Y-58421520D01*
X136796393Y-58434132D01*
X136816099Y-58448747D01*
X136834277Y-58465223D01*
X136850753Y-58483401D01*
X136865368Y-58503107D01*
X136877980Y-58524150D01*
X136888470Y-58546329D01*
X136896735Y-58569428D01*
X136902696Y-58593227D01*
X136906296Y-58617495D01*
X136907500Y-58641999D01*
X136907500Y-59292001D01*
X136906296Y-59316505D01*
X136902696Y-59340773D01*
X136896735Y-59364572D01*
X136888470Y-59387671D01*
X136877980Y-59409850D01*
X136865368Y-59430893D01*
X136850753Y-59450599D01*
X136834277Y-59468777D01*
X136816099Y-59485253D01*
X136796393Y-59499868D01*
X136775350Y-59512480D01*
X136753171Y-59522970D01*
X136730072Y-59531235D01*
X136706273Y-59537196D01*
X136682005Y-59540796D01*
X136657501Y-59542000D01*
X135757499Y-59542000D01*
X135732995Y-59540796D01*
X135708727Y-59537196D01*
X135684928Y-59531235D01*
X135661829Y-59522970D01*
X135639650Y-59512480D01*
X135618607Y-59499868D01*
X135598901Y-59485253D01*
X135580723Y-59468777D01*
X135564247Y-59450599D01*
X135549632Y-59430893D01*
X135537020Y-59409850D01*
X135526530Y-59387671D01*
X135518265Y-59364572D01*
X135512304Y-59340773D01*
X135508704Y-59316505D01*
X135507500Y-59292001D01*
X135507500Y-58641999D01*
X135508704Y-58617495D01*
X135512304Y-58593227D01*
X135518265Y-58569428D01*
X135526530Y-58546329D01*
X135537020Y-58524150D01*
X135549632Y-58503107D01*
X135564247Y-58483401D01*
X135580723Y-58465223D01*
X135598901Y-58448747D01*
X135618607Y-58434132D01*
X135639650Y-58421520D01*
X135661829Y-58411030D01*
X135684928Y-58402765D01*
X135708727Y-58396804D01*
X135732995Y-58393204D01*
X135757499Y-58392000D01*
X136657501Y-58392000D01*
X136682005Y-58393204D01*
X136682005Y-58393204D01*
G37*
D11*
X136207500Y-58967000D03*
D10*
G36*
X136682005Y-60093204D02*
X136706273Y-60096804D01*
X136730072Y-60102765D01*
X136753171Y-60111030D01*
X136775350Y-60121520D01*
X136796393Y-60134132D01*
X136816099Y-60148747D01*
X136834277Y-60165223D01*
X136850753Y-60183401D01*
X136865368Y-60203107D01*
X136877980Y-60224150D01*
X136888470Y-60246329D01*
X136896735Y-60269428D01*
X136902696Y-60293227D01*
X136906296Y-60317495D01*
X136907500Y-60341999D01*
X136907500Y-60992001D01*
X136906296Y-61016505D01*
X136902696Y-61040773D01*
X136896735Y-61064572D01*
X136888470Y-61087671D01*
X136877980Y-61109850D01*
X136865368Y-61130893D01*
X136850753Y-61150599D01*
X136834277Y-61168777D01*
X136816099Y-61185253D01*
X136796393Y-61199868D01*
X136775350Y-61212480D01*
X136753171Y-61222970D01*
X136730072Y-61231235D01*
X136706273Y-61237196D01*
X136682005Y-61240796D01*
X136657501Y-61242000D01*
X135757499Y-61242000D01*
X135732995Y-61240796D01*
X135708727Y-61237196D01*
X135684928Y-61231235D01*
X135661829Y-61222970D01*
X135639650Y-61212480D01*
X135618607Y-61199868D01*
X135598901Y-61185253D01*
X135580723Y-61168777D01*
X135564247Y-61150599D01*
X135549632Y-61130893D01*
X135537020Y-61109850D01*
X135526530Y-61087671D01*
X135518265Y-61064572D01*
X135512304Y-61040773D01*
X135508704Y-61016505D01*
X135507500Y-60992001D01*
X135507500Y-60341999D01*
X135508704Y-60317495D01*
X135512304Y-60293227D01*
X135518265Y-60269428D01*
X135526530Y-60246329D01*
X135537020Y-60224150D01*
X135549632Y-60203107D01*
X135564247Y-60183401D01*
X135580723Y-60165223D01*
X135598901Y-60148747D01*
X135618607Y-60134132D01*
X135639650Y-60121520D01*
X135661829Y-60111030D01*
X135684928Y-60102765D01*
X135708727Y-60096804D01*
X135732995Y-60093204D01*
X135757499Y-60092000D01*
X136657501Y-60092000D01*
X136682005Y-60093204D01*
X136682005Y-60093204D01*
G37*
D11*
X136207500Y-60667000D03*
G04 #@! TD*
M02*
