G04 #@! TF.GenerationSoftware,KiCad,Pcbnew,(5.0.0-rc3-dev)*
G04 #@! TF.CreationDate,2018-07-03T21:02:48+03:00*
G04 #@! TF.ProjectId,board,626F6172642E6B696361645F70636200,v0.1*
G04 #@! TF.SameCoordinates,Original*
G04 #@! TF.FileFunction,Legend,Bot*
G04 #@! TF.FilePolarity,Positive*
%FSLAX46Y46*%
G04 Gerber Fmt 4.6, Leading zero omitted, Abs format (unit mm)*
G04 Created by KiCad (PCBNEW (5.0.0-rc3-dev)) date Tue Jul  3 21:02:48 2018*
%MOMM*%
%LPD*%
G01*
G04 APERTURE LIST*
%ADD10C,0.120000*%
%ADD11C,0.150000*%
G04 APERTURE END LIST*
D10*
G04 #@! TO.C,C4*
X125424000Y-70245017D02*
X125424000Y-70660983D01*
X124004000Y-70245017D02*
X124004000Y-70660983D01*
G04 #@! TO.C,C3*
X131243000Y-70245017D02*
X131243000Y-70660983D01*
X132663000Y-70245017D02*
X132663000Y-70660983D01*
G04 #@! TO.C,U1*
X129216356Y-72183000D02*
X127416356Y-72183000D01*
X127416356Y-68963000D02*
X129866356Y-68963000D01*
G04 #@! TO.C,R4*
X135497500Y-57738983D02*
X135497500Y-57323017D01*
X136917500Y-57738983D02*
X136917500Y-57323017D01*
G04 #@! TO.C,R3*
X121106000Y-65281183D02*
X121106000Y-64865217D01*
X119686000Y-65281183D02*
X119686000Y-64865217D01*
G04 #@! TO.C,R2*
X135307000Y-53205983D02*
X135307000Y-52790017D01*
X136727000Y-53205983D02*
X136727000Y-52790017D01*
G04 #@! TO.C,C4*
D11*
X122721666Y-69826142D02*
X122769285Y-69873761D01*
X122912142Y-69921380D01*
X123007380Y-69921380D01*
X123150238Y-69873761D01*
X123245476Y-69778523D01*
X123293095Y-69683285D01*
X123340714Y-69492809D01*
X123340714Y-69349952D01*
X123293095Y-69159476D01*
X123245476Y-69064238D01*
X123150238Y-68969000D01*
X123007380Y-68921380D01*
X122912142Y-68921380D01*
X122769285Y-68969000D01*
X122721666Y-69016619D01*
X121864523Y-69254714D02*
X121864523Y-69921380D01*
X122102619Y-68873761D02*
X122340714Y-69588047D01*
X121721666Y-69588047D01*
G04 #@! TO.C,C3*
X134024666Y-69191142D02*
X134072285Y-69238761D01*
X134215142Y-69286380D01*
X134310380Y-69286380D01*
X134453238Y-69238761D01*
X134548476Y-69143523D01*
X134596095Y-69048285D01*
X134643714Y-68857809D01*
X134643714Y-68714952D01*
X134596095Y-68524476D01*
X134548476Y-68429238D01*
X134453238Y-68334000D01*
X134310380Y-68286380D01*
X134215142Y-68286380D01*
X134072285Y-68334000D01*
X134024666Y-68381619D01*
X133691333Y-68286380D02*
X133072285Y-68286380D01*
X133405619Y-68667333D01*
X133262761Y-68667333D01*
X133167523Y-68714952D01*
X133119904Y-68762571D01*
X133072285Y-68857809D01*
X133072285Y-69095904D01*
X133119904Y-69191142D01*
X133167523Y-69238761D01*
X133262761Y-69286380D01*
X133548476Y-69286380D01*
X133643714Y-69238761D01*
X133691333Y-69191142D01*
G04 #@! TO.C,U1*
X127253904Y-68032380D02*
X127253904Y-68841904D01*
X127206285Y-68937142D01*
X127158666Y-68984761D01*
X127063428Y-69032380D01*
X126872952Y-69032380D01*
X126777714Y-68984761D01*
X126730095Y-68937142D01*
X126682476Y-68841904D01*
X126682476Y-68032380D01*
X125682476Y-69032380D02*
X126253904Y-69032380D01*
X125968190Y-69032380D02*
X125968190Y-68032380D01*
X126063428Y-68175238D01*
X126158666Y-68270476D01*
X126253904Y-68318095D01*
G04 #@! TO.C,R4*
X136564666Y-61158380D02*
X136898000Y-60682190D01*
X137136095Y-61158380D02*
X137136095Y-60158380D01*
X136755142Y-60158380D01*
X136659904Y-60206000D01*
X136612285Y-60253619D01*
X136564666Y-60348857D01*
X136564666Y-60491714D01*
X136612285Y-60586952D01*
X136659904Y-60634571D01*
X136755142Y-60682190D01*
X137136095Y-60682190D01*
X135707523Y-60491714D02*
X135707523Y-61158380D01*
X135945619Y-60110761D02*
X136183714Y-60825047D01*
X135564666Y-60825047D01*
G04 #@! TO.C,R3*
X120562666Y-63100780D02*
X120896000Y-62624590D01*
X121134095Y-63100780D02*
X121134095Y-62100780D01*
X120753142Y-62100780D01*
X120657904Y-62148400D01*
X120610285Y-62196019D01*
X120562666Y-62291257D01*
X120562666Y-62434114D01*
X120610285Y-62529352D01*
X120657904Y-62576971D01*
X120753142Y-62624590D01*
X121134095Y-62624590D01*
X120229333Y-62100780D02*
X119610285Y-62100780D01*
X119943619Y-62481733D01*
X119800761Y-62481733D01*
X119705523Y-62529352D01*
X119657904Y-62576971D01*
X119610285Y-62672209D01*
X119610285Y-62910304D01*
X119657904Y-63005542D01*
X119705523Y-63053161D01*
X119800761Y-63100780D01*
X120086476Y-63100780D01*
X120181714Y-63053161D01*
X120229333Y-63005542D01*
G04 #@! TO.C,R2*
X138088666Y-54466380D02*
X138422000Y-53990190D01*
X138660095Y-54466380D02*
X138660095Y-53466380D01*
X138279142Y-53466380D01*
X138183904Y-53514000D01*
X138136285Y-53561619D01*
X138088666Y-53656857D01*
X138088666Y-53799714D01*
X138136285Y-53894952D01*
X138183904Y-53942571D01*
X138279142Y-53990190D01*
X138660095Y-53990190D01*
X137707714Y-53561619D02*
X137660095Y-53514000D01*
X137564857Y-53466380D01*
X137326761Y-53466380D01*
X137231523Y-53514000D01*
X137183904Y-53561619D01*
X137136285Y-53656857D01*
X137136285Y-53752095D01*
X137183904Y-53894952D01*
X137755333Y-54466380D01*
X137136285Y-54466380D01*
G04 #@! TD*
M02*
